<?xml version="1.0" encoding="iso-8859-1"?>
<!-- Generator: Adobe Illustrator 19.0.0, SVG Export Plug-In . SVG Version: 6.00 Build 0)  -->
<svg version="1.1" id="Capa_1" xmlns="http://www.w3.org/2000/svg" xmlns:xlink="http://www.w3.org/1999/xlink" x="0px" y="0px"
	 viewBox="0 0 511.999 511.999" style="enable-background:new 0 0 511.999 511.999;" xml:space="preserve">
<path style="fill:#4E901E;" d="M306.269,233.304c-29.587-27.345-46.481-69.216-46.481-113.166l0,0
	c0-54.701-38.485-99.456-85.522-99.456s-85.522,44.756-85.522,99.456l0,0c0,43.951-16.894,85.821-46.481,113.166
	c-25.706,23.757-42.26,60.4-42.26,101.323l0,0c0,86.18,60.631,156.69,134.737,156.69h79.053c74.105,0,134.737-70.51,134.737-156.69
	l0,0C348.53,293.705,331.975,257.062,306.269,233.304z"/>
<path style="fill:#91DC5A;" d="M469.74,233.304c-29.587-27.345-46.481-69.216-46.481-113.166l0,0
	c0-54.701-38.485-99.456-85.522-99.456s-85.522,44.756-85.522,99.456l0,0c0,43.951-16.894,85.821-46.481,113.166
	c-25.706,23.757-42.26,60.4-42.26,101.323l0,0c0,86.18,60.631,156.69,134.737,156.69h79.053c74.105,0,134.737-70.51,134.737-156.69
	l0,0C512,293.705,495.445,257.062,469.74,233.304z"/>
<circle style="fill:#AA6100;" cx="337.741" cy="338.165" r="89.39"/>
<path style="fill:#884D00;" d="M359.967,424.783c-7.112,1.809-14.555,2.781-22.226,2.781c-49.373,0-89.4-40.027-89.4-89.39
	c0-49.373,40.027-89.4,89.4-89.4c7.671,0,15.114,0.972,22.226,2.781c-38.621,9.883-67.174,44.917-67.174,86.619
	C292.793,379.866,321.346,414.901,359.967,424.783z"/>
<path style="fill:#6DC82A;" d="M346.797,491.316H298.21c-37.05,0-70.741-17.626-95.158-46.034
	c-24.418-28.398-39.583-67.567-39.583-110.654c0-40.927,16.561-77.563,42.26-101.319c14.793-13.677,26.423-30.982,34.342-50.365
	c7.929-19.373,12.147-40.823,12.147-62.801c0-54.707,38.477-99.459,85.523-99.459c8.436,0,16.592,1.437,24.293,4.125
	c-35.303,12.229-61.23,50.427-61.23,95.334c0,21.978-4.218,43.428-12.147,62.801c-7.919,19.383-19.548,36.688-34.342,50.365
	c-25.699,23.756-42.26,60.393-42.26,101.319c0,43.087,15.165,82.257,39.583,110.654
	C276.057,473.691,309.747,491.316,346.797,491.316z"/>
<path style="fill:#5EAC24;" d="M231.191,490.004c-5.696,0.868-11.506,1.313-17.398,1.313h-79.052
	c-37.05,0-70.741-17.626-95.158-46.034C15.155,416.885,0,377.716,0,334.629c0-40.927,16.561-77.563,42.26-101.319
	c14.793-13.677,26.413-30.982,34.342-50.365c7.919-19.373,12.147-40.823,12.147-62.801c0-54.707,38.477-99.459,85.513-99.459
	c21.812,0,41.785,9.624,56.929,25.4c-17.522,18.246-28.594,44.721-28.594,74.059c0,21.978-4.218,43.428-12.147,62.801
	c-7.919,19.383-19.549,36.688-34.342,50.365c-25.699,23.756-42.26,60.393-42.26,101.319c0,43.087,15.165,82.257,39.583,110.654
	C173.962,469.173,201.057,485.434,231.191,490.004z"/>
<g>
</g>
<g>
</g>
<g>
</g>
<g>
</g>
<g>
</g>
<g>
</g>
<g>
</g>
<g>
</g>
<g>
</g>
<g>
</g>
<g>
</g>
<g>
</g>
<g>
</g>
<g>
</g>
<g>
</g>
</svg>
