<?xml version="1.0" encoding="iso-8859-1"?>
<!-- Generator: Adobe Illustrator 19.0.0, SVG Export Plug-In . SVG Version: 6.00 Build 0)  -->
<svg version="1.1" id="Capa_1" xmlns="http://www.w3.org/2000/svg" xmlns:xlink="http://www.w3.org/1999/xlink" x="0px" y="0px"
	 viewBox="0 0 512.001 512.001" style="enable-background:new 0 0 512.001 512.001;" xml:space="preserve">
<path style="fill:#5EAC24;" d="M491.659,90.844c-0.231,0.2-0.462,0.41-0.693,0.609c-10.697,9.373-31.428,25.092-56.898,32.121
	c-5.275,1.461-10.76,2.543-16.392,3.121c-6.452,0.662-13.113,0.662-19.912-0.21h-0.01c-9.047-1.156-18.346-3.846-27.698-8.553
	c-0.01,0-0.01,0-0.01,0c-11.516-5.79-23.137-14.616-34.559-27.382c-0.347-0.389-0.683-0.778-1.03-1.166
	c-2.774-3.152-2.816-7.86-0.105-11.064c0.904-1.072,1.944-2.249,3.131-3.52c12.189-13.092,38.951-35.105,78.627-31.239
	c5.18,0.504,10.581,1.45,16.202,2.911c16.822,4.392,35.589,13.429,56.204,29.211c0.935,0.715,1.881,1.45,2.827,2.196
	C495.484,81.135,495.6,87.355,491.659,90.844z"/>
<path style="fill:#4E901E;" d="M490.966,91.453c-1.355,1.187-2.869,2.48-4.539,3.835C467.66,81.65,450.47,73.643,434.94,69.587
	c-5.621-1.461-11.022-2.406-16.202-2.911c-38.457-3.751-64.778,16.812-77.461,29.999c-3.34-3.34-5.306-5.595-6.819-7.292
	c-2.774-3.152-2.816-7.86-0.105-11.064c0.904-1.072,1.944-2.249,3.131-3.52c36.739-39.464,91.425-46.172,153.86,3.079
	C495.126,80.853,496.188,86.946,490.966,91.453z"/>
<path style="fill:#47821C;" d="M491.659,90.844c-0.231,0.2-0.462,0.41-0.693,0.609l-79.268-0.462l21.13,29.831
	c0.599,0.862,1.019,1.786,1.24,2.753c-5.275,1.461-10.76,2.543-16.392,3.121l-25.375-35.809l-56.814-0.336
	c-0.347-0.389-0.683-0.778-1.03-1.166c-2.774-3.152-2.816-7.86-0.105-11.064c0.904-1.072,1.944-2.249,3.131-3.52l54.323,0.315
	l24.304-31.554c5.18,0.504,10.581,1.45,16.202,2.911c-0.147,1.387-0.672,2.753-1.587,3.93L411.614,75.23l76.904,0.452
	c0.935,0.715,1.881,1.45,2.827,2.196C495.484,81.135,495.6,87.355,491.659,90.844z"/>
<path style="fill:#7ED63E;" d="M495.022,185.201c-0.588,0.189-1.208,0.389-1.849,0.588c-13.807,4.329-38.3,10.024-63.654,6.494
	c-5.422-0.757-10.875-1.933-16.287-3.646c-24.482-7.712-47.788-26.248-60.933-65.262c-0.2-0.578-0.389-1.156-0.578-1.734
	c-1.345-4.129,0.546-8.648,4.445-10.57c1.061-0.525,2.249-1.082,3.541-1.65c16.213-7.219,49.826-17.18,85.058,2.291
	c4.56,2.522,9.152,5.537,13.733,9.12c13.964,10.896,27.866,27.036,40.716,50.394c0.263,0.462,0.525,0.935,0.778,1.408
	C502.619,177.467,500.254,183.499,495.022,185.201z"/>
<path style="fill:#6DC82A;" d="M495.232,185.127c-11.863-20.122-24.535-34.401-37.259-44.331c-4.581-3.583-9.173-6.599-13.733-9.12
	c-35.231-19.47-68.845-9.509-85.058-2.291c-1.292,0.567-2.48,1.124-3.541,1.65c-0.147,0.074-0.294,0.147-0.431,0.231
	c-1.019-2.532-1.986-5.159-2.911-7.891c-0.2-0.578-0.389-1.156-0.578-1.734c-1.345-4.129,0.546-8.648,4.445-10.57
	c1.061-0.525,2.249-1.082,3.541-1.65c16.213-7.219,49.826-17.18,85.058,2.291c4.56,2.522,9.152,5.537,13.733,9.12
	c13.964,10.896,27.866,27.036,40.716,50.394c0.263,0.462,0.525,0.935,0.778,1.408C502.587,177.404,500.317,183.33,495.232,185.127z"
	/>
<path style="fill:#5EAC24;" d="M495.022,185.201c-0.588,0.189-1.208,0.389-1.849,0.588l-71.104-31.501l7.397,34.979
	c0.221,1.019,0.221,2.038,0.053,3.016c-5.422-0.757-10.875-1.933-16.287-3.646l-8.942-42.229l-51.991-23.032
	c-0.2-0.578-0.389-1.156-0.578-1.734c-1.345-4.129,0.546-8.648,4.445-10.57c1.061-0.525,2.249-1.082,3.541-1.65l49.606,21.971
	l35.452-19.68c4.56,2.522,9.152,5.537,13.733,9.12c-0.693,1.208-1.713,2.238-3.016,2.963l-28.107,15.604l71.839,31.827
	c0.263,0.462,0.525,0.935,0.778,1.408C502.619,177.467,500.254,183.499,495.022,185.201z"/>
<path style="fill:#AA6100;" d="M269.449,156.623L269.449,156.623c-9.41-5.1-12.938-16.973-7.837-26.383l65.065-120.064
	c5.1-9.41,16.973-12.938,26.383-7.837l0,0c9.41,5.1,12.938,16.973,7.838,26.383l-65.065,120.064
	C290.732,158.196,278.86,161.723,269.449,156.623z"/>
<path style="fill:#6DC82A;" d="M98.345,117.827c-28.37,42.225-18.118,80.921-16.405,94.987
	c12.81,105.19-32.064,165.057-49.916,184.344c-8.312,8.981-14.666,19.649-18.168,31.375c-17.281,57.861,47.598,77.281,47.598,77.281
	c253.147,51.616,324.441-236.677,324.441-236.677C429.789,73.35,210.461-49.04,98.345,117.827z"/>
<path style="fill:#5EAC24;" d="M321.901,71.258c-58.537-18.356-126.856-0.2-175.222,71.787
	c-28.37,42.229-18.115,80.918-16.402,94.987c12.809,105.19-32.069,165.061-49.921,184.342c-8.311,8.984-14.668,19.649-18.167,31.375
	c-7.313,24.493,0.095,42.093,11.064,54.25c-3.888-0.641-7.818-1.376-11.8-2.186c0,0-64.873-19.418-47.599-77.282
	c3.499-11.726,9.856-22.391,18.167-31.375c17.852-19.281,62.729-79.153,49.921-184.342c-1.713-14.069-11.968-52.758,16.402-94.987
	C160.938,24.668,256.944,21.663,321.901,71.258z"/>
<g>
</g>
<g>
</g>
<g>
</g>
<g>
</g>
<g>
</g>
<g>
</g>
<g>
</g>
<g>
</g>
<g>
</g>
<g>
</g>
<g>
</g>
<g>
</g>
<g>
</g>
<g>
</g>
<g>
</g>
</svg>
