<?xml version="1.0" encoding="UTF-8"?>
<!DOCTYPE svg PUBLIC "-//W3C//DTD SVG 1.1//EN" "http://www.w3.org/Graphics/SVG/1.1/DTD/svg11.dtd">
<svg xmlns="http://www.w3.org/2000/svg" version="1.1" width="512px" height="512px" style="shape-rendering:geometricPrecision; text-rendering:geometricPrecision; image-rendering:optimizeQuality; fill-rule:evenodd; clip-rule:evenodd" xmlns:xlink="http://www.w3.org/1999/xlink">
<g><path style="opacity:1" fill="#dbb56a" d="M 253.5,0.5 C 253.833,0.5 254.167,0.5 254.5,0.5C 255.675,0.28099 256.675,0.614324 257.5,1.5C 296.278,78.7806 317.278,160.614 320.5,247C 320.504,302.63 314.004,357.463 301,411.5C 296.669,427.493 290.669,442.827 283,457.5C 277.718,467.954 269.551,474.954 258.5,478.5C 248.924,478.798 241.091,475.131 235,467.5C 224.394,452.617 216.727,436.284 212,418.5C 178.428,297.323 183.762,177.99 228,60.5C 235.686,40.1317 244.186,20.1317 253.5,0.5 Z"/></g>
<g><path style="opacity:1" fill="#efcb83" d="M 254.5,0.5 C 254.5,0.166667 254.5,-0.166667 254.5,-0.5C 256.5,-0.5 258.5,-0.5 260.5,-0.5C 314.647,31.4398 363.814,70.1065 408,115.5C 423.539,133.035 437.539,151.702 450,171.5C 469.043,203.381 476.043,237.714 471,274.5C 461.019,355.038 421.186,415.538 351.5,456C 340.838,461.386 329.838,465.886 318.5,469.5C 312.313,470.877 306.313,472.544 300.5,474.5C 295.521,475.608 290.521,476.608 285.5,477.5C 279.611,477.45 273.944,478.116 268.5,479.5C 265.167,479.5 261.833,479.5 258.5,479.5C 258.5,479.167 258.5,478.833 258.5,478.5C 269.551,474.954 277.718,467.954 283,457.5C 290.669,442.827 296.669,427.493 301,411.5C 314.004,357.463 320.504,302.63 320.5,247C 317.278,160.614 296.278,78.7806 257.5,1.5C 256.675,0.614324 255.675,0.28099 254.5,0.5 Z"/></g>
<g><path style="opacity:1" fill="#eeca83" d="M 253.5,0.5 C 244.186,20.1317 235.686,40.1317 228,60.5C 183.762,177.99 178.428,297.323 212,418.5C 216.727,436.284 224.394,452.617 235,467.5C 241.091,475.131 248.924,478.798 258.5,478.5C 258.5,478.833 258.5,479.167 258.5,479.5C 255.167,479.5 251.833,479.5 248.5,479.5C 245.609,478.597 242.609,478.264 239.5,478.5C 211.542,471.068 188.376,456.068 170,433.5C 146.498,402.485 130.498,367.819 122,329.5C 113.945,294.558 111.278,259.225 114,223.5C 120.264,186.306 133.264,151.639 153,119.5C 180.39,74.7494 213.89,35.0828 253.5,0.5 Z"/></g>
<g><path style="opacity:0.993" fill="#f3d69d" d="M 250.5,-0.5 C 251.833,-0.5 253.167,-0.5 254.5,-0.5C 254.5,-0.166667 254.5,0.166667 254.5,0.5C 254.167,0.5 253.833,0.5 253.5,0.5C 213.89,35.0828 180.39,74.7494 153,119.5C 133.264,151.639 120.264,186.306 114,223.5C 111.278,259.225 113.945,294.558 122,329.5C 130.498,367.819 146.498,402.485 170,433.5C 188.376,456.068 211.542,471.068 239.5,478.5C 236.5,478.5 233.5,478.5 230.5,478.5C 225.016,477.196 219.349,476.196 213.5,475.5C 207.795,473.203 201.795,471.537 195.5,470.5C 132.146,448.987 86.6463,407.653 59,346.5C 41.7127,306.78 35.7127,265.446 41,222.5C 47.3511,197.135 58.0178,173.802 73,152.5C 100.795,115.705 132.962,83.2049 169.5,55C 195.58,35.0744 222.58,16.5744 250.5,-0.5 Z"/></g>
<g><path style="opacity:1" fill="#f2d59d" d="M 318.5,64.5 C 354.644,90.8213 385.478,122.821 411,160.5C 424.451,181.075 433.785,203.408 439,227.5C 444.467,304.693 419.634,370.193 364.5,424C 350.549,435.977 335.549,446.477 319.5,455.5C 345.193,431.955 364.359,403.288 377,369.5C 396.439,316.556 402.105,262.223 394,206.5C 379.519,153.19 354.352,105.856 318.5,64.5 Z"/></g>
<g><path style="opacity:0.972" fill="#f4e2c1" d="M 318.5,469.5 C 326.325,479.136 334.158,488.803 342,498.5C 344.394,503.473 343.56,507.806 339.5,511.5C 336.5,511.5 333.5,511.5 330.5,511.5C 320.5,499.167 310.5,486.833 300.5,474.5C 306.313,472.544 312.313,470.877 318.5,469.5 Z"/></g>
<g><path style="opacity:0.974" fill="#f4e2c1" d="M 195.5,470.5 C 201.795,471.537 207.795,473.203 213.5,475.5C 203.817,487.842 193.817,499.842 183.5,511.5C 180.833,511.5 178.167,511.5 175.5,511.5C 171.829,508.707 170.662,505.04 172,500.5C 179.601,490.288 187.434,480.288 195.5,470.5 Z"/></g>
<g><path style="opacity:0.978" fill="#f4e2c1" d="M 285.5,477.5 C 288.32,485.146 291.153,492.812 294,500.5C 295.338,505.04 294.171,508.707 290.5,511.5C 287.833,511.5 285.167,511.5 282.5,511.5C 281.312,510.636 280.145,509.636 279,508.5C 275.194,498.913 271.694,489.246 268.5,479.5C 273.944,478.116 279.611,477.45 285.5,477.5 Z"/></g>
<g><path style="opacity:0.977" fill="#f4e2c1" d="M 230.5,478.5 C 233.5,478.5 236.5,478.5 239.5,478.5C 242.609,478.264 245.609,478.597 248.5,479.5C 245.105,488.848 241.605,498.182 238,507.5C 236.624,508.705 235.458,510.038 234.5,511.5C 231.833,511.5 229.167,511.5 226.5,511.5C 223.86,509.577 222.193,506.91 221.5,503.5C 224.704,495.219 227.704,486.886 230.5,478.5 Z"/></g>
</svg>
