<?xml version="1.0" encoding="UTF-8"?>
<!DOCTYPE svg PUBLIC "-//W3C//DTD SVG 1.1//EN" "http://www.w3.org/Graphics/SVG/1.1/DTD/svg11.dtd">
<svg xmlns="http://www.w3.org/2000/svg" version="1.1" width="512px" height="512px" style="shape-rendering:geometricPrecision; text-rendering:geometricPrecision; image-rendering:optimizeQuality; fill-rule:evenodd; clip-rule:evenodd" xmlns:xlink="http://www.w3.org/1999/xlink">
<g><path style="opacity:0.999" fill="#f2cbbf" d="M 510.5,230.5 C 510.167,230.5 509.833,230.5 509.5,230.5C 507.469,219.152 501.135,215.652 490.5,220C 488.548,222.426 486.881,224.926 485.5,227.5C 482.499,216.319 475.165,210.319 463.5,209.5C 460.359,208.679 457.025,208.179 453.5,208C 472.042,202.626 483.042,190.459 486.5,171.5C 484.524,163.042 479.191,159.542 470.5,161C 467.642,162.694 465.309,164.861 463.5,167.5C 463.809,161.388 461.975,156.054 458,151.5C 450.54,143.864 442.373,137.197 433.5,131.5C 414.166,117.671 392.833,107.838 369.5,102C 348.165,95.957 326.498,93.6236 304.5,95C 285.078,100.007 280.911,110.84 292,127.5C 303.213,139.883 316.046,150.217 330.5,158.5C 319.063,160.929 315.396,167.596 319.5,178.5C 309.46,172.639 299.793,166.139 290.5,159C 279.794,149.291 268.794,139.958 257.5,131C 226.149,112.585 194.482,111.919 162.5,129C 150.813,140.866 149.313,154.033 158,168.5C 181.58,191.653 196.246,219.653 202,252.5C 204.76,266.531 206.593,280.531 207.5,294.5C 207.152,301.948 207.818,309.281 209.5,316.5C 201.958,310.677 195.458,311.677 190,319.5C 189.5,328.187 192.167,335.854 198,342.5C 203.117,348.459 208.95,353.459 215.5,357.5C 215.265,358.097 214.765,358.43 214,358.5C 203.182,354.395 192.348,350.395 181.5,346.5C 187.586,306.298 184.086,266.965 171,228.5C 154.256,187.691 123.756,165.857 79.5,163C 50.1903,158.421 26.357,167.588 8,190.5C 4.66975,196.354 1.83641,202.354 -0.5,208.5C -0.5,207.167 -0.5,205.833 -0.5,204.5C 6.78599,181.031 20.786,162.531 41.5,149C 50.0165,143.239 59.0165,138.239 68.5,134C 94.2843,124.72 120.284,116.053 146.5,108C 172.691,97.9365 199.024,88.2698 225.5,79C 284.679,64.0242 343.013,66.6908 400.5,87C 434.643,99.8063 463.143,120.306 486,148.5C 504.357,172.742 512.524,200.075 510.5,230.5 Z"/></g>
<g><path style="opacity:1" fill="#ae2b00" d="M 433.5,131.5 C 421.288,131.882 417.121,137.882 421,149.5C 425.199,154.034 429.699,158.201 434.5,162C 401.944,163.743 371.611,156.409 343.5,140C 341.527,139.505 339.527,139.338 337.5,139.5C 329.343,143.749 327.343,150.082 331.5,158.5C 331.167,158.5 330.833,158.5 330.5,158.5C 316.046,150.217 303.213,139.883 292,127.5C 280.911,110.84 285.078,100.007 304.5,95C 326.498,93.6236 348.165,95.957 369.5,102C 392.833,107.838 414.166,117.671 433.5,131.5 Z"/></g>
<g><path style="opacity:1" fill="#d55027" d="M 337.5,139.5 C 327.802,138.423 323.635,133.089 325,123.5C 328.323,117.092 333.489,114.925 340.5,117C 349.387,123.449 349.721,130.449 341.5,138C 339.942,138.21 338.609,138.71 337.5,139.5 Z"/></g>
<g><path style="opacity:1" fill="#ae2b00" d="M 319.5,178.5 C 321.531,180.522 323.865,182.189 326.5,183.5C 332.653,189.421 334.987,196.421 333.5,204.5C 331.364,195.097 325.697,191.931 316.5,195C 309.843,202.148 305.677,210.648 304,220.5C 300.93,246.631 308.93,268.631 328,286.5C 335.457,299.606 333.623,311.106 322.5,321C 315.855,324.858 308.688,326.358 301,325.5C 285.063,325.069 269.23,323.569 253.5,321C 247.416,319.856 241.582,318.023 236,315.5C 231.28,308.956 229.28,301.623 230,293.5C 221.991,282.783 214.491,283.117 207.5,294.5C 206.593,280.531 204.76,266.531 202,252.5C 196.246,219.653 181.58,191.653 158,168.5C 149.313,154.033 150.813,140.866 162.5,129C 194.482,111.919 226.149,112.585 257.5,131C 268.794,139.958 279.794,149.291 290.5,159C 299.793,166.139 309.46,172.639 319.5,178.5 Z"/></g>
<g><path style="opacity:1" fill="#8e1600" d="M 433.5,131.5 C 442.373,137.197 450.54,143.864 458,151.5C 461.975,156.054 463.809,161.388 463.5,167.5C 462.709,174.916 459.042,180.416 452.5,184C 417.231,188.508 383.231,183.842 350.5,170C 343.77,166.643 337.437,162.81 331.5,158.5C 327.343,150.082 329.343,143.749 337.5,139.5C 339.527,139.338 341.527,139.505 343.5,140C 371.611,156.409 401.944,163.743 434.5,162C 429.699,158.201 425.199,154.034 421,149.5C 417.121,137.882 421.288,131.882 433.5,131.5 Z"/></g>
<g><path style="opacity:1" fill="#d55027" d="M 210.5,139.5 C 226.853,137.117 240.686,141.784 252,153.5C 256.34,166.993 251.84,176.493 238.5,182C 223.344,187.492 208.677,186.492 194.5,179C 181.618,168.648 181.285,157.981 193.5,147C 198.872,143.607 204.538,141.107 210.5,139.5 Z"/></g>
<g><path style="opacity:1" fill="#e38c72" d="M 330.5,158.5 C 330.833,158.5 331.167,158.5 331.5,158.5C 337.437,162.81 343.77,166.643 350.5,170C 383.231,183.842 417.231,188.508 452.5,184C 459.042,180.416 462.709,174.916 463.5,167.5C 465.309,164.861 467.642,162.694 470.5,161C 479.191,159.542 484.524,163.042 486.5,171.5C 483.042,190.459 472.042,202.626 453.5,208C 457.025,208.179 460.359,208.679 463.5,209.5C 438.833,209.5 414.167,209.5 389.5,209.5C 395.319,208.672 401.319,208.172 407.5,208C 378.531,206.048 351.531,197.881 326.5,183.5C 323.865,182.189 321.531,180.522 319.5,178.5C 315.396,167.596 319.063,160.929 330.5,158.5 Z"/></g>
<g><path style="opacity:1" fill="#ae2b00" d="M 181.5,346.5 C 179.541,352.417 176.541,357.75 172.5,362.5C 171.236,347.74 163.903,337.24 150.5,331C 135.104,326.202 119.771,321.202 104.5,316C 92.8753,311.86 82.5419,305.693 73.5,297.5C 69.4361,290.931 64.4361,285.097 58.5,280C 38.2492,269.396 21.4158,273.23 8,291.5C 3.42593,300.373 2.25926,309.706 4.5,319.5C 2.83333,315.5 1.16667,311.5 -0.5,307.5C -0.5,274.5 -0.5,241.5 -0.5,208.5C 1.83641,202.354 4.66975,196.354 8,190.5C 26.357,167.588 50.1903,158.421 79.5,163C 123.756,165.857 154.256,187.691 171,228.5C 184.086,266.965 187.586,306.298 181.5,346.5 Z"/></g>
<g><path style="opacity:1" fill="#d55027" d="M 46.5,186.5 C 54.5607,186.179 62.5607,186.679 70.5,188C 79.7855,190.547 86.6188,196.047 91,204.5C 91.9897,216.872 86.4897,225.039 74.5,229C 58.046,235.183 42.7127,233.183 28.5,223C 19.712,212 20.712,202 31.5,193C 36.3062,190.129 41.3062,187.963 46.5,186.5 Z"/></g>
<g><path style="opacity:1" fill="#d55027" d="M 284.5,186.5 C 296.99,184.823 302.157,190.156 300,202.5C 296.364,208.177 291.197,210.01 284.5,208C 278.823,204.364 276.99,199.197 279,192.5C 280.36,189.977 282.193,187.977 284.5,186.5 Z"/></g>
<g><path style="opacity:1" fill="#f2cbbe" d="M 326.5,183.5 C 351.531,197.881 378.531,206.048 407.5,208C 401.319,208.172 395.319,208.672 389.5,209.5C 379.042,208.959 369.042,210.792 359.5,215C 348.251,223.25 346.418,233.417 354,245.5C 358.082,249.076 361.582,253.076 364.5,257.5C 353.459,253.7 346.792,257.7 344.5,269.5C 326.017,252.304 322.184,232.304 333,209.5C 333.494,207.866 333.66,206.199 333.5,204.5C 334.987,196.421 332.653,189.421 326.5,183.5 Z"/></g>
<g><path style="opacity:1" fill="#8e1600" d="M 333.5,204.5 C 333.66,206.199 333.494,207.866 333,209.5C 322.184,232.304 326.017,252.304 344.5,269.5C 357.387,287.547 358.887,306.547 349,326.5C 341.048,338.566 329.881,345.733 315.5,348C 286.617,350.124 258.283,347.124 230.5,339C 220.88,333.912 213.88,326.412 209.5,316.5C 207.818,309.281 207.152,301.948 207.5,294.5C 214.491,283.117 221.991,282.783 230,293.5C 229.28,301.623 231.28,308.956 236,315.5C 241.582,318.023 247.416,319.856 253.5,321C 269.23,323.569 285.063,325.069 301,325.5C 308.688,326.358 315.855,324.858 322.5,321C 333.623,311.106 335.457,299.606 328,286.5C 308.93,268.631 300.93,246.631 304,220.5C 305.677,210.648 309.843,202.148 316.5,195C 325.697,191.931 331.364,195.097 333.5,204.5 Z"/></g>
<g><path style="opacity:1" fill="#d55027" d="M 118.5,209.5 C 132.003,208.835 138.169,215.168 137,228.5C 133.659,232.81 129.492,233.644 124.5,231C 115.205,225.633 113.205,218.466 118.5,209.5 Z"/></g>
<g><path style="opacity:1" fill="#ae2b00" d="M 389.5,209.5 C 414.167,209.5 438.833,209.5 463.5,209.5C 475.165,210.319 482.499,216.319 485.5,227.5C 485.904,232.783 485.238,237.783 483.5,242.5C 481.692,232.593 476.025,229.427 466.5,233C 465,234.5 463.5,236 462,237.5C 455.448,257.763 443.615,274.263 426.5,287C 418.913,292.043 411.413,297.21 404,302.5C 399.8,309.729 401.3,315.563 408.5,320C 410.81,320.497 413.143,320.663 415.5,320.5C 405.838,327.449 396.338,327.115 387,319.5C 384.938,317.099 383.271,314.433 382,311.5C 380.782,294.625 376.449,278.625 369,263.5C 367.637,261.316 366.137,259.316 364.5,257.5C 361.582,253.076 358.082,249.076 354,245.5C 346.418,233.417 348.251,223.25 359.5,215C 369.042,210.792 379.042,208.959 389.5,209.5 Z"/></g>
<g><path style="opacity:1" fill="#e38c71" d="M 509.5,230.5 C 505.809,262.773 492.142,289.939 468.5,312C 451.488,327.998 432.155,340.165 410.5,348.5C 395.32,350.375 381.987,346.375 370.5,336.5C 360.153,353.332 345.487,364.332 326.5,369.5C 292.694,373.776 259.361,371.276 226.5,362C 222.603,360.981 218.936,359.481 215.5,357.5C 208.95,353.459 203.117,348.459 198,342.5C 192.167,335.854 189.5,328.187 190,319.5C 195.458,311.677 201.958,310.677 209.5,316.5C 213.88,326.412 220.88,333.912 230.5,339C 258.283,347.124 286.617,350.124 315.5,348C 329.881,345.733 341.048,338.566 349,326.5C 358.887,306.547 357.387,287.547 344.5,269.5C 346.792,257.7 353.459,253.7 364.5,257.5C 366.137,259.316 367.637,261.316 369,263.5C 376.449,278.625 380.782,294.625 382,311.5C 383.271,314.433 384.938,317.099 387,319.5C 396.338,327.115 405.838,327.449 415.5,320.5C 445.568,306.264 467.402,283.931 481,253.5C 482.562,249.986 483.395,246.319 483.5,242.5C 485.238,237.783 485.904,232.783 485.5,227.5C 486.881,224.926 488.548,222.426 490.5,220C 501.135,215.652 507.469,219.152 509.5,230.5 Z"/></g>
<g><path style="opacity:1" fill="#8e1600" d="M 483.5,242.5 C 483.395,246.319 482.562,249.986 481,253.5C 467.402,283.931 445.568,306.264 415.5,320.5C 413.143,320.663 410.81,320.497 408.5,320C 401.3,315.563 399.8,309.729 404,302.5C 411.413,297.21 418.913,292.043 426.5,287C 443.615,274.263 455.448,257.763 462,237.5C 463.5,236 465,234.5 466.5,233C 476.025,229.427 481.692,232.593 483.5,242.5 Z"/></g>
<g><path style="opacity:1" fill="#d55027" d="M 378.5,232.5 C 389.833,231.998 394.666,237.331 393,248.5C 389.96,254.603 385.126,256.769 378.5,255C 372.092,251.677 369.925,246.511 372,239.5C 373.694,236.642 375.861,234.309 378.5,232.5 Z"/></g>
<g><path style="opacity:0.989" fill="#ecb3a1" d="M 509.5,230.5 C 509.833,230.5 510.167,230.5 510.5,230.5C 510.946,257.537 510.446,284.537 509,311.5C 505.516,330.123 498.016,346.79 486.5,361.5C 492.19,337.695 482.857,326.528 458.5,328C 450.806,331.026 444.972,336.192 441,343.5C 424.234,360.141 404.734,372.641 382.5,381C 368.808,391.447 366.974,403.614 377,417.5C 383.058,423.13 390.224,425.463 398.5,424.5C 372.591,434.768 345.591,440.434 317.5,441.5C 333.746,433.261 337.913,420.928 330,404.5C 326.35,400.261 321.85,397.428 316.5,396C 285.09,396.607 254.423,392.274 224.5,383C 208.349,381.32 199.016,388.487 196.5,404.5C 196.68,413.991 200.68,421.324 208.5,426.5C 183.311,416.551 157.978,407.217 132.5,398.5C 135.713,398.81 138.713,398.477 141.5,397.5C 160.68,393.654 171.013,381.988 172.5,362.5C 176.541,357.75 179.541,352.417 181.5,346.5C 192.348,350.395 203.182,354.395 214,358.5C 214.765,358.43 215.265,358.097 215.5,357.5C 218.936,359.481 222.603,360.981 226.5,362C 259.361,371.276 292.694,373.776 326.5,369.5C 350.758,368.696 374.424,363.862 397.5,355C 402.712,353.191 407.045,351.025 410.5,348.5C 432.155,340.165 451.488,327.998 468.5,312C 492.142,289.939 505.809,262.773 509.5,230.5 Z"/></g>
<g><path style="opacity:1" fill="#8e1600" d="M 172.5,362.5 C 171.013,381.988 160.68,393.654 141.5,397.5C 136.463,397.587 131.463,397.254 126.5,396.5C 99.307,389.715 73.307,379.882 48.5,367C 29.1076,355.445 14.4409,339.611 4.5,319.5C 2.25926,309.706 3.42593,300.373 8,291.5C 21.4158,273.23 38.2492,269.396 58.5,280C 64.4361,285.097 69.4361,290.931 73.5,297.5C 82.5419,305.693 92.8753,311.86 104.5,316C 119.771,321.202 135.104,326.202 150.5,331C 163.903,337.24 171.236,347.74 172.5,362.5 Z"/></g>
<g><path style="opacity:1" fill="#e48d72" d="M 486.5,361.5 C 463.556,391.316 434.222,412.316 398.5,424.5C 390.224,425.463 383.058,423.13 377,417.5C 366.974,403.614 368.808,391.447 382.5,381C 404.734,372.641 424.234,360.141 441,343.5C 444.972,336.192 450.806,331.026 458.5,328C 482.857,326.528 492.19,337.695 486.5,361.5 Z"/></g>
<g><path style="opacity:1" fill="#f2cbbf" d="M 410.5,348.5 C 407.045,351.025 402.712,353.191 397.5,355C 374.424,363.862 350.758,368.696 326.5,369.5C 345.487,364.332 360.153,353.332 370.5,336.5C 381.987,346.375 395.32,350.375 410.5,348.5 Z"/></g>
<g><path style="opacity:0.999" fill="#e48d72" d="M 317.5,441.5 C 280.067,444.247 243.733,439.247 208.5,426.5C 200.68,421.324 196.68,413.991 196.5,404.5C 199.016,388.487 208.349,381.32 224.5,383C 254.423,392.274 285.09,396.607 316.5,396C 321.85,397.428 326.35,400.261 330,404.5C 337.913,420.928 333.746,433.261 317.5,441.5 Z"/></g>
<g><path style="opacity:1" fill="#c97763" d="M 126.5,396.5 C 131.463,397.254 136.463,397.587 141.5,397.5C 138.713,398.477 135.713,398.81 132.5,398.5C 130.214,398.405 128.214,397.738 126.5,396.5 Z"/></g>
</svg>
