<?xml version="1.0" encoding="iso-8859-1"?>
<!-- Generator: Adobe Illustrator 19.0.0, SVG Export Plug-In . SVG Version: 6.00 Build 0)  -->
<svg version="1.1" id="Capa_1" xmlns="http://www.w3.org/2000/svg" xmlns:xlink="http://www.w3.org/1999/xlink" x="0px" y="0px"
	 viewBox="0 0 512 512" style="enable-background:new 0 0 512 512;" xml:space="preserve">
<path style="fill:#D9CCBC;" d="M504.598,230.927c5.034,5.623,7.907,13.199,7.328,21.458c-1.013,14.295-12.6,25.872-26.895,26.854
	c-16.962,1.168-31.081-12.238-31.081-28.952v-0.031c0-2.005-1.633-3.649-3.638-3.649H302.008v-38.988h148.305
	c2.005,0,3.638-1.643,3.638-3.649v-0.031c0-16.714,14.119-30.12,31.081-28.952c14.295,0.982,25.882,12.559,26.895,26.854
	c0.579,8.259-2.295,15.835-7.328,21.458C502.644,225.47,502.644,228.757,504.598,230.927z"/>
<path style="fill:#781900;" d="M342.453,230.421c0,1.53-0.062,3.039-0.176,4.548c-0.765,9.788-3.959,19.091-9.117,27.164
	c-5.964,9.323-14.543,17.013-25.024,21.954l-140.408,66.214c-44.725,12.703-93.305,1.592-126.815-30.244
	C16.107,296.49,0.54,264.138,0.013,228.519c-0.279-19.515,3.876-38.079,11.587-54.823c2.698-5.871,5.809-11.442,9.272-16.703
	l0.01-0.01c32.156-48.808,95.218-70.514,152.687-51.154l136.966,72.137C330.184,188.311,342.453,208.477,342.453,230.421z"/>
<path style="fill:#AB2300;" d="M342.453,230.421c0,1.53-0.062,3.039-0.176,4.548c-4.972,5.168-10.936,9.489-17.696,12.672
	l-140.408,66.214c-44.725,12.693-93.305,1.581-126.815-30.244c-24.807-23.577-40.373-55.919-40.901-91.538
	c-0.176-12.135,1.364-23.897,4.414-35.081l0.01-0.01c32.156-48.808,95.218-70.514,152.687-51.154l136.966,72.137
	C330.184,188.311,342.453,208.477,342.453,230.421z"/>
<path style="fill:#EBE5DD;" d="M504.598,230.927c5.034,5.623,7.907,13.199,7.328,21.458c-1.013,14.295-12.6,25.872-26.895,26.854
	c-16.962,1.168-31.081-12.238-31.081-28.952v-0.031c0-2.005-1.633-3.649-3.638-3.649h-68.591
	c-1.778-6.233-2.718-12.765-2.718-19.494c0-6.729,0.941-13.261,2.718-19.494h68.591c2.005,0,3.638-1.643,3.638-3.649v-0.031
	c0-16.714,14.119-30.12,31.081-28.952c14.295,0.982,25.882,12.559,26.895,26.854c0.579,8.259-2.295,15.835-7.328,21.458
	C502.644,225.47,502.644,228.757,504.598,230.927z"/>
<path style="fill:#D9CCBC;" d="M504.598,288.697c5.034,5.623,7.907,13.199,7.328,21.458c-1.013,14.295-12.6,25.872-26.895,26.854
	c-16.962,1.168-31.081-12.238-31.081-28.952v-0.031c0-2.005-1.633-3.649-3.638-3.649H302.008v-38.988h148.305
	c2.005,0,3.638-1.643,3.638-3.649v-0.031c0-16.714,14.119-30.12,31.081-28.952c14.295,0.982,25.882,12.559,26.895,26.854
	c0.579,8.259-2.295,15.835-7.328,21.458C502.644,283.239,502.644,286.526,504.598,288.697z"/>
<path style="fill:#AB2300;" d="M342.453,288.19c0,1.53-0.062,3.039-0.176,4.548c-0.765,9.788-3.959,19.091-9.117,27.164
	c-5.964,9.323-14.543,17.013-25.024,21.954L167.729,408.07c-44.725,12.703-93.305,1.592-126.815-30.244
	C16.107,354.259,0.54,321.907,0.013,286.288c-0.279-19.515,3.876-38.079,11.587-54.823c2.698-5.871,5.809-11.442,9.272-16.703
	l0.01-0.01c32.156-48.808,95.218-70.514,152.687-51.154l136.966,72.137C330.184,246.08,342.453,266.246,342.453,288.19z"/>
<path style="fill:#CD2A00;" d="M342.453,288.19c0,1.53-0.062,3.039-0.176,4.548c-4.972,5.168-10.936,9.489-17.696,12.672
	l-140.408,66.214c-44.725,12.693-93.305,1.581-126.815-30.244c-24.807-23.577-40.373-55.919-40.901-91.538
	c-0.176-12.135,1.364-23.897,4.414-35.081l0.01-0.01c32.156-48.808,95.218-70.514,152.687-51.154l136.966,72.137
	C330.184,246.08,342.453,266.246,342.453,288.19z"/>
<path style="fill:#EBE5DD;" d="M504.598,288.697c5.034,5.623,7.907,13.199,7.328,21.458c-1.013,14.295-12.6,25.872-26.895,26.854
	c-16.962,1.168-31.081-12.238-31.081-28.952v-0.031c0-2.005-1.633-3.649-3.638-3.649h-68.591
	c-1.778-6.233-2.718-12.765-2.718-19.494s0.941-13.261,2.718-19.494h68.591c2.005,0,3.638-1.643,3.638-3.649v-0.031
	c0-16.714,14.119-30.12,31.081-28.952c14.295,0.982,25.882,12.559,26.895,26.854c0.579,8.259-2.295,15.835-7.328,21.458
	C502.644,283.239,502.644,286.526,504.598,288.697z"/>
<g>
</g>
<g>
</g>
<g>
</g>
<g>
</g>
<g>
</g>
<g>
</g>
<g>
</g>
<g>
</g>
<g>
</g>
<g>
</g>
<g>
</g>
<g>
</g>
<g>
</g>
<g>
</g>
<g>
</g>
</svg>
