<?xml version="1.0" encoding="iso-8859-1"?>
<!-- Generator: Adobe Illustrator 19.0.0, SVG Export Plug-In . SVG Version: 6.00 Build 0)  -->
<svg version="1.1" id="Capa_1" xmlns="http://www.w3.org/2000/svg" xmlns:xlink="http://www.w3.org/1999/xlink" x="0px" y="0px"
	 viewBox="0 0 512 512" style="enable-background:new 0 0 512 512;" xml:space="preserve">
<path style="fill:#5EAC24;" d="M512,255.996c0,116.148-73.177,211.586-166.71,222.321c-5.789,0.666-11.662,1.01-17.597,1.01
	c-101.79,0-184.317-99.988-184.317-223.331c0-42.929,9.996-83.016,27.322-117.054c32.455-63.775,90.628-106.277,156.995-106.277
	C429.483,32.665,512,132.654,512,255.996z"/>
<g>
	<path style="fill:#91DC5A;" d="M372.393,165.941c0,29.664-14.577,29.664-14.577,59.339s14.577,29.675,14.577,59.35
		c0,29.664-14.577,29.664-14.577,59.339s14.577,29.675,14.577,59.35c0,29.675-18.221,30.82-14.525,60.255
		c0.604,4.769,1.468,8.777,2.489,12.255c-10.6,2.301-21.512,3.498-32.663,3.498c-15.233,0-30.039-2.239-44.2-6.466
		c-0.323-2.967-0.5-6.32-0.5-10.183c0-29.675,14.577-29.675,14.577-59.35c0-29.675-14.577-29.675-14.577-59.339
		c0-29.675,14.577-29.675,14.577-59.35c0-29.675-14.577-29.675-14.577-59.339c0-29.675,14.577-29.675,14.577-59.35
		s-14.577-29.675-14.577-59.35s14.577-29.675,14.577-59.35c0-4.352-0.396-8.09-1.072-11.401c10.141-2.093,20.564-3.186,31.195-3.186
		c15.306,0,30.175,2.259,44.398,6.528c0.198,2.426,0.302,5.092,0.302,8.059c0,29.664-14.577,29.664-14.577,59.339
		S372.393,136.267,372.393,165.941z"/>
	<path style="fill:#91DC5A;" d="M217.168,284.63c0,29.664-18.336,29.664-18.336,59.339s18.336,29.675,18.336,59.35
		c0,11.266-3.301,18.419-7.143,24.573c-40.722-40.962-66.648-102.758-66.648-171.895c0-63.233,21.709-120.344,56.58-160.983
		c-0.708,3.321-1.125,7.112-1.125,11.578c0,29.675,18.336,29.675,18.336,59.35c0,29.664-18.336,29.664-18.336,59.339
		S217.168,254.955,217.168,284.63z"/>
	<path style="fill:#91DC5A;" d="M447.351,425.861c3.04-5.602,5.362-12.307,5.362-22.532c0-29.675-19.544-29.675-19.544-59.339
		c0-29.675,19.544-29.675,19.544-59.35s-19.544-29.675-19.544-59.339c0-29.675,19.544-29.675,19.544-59.35
		s-19.544-29.675-19.544-59.35c0-12.89,3.686-20.179,7.861-26.728C484.22,120.742,512,184.433,512,255.996
		C512,323.988,486.917,384.899,447.351,425.861z"/>
</g>
<path style="fill:#6DC82A;" d="M217.168,284.63c0,29.664-18.336,29.664-18.336,59.339s18.336,29.675,18.336,59.35
	c0,11.266-3.301,18.419-7.143,24.573c-71.82-71.835-86.574-197.616-39.327-288.938l32.996,64.129
	c-2.77,5.539-4.862,12.172-4.862,22.199C198.832,254.955,217.168,254.955,217.168,284.63z"/>
<path style="fill:#4E901E;" d="M297.571,403.329c0-22.188-8.153-27.79-12.255-41.597l-0.01-0.021l-81.611-158.63
	c-2.77,5.539-4.862,12.172-4.862,22.199c0,29.675,18.336,29.675,18.336,59.35c0,29.664-18.336,29.664-18.336,59.339
	s18.336,29.675,18.336,59.35c0,11.266-3.301,18.419-7.143,24.573c21.053,21.178,46.053,36.797,73.468,44.97
	c-0.323-2.967-0.5-6.32-0.5-10.183C282.994,433.004,297.571,433.004,297.571,403.329z"/>
<g>
	<path style="fill:#6DC82A;" d="M198.832,343.969c0,29.675,18.336,29.675,18.336,59.35c0,11.266-3.301,18.419-7.143,24.573
		c-71.82-71.835-86.574-197.616-39.327-288.938l32.996,64.129c-2.77,5.539-4.862,12.172-4.862,22.199
		c0,29.675,18.336,29.675,18.336,59.35C217.168,314.294,198.832,314.294,198.832,343.969z"/>
	<path style="fill:#6DC82A;" d="M345.29,478.318c-18.628,2.253-41.01,0.902-61.796-5.456c-4.194-38.561,14.077-37.068,14.077-69.533
		c0-22.188-8.153-27.79-12.255-41.597L345.29,478.318z"/>
</g>
<g>
	<path style="fill:#A4E276;" d="M149.926,177.322c-23.854,51.238-85.63,190.2-121.542,271.248
		c-11.62-7.122-20.2-13.859-25.239-18.159c-3.134-2.666-4.04-7.132-2.197-10.808l15.962-31.893l50.395-100.759l52.051-104.039
		C125.405,170.825,140.94,168.961,149.926,177.322z"/>
	<path style="fill:#A4E276;" d="M269.469,430.259C134.842,529.313,27.57,451.202,3.141,430.41c-3.13-2.669-4.038-7.13-2.193-10.804
		l15.961-31.899l50.4-100.755l52.048-104.036c7.152-14.305,27.566-14.305,34.719,0l52.048,104.036l49.758,99.454l16.316,32.617
		C274.149,422.933,272.984,427.667,269.469,430.259z"/>
</g>
<path style="fill:#6DC82A;" d="M149.926,177.322c-23.854,51.238-85.63,190.2-121.542,271.248
	c-11.62-7.122-20.2-13.859-25.239-18.159c-3.134-2.666-4.04-7.132-2.197-10.808l15.962-31.893l50.395-100.759l52.051-104.039
	C125.405,170.825,140.94,168.961,149.926,177.322z"/>
<path style="fill:#FF3F62;" d="M255.882,386.407c-110.802,72.917-201.229,27.846-238.972,1.301l50.4-100.755l52.048-104.036
	c7.152-14.305,27.566-14.305,34.719,0l52.048,104.036L255.882,386.407z"/>
<g>
	<circle style="fill:#830018;" cx="149.061" cy="268.666" r="12.669"/>
	<circle style="fill:#830018;" cx="174.404" cy="351.276" r="12.669"/>
	<circle style="fill:#830018;" cx="117.491" cy="381.472" r="12.669"/>
	<circle style="fill:#830018;" cx="104.819" cy="312.907" r="12.669"/>
</g>
<path style="fill:#FF0C38;" d="M119.356,182.913L67.305,286.952L16.91,387.711c7.934,5.581,18.211,11.984,30.508,17.93
	c35.745-80.497,82.485-185.306,102.508-228.319C140.94,168.961,125.405,170.825,119.356,182.913z"/>
<g>
</g>
<g>
</g>
<g>
</g>
<g>
</g>
<g>
</g>
<g>
</g>
<g>
</g>
<g>
</g>
<g>
</g>
<g>
</g>
<g>
</g>
<g>
</g>
<g>
</g>
<g>
</g>
<g>
</g>
</svg>
