<?xml version="1.0" encoding="UTF-8"?>
<!DOCTYPE svg PUBLIC "-//W3C//DTD SVG 1.1//EN" "http://www.w3.org/Graphics/SVG/1.1/DTD/svg11.dtd">
<svg xmlns="http://www.w3.org/2000/svg" version="1.1" width="512px" height="512px" style="shape-rendering:geometricPrecision; text-rendering:geometricPrecision; image-rendering:optimizeQuality; fill-rule:evenodd; clip-rule:evenodd" xmlns:xlink="http://www.w3.org/1999/xlink">
<g><path style="opacity:1" fill="#fe9811" d="M 504.5,163.5 C 354.5,163.333 204.5,163.5 54.5,164C 42.236,167.93 34.4026,176.097 31,188.5C 30.5001,202.496 30.3334,216.496 30.5,230.5C 18.7665,250.867 13.4332,272.867 14.5,296.5C 10.3642,296.655 6.69753,297.989 3.5,300.5C 3.33334,257.499 3.50001,214.499 4,171.5C 8.22194,153.611 19.0553,141.778 36.5,136C 181.124,134.34 325.791,134.006 470.5,135C 486.878,138.549 498.211,148.049 504.5,163.5 Z"/></g>
<g><path style="opacity:0.999" fill="#fea733" d="M 504.5,163.5 C 505.624,166.042 506.458,168.708 507,171.5C 507.5,214.499 507.667,257.499 507.5,300.5C 503.673,298.351 499.673,297.017 495.5,296.5C 497.675,272.202 492.175,249.868 479,229.5C 475.291,224.29 470.791,219.957 465.5,216.5C 455.221,208.233 444.221,207.399 432.5,214C 418.202,224.395 408.702,238.228 404,255.5C 400.088,268.89 398.588,282.557 399.5,296.5C 388.833,296.5 378.167,296.5 367.5,296.5C 369.48,271.752 363.647,249.085 350,228.5C 346.624,223.623 342.457,219.623 337.5,216.5C 326.325,207.789 314.658,207.289 302.5,215C 289.828,225.486 280.995,238.653 276,254.5C 272.062,268.225 270.562,282.225 271.5,296.5C 260.833,296.5 250.167,296.5 239.5,296.5C 241.076,271.866 235.243,249.2 222,228.5C 218.624,223.623 214.457,219.623 209.5,216.5C 198.312,207.787 186.645,207.287 174.5,215C 164.492,222.513 156.992,232.013 152,243.5C 144.617,260.466 141.783,278.133 143.5,296.5C 132.833,296.5 122.167,296.5 111.5,296.5C 112.668,271.504 106.502,248.504 93,227.5C 89.9565,222.955 86.1231,219.289 81.5,216.5C 69.4218,207.362 57.0885,207.196 44.5,216C 39.6025,220.729 34.9359,225.562 30.5,230.5C 30.3334,216.496 30.5001,202.496 31,188.5C 34.4026,176.097 42.236,167.93 54.5,164C 204.5,163.5 354.5,163.333 504.5,163.5 Z"/></g>
<g><path style="opacity:1" fill="#d9cbbb" d="M 81.5,216.5 C 71.2748,223.911 63.7748,233.577 59,245.5C 52.3078,261.843 49.4745,278.843 50.5,296.5C 38.5,296.5 26.5,296.5 14.5,296.5C 13.4332,272.867 18.7665,250.867 30.5,230.5C 34.9359,225.562 39.6025,220.729 44.5,216C 57.0885,207.196 69.4218,207.362 81.5,216.5 Z"/></g>
<g><path style="opacity:1" fill="#d9ccbb" d="M 209.5,216.5 C 204.209,219.957 199.709,224.29 196,229.5C 182.825,249.868 177.325,272.202 179.5,296.5C 167.5,296.5 155.5,296.5 143.5,296.5C 141.783,278.133 144.617,260.466 152,243.5C 156.992,232.013 164.492,222.513 174.5,215C 186.645,207.287 198.312,207.787 209.5,216.5 Z"/></g>
<g><path style="opacity:1" fill="#d9ccbb" d="M 337.5,216.5 C 327.369,224.386 319.869,234.386 315,246.5C 308.448,262.529 305.948,279.196 307.5,296.5C 295.5,296.5 283.5,296.5 271.5,296.5C 270.562,282.225 272.062,268.225 276,254.5C 280.995,238.653 289.828,225.486 302.5,215C 314.658,207.289 326.325,207.789 337.5,216.5 Z"/></g>
<g><path style="opacity:1" fill="#d9ccbb" d="M 465.5,216.5 C 454.461,225.067 446.627,236.067 442,249.5C 436.396,264.688 434.229,280.354 435.5,296.5C 423.5,296.5 411.5,296.5 399.5,296.5C 398.588,282.557 400.088,268.89 404,255.5C 408.702,238.228 418.202,224.395 432.5,214C 444.221,207.399 455.221,208.233 465.5,216.5 Z"/></g>
<g><path style="opacity:1" fill="#ebe4dc" d="M 81.5,216.5 C 86.1231,219.289 89.9565,222.955 93,227.5C 106.502,248.504 112.668,271.504 111.5,296.5C 91.1667,296.5 70.8333,296.5 50.5,296.5C 49.4745,278.843 52.3078,261.843 59,245.5C 63.7748,233.577 71.2748,223.911 81.5,216.5 Z"/></g>
<g><path style="opacity:1" fill="#ebe4dc" d="M 209.5,216.5 C 214.457,219.623 218.624,223.623 222,228.5C 235.243,249.2 241.076,271.866 239.5,296.5C 219.5,296.5 199.5,296.5 179.5,296.5C 177.325,272.202 182.825,249.868 196,229.5C 199.709,224.29 204.209,219.957 209.5,216.5 Z"/></g>
<g><path style="opacity:1" fill="#ebe4dc" d="M 337.5,216.5 C 342.457,219.623 346.624,223.623 350,228.5C 363.647,249.085 369.48,271.752 367.5,296.5C 347.5,296.5 327.5,296.5 307.5,296.5C 305.948,279.196 308.448,262.529 315,246.5C 319.869,234.386 327.369,224.386 337.5,216.5 Z"/></g>
<g><path style="opacity:1" fill="#ebe4dc" d="M 465.5,216.5 C 470.791,219.957 475.291,224.29 479,229.5C 492.175,249.868 497.675,272.202 495.5,296.5C 475.5,296.5 455.5,296.5 435.5,296.5C 434.229,280.354 436.396,264.688 442,249.5C 446.627,236.067 454.461,225.067 465.5,216.5 Z"/></g>
<g><path style="opacity:0.995" fill="#cc7503" d="M 14.5,296.5 C 26.5,296.5 38.5,296.5 50.5,296.5C 70.8333,296.5 91.1667,296.5 111.5,296.5C 122.167,296.5 132.833,296.5 143.5,296.5C 155.5,296.5 167.5,296.5 179.5,296.5C 199.5,296.5 219.5,296.5 239.5,296.5C 250.167,296.5 260.833,296.5 271.5,296.5C 283.5,296.5 295.5,296.5 307.5,296.5C 327.5,296.5 347.5,296.5 367.5,296.5C 378.167,296.5 388.833,296.5 399.5,296.5C 411.5,296.5 423.5,296.5 435.5,296.5C 455.5,296.5 475.5,296.5 495.5,296.5C 499.673,297.017 503.673,298.351 507.5,300.5C 509.074,301.984 510.407,303.651 511.5,305.5C 511.5,309.167 511.5,312.833 511.5,316.5C 507.763,323.655 501.763,326.655 493.5,325.5C 473.833,325.5 454.167,325.5 434.5,325.5C 423.833,325.5 413.167,325.5 402.5,325.5C 390.167,325.5 377.833,325.5 365.5,325.5C 345.833,325.5 326.167,325.5 306.5,325.5C 295.833,325.5 285.167,325.5 274.5,325.5C 261.833,325.5 249.167,325.5 236.5,325.5C 216.833,325.5 197.167,325.5 177.5,325.5C 166.833,325.5 156.167,325.5 145.5,325.5C 133.167,325.5 120.833,325.5 108.5,325.5C 88.8333,325.5 69.1667,325.5 49.5,325.5C 38.8333,325.5 28.1667,325.5 17.5,325.5C 9.23666,326.655 3.23666,323.655 -0.5,316.5C -0.5,312.833 -0.5,309.167 -0.5,305.5C 0.593015,303.651 1.92635,301.984 3.5,300.5C 6.69753,297.989 10.3642,296.655 14.5,296.5 Z"/></g>
<g><path style="opacity:1" fill="#ee8700" d="M 17.5,325.5 C 28.1667,325.5 38.8333,325.5 49.5,325.5C 53.8182,341.105 57.9849,356.772 62,372.5C 63.3756,373.705 64.5423,375.038 65.5,376.5C 54.8281,376.667 44.1615,376.5 33.5,376C 32.5838,375.626 31.7504,375.126 31,374.5C 26.3402,358.192 21.8402,341.859 17.5,325.5 Z"/></g>
<g><path style="opacity:0.984" fill="#fe9710" d="M 49.5,325.5 C 69.1667,325.5 88.8333,325.5 108.5,325.5C 104.469,341.958 99.9688,358.291 95,374.5C 94.2496,375.126 93.4162,375.626 92.5,376C 83.5062,376.5 74.5062,376.666 65.5,376.5C 64.5423,375.038 63.3756,373.705 62,372.5C 57.9849,356.772 53.8182,341.105 49.5,325.5 Z"/></g>
<g><path style="opacity:0.999" fill="#ee8700" d="M 145.5,325.5 C 156.167,325.5 166.833,325.5 177.5,325.5C 181.958,340.714 186.125,356.048 190,371.5C 190.997,373.323 192.164,374.99 193.5,376.5C 182.828,376.667 172.161,376.5 161.5,376C 160.667,375.167 159.833,374.333 159,373.5C 154.495,357.477 149.995,341.477 145.5,325.5 Z"/></g>
<g><path style="opacity:0.984" fill="#fe9710" d="M 177.5,325.5 C 197.167,325.5 216.833,325.5 236.5,325.5C 232.782,342.04 228.282,358.373 223,374.5C 222.5,375 222,375.5 221.5,376C 212.173,376.5 202.839,376.666 193.5,376.5C 192.164,374.99 190.997,373.323 190,371.5C 186.125,356.048 181.958,340.714 177.5,325.5 Z"/></g>
<g><path style="opacity:1" fill="#ee8700" d="M 274.5,325.5 C 285.167,325.5 295.833,325.5 306.5,325.5C 309.635,340.673 313.468,355.673 318,370.5C 318.564,372.887 319.73,374.887 321.5,376.5C 310.828,376.667 300.161,376.5 289.5,376C 288.667,375.167 287.833,374.333 287,373.5C 282.515,357.561 278.349,341.561 274.5,325.5 Z"/></g>
<g><path style="opacity:0.984" fill="#fe9710" d="M 306.5,325.5 C 326.167,325.5 345.833,325.5 365.5,325.5C 360.911,341.438 356.411,357.438 352,373.5C 351.167,374.333 350.333,375.167 349.5,376C 340.173,376.5 330.839,376.666 321.5,376.5C 319.73,374.887 318.564,372.887 318,370.5C 313.468,355.673 309.635,340.673 306.5,325.5 Z"/></g>
<g><path style="opacity:1" fill="#ee8700" d="M 402.5,325.5 C 413.167,325.5 423.833,325.5 434.5,325.5C 438.223,341.615 442.39,357.615 447,373.5C 448.045,374.373 448.878,375.373 449.5,376.5C 438.828,376.667 428.161,376.5 417.5,376C 417,375.5 416.5,375 416,374.5C 410.99,358.303 406.49,341.97 402.5,325.5 Z"/></g>
<g><path style="opacity:0.985" fill="#fe9710" d="M 434.5,325.5 C 454.167,325.5 473.833,325.5 493.5,325.5C 489.008,341.465 484.508,357.465 480,373.5C 479.167,374.333 478.333,375.167 477.5,376C 468.173,376.5 458.839,376.666 449.5,376.5C 448.878,375.373 448.045,374.373 447,373.5C 442.39,357.615 438.223,341.615 434.5,325.5 Z"/></g>
</svg>
