<?xml version="1.0" encoding="UTF-8"?>
<!DOCTYPE svg PUBLIC "-//W3C//DTD SVG 1.1//EN" "http://www.w3.org/Graphics/SVG/1.1/DTD/svg11.dtd">
<svg xmlns="http://www.w3.org/2000/svg" version="1.1" width="512px" height="512px" style="shape-rendering:geometricPrecision; text-rendering:geometricPrecision; image-rendering:optimizeQuality; fill-rule:evenodd; clip-rule:evenodd" xmlns:xlink="http://www.w3.org/1999/xlink">
<g><path style="opacity:0.997" fill="#e1a874" d="M 218.5,-0.5 C 234.5,-0.5 250.5,-0.5 266.5,-0.5C 268.475,0.646381 269.975,2.31305 271,4.5C 271.5,17.1623 271.667,29.8289 271.5,42.5C 252.833,42.5 234.167,42.5 215.5,42.5C 215.333,29.1625 215.5,15.8292 216,2.5C 217.045,1.62656 217.878,0.626561 218.5,-0.5 Z"/></g>
<g><path style="opacity:1" fill="#b57f5f" d="M 266.5,-0.5 C 275.167,-0.5 283.833,-0.5 292.5,-0.5C 293.122,0.626561 293.955,1.62656 295,2.5C 295.5,15.8292 295.667,29.1625 295.5,42.5C 291.833,42.5 288.167,42.5 284.5,42.5C 280.167,42.5 275.833,42.5 271.5,42.5C 271.667,29.8289 271.5,17.1623 271,4.5C 269.975,2.31305 268.475,0.646381 266.5,-0.5 Z"/></g>
<g><path style="opacity:0.991" fill="#d7ebfd" d="M 215.5,42.5 C 234.167,42.5 252.833,42.5 271.5,42.5C 275.833,42.5 280.167,42.5 284.5,42.5C 284.666,52.1724 284.5,61.8391 284,71.5C 281.227,73.0466 278.227,74.0466 275,74.5C 274.5,93.1637 274.333,111.83 274.5,130.5C 252.833,130.5 231.167,130.5 209.5,130.5C 209.667,112.164 209.5,93.8303 209,75.5C 205.642,74.4181 202.642,72.7514 200,70.5C 199.333,62.1667 199.333,53.8333 200,45.5C 200.5,44.3333 201.333,43.5 202.5,43C 206.821,42.501 211.154,42.3343 215.5,42.5 Z"/></g>
<g><path style="opacity:1" fill="#b3dafd" d="M 284.5,42.5 C 288.167,42.5 291.833,42.5 295.5,42.5C 299.846,42.3343 304.179,42.501 308.5,43C 309.667,43.5 310.5,44.3333 311,45.5C 311.667,53.8333 311.667,62.1667 311,70.5C 308.358,72.7514 305.358,74.4181 302,75.5C 301.5,93.8303 301.333,112.164 301.5,130.5C 292.5,130.5 283.5,130.5 274.5,130.5C 274.333,111.83 274.5,93.1637 275,74.5C 278.227,74.0466 281.227,73.0466 284,71.5C 284.5,61.8391 284.666,52.1724 284.5,42.5 Z"/></g>
<g><path style="opacity:0.998" fill="#b57f5f" d="M 209.5,130.5 C 231.167,130.5 252.833,130.5 274.5,130.5C 274.681,142.213 278.515,152.547 286,161.5C 297.883,171.051 310.05,180.218 322.5,189C 344.81,210.431 353.477,236.597 348.5,267.5C 338.78,267.808 329.113,267.474 319.5,266.5C 302.137,224.821 271.804,210.654 228.5,224C 210.98,233.021 198.98,246.855 192.5,265.5C 191.975,266.192 191.308,266.692 190.5,267C 172.17,267.5 153.836,267.667 135.5,267.5C 132.59,245.972 136.09,225.639 146,206.5C 149.453,201.379 153.286,196.546 157.5,192C 168.885,182.948 180.551,174.281 192.5,166C 203.672,156.823 209.338,144.99 209.5,130.5 Z"/></g>
<g><path style="opacity:1" fill="#9f6e50" d="M 274.5,130.5 C 283.5,130.5 292.5,130.5 301.5,130.5C 301.662,144.99 307.328,156.823 318.5,166C 330.449,174.281 342.115,182.948 353.5,192C 365.03,203.893 372.197,218.059 375,234.5C 375.5,245.495 375.667,256.495 375.5,267.5C 366.5,267.5 357.5,267.5 348.5,267.5C 353.477,236.597 344.81,210.431 322.5,189C 310.05,180.218 297.883,171.051 286,161.5C 278.515,152.547 274.681,142.213 274.5,130.5 Z"/></g>
<g><path style="opacity:0.999" fill="#e1a875" d="M 348.5,267.5 C 348.5,325.167 348.5,382.833 348.5,440.5C 277.5,440.5 206.5,440.5 135.5,440.5C 135.5,382.833 135.5,325.167 135.5,267.5C 153.836,267.667 172.17,267.5 190.5,267C 191.308,266.692 191.975,266.192 192.5,265.5C 198.98,246.855 210.98,233.021 228.5,224C 271.804,210.654 302.137,224.821 319.5,266.5C 329.113,267.474 338.78,267.808 348.5,267.5 Z"/></g>
<g><path style="opacity:1" fill="#db4755" d="M 245.5,314.5 C 265.603,302.349 270.437,285.683 260,264.5C 255.851,259.503 251.017,255.503 245.5,252.5C 264.999,248.166 278.832,255.166 287,273.5C 290.436,301.731 277.936,315.897 249.5,316C 248.099,315.59 246.766,315.09 245.5,314.5 Z"/></g>
<g><path style="opacity:1" fill="#e4646d" d="M 245.5,252.5 C 251.017,255.503 255.851,259.503 260,264.5C 270.437,285.683 265.603,302.349 245.5,314.5C 226.336,306.168 219.502,291.835 225,271.5C 228.999,262.088 235.832,255.755 245.5,252.5 Z"/></g>
<g><path style="opacity:1" fill="#d7ebfc" d="M 295.5,344.5 C 297.144,345.316 298.31,346.65 299,348.5C 299.667,357.833 299.667,367.167 299,376.5C 298.167,377.333 297.333,378.167 296.5,379C 304.159,379.5 311.826,379.666 319.5,379.5C 277.002,380.665 234.335,380.831 191.5,380C 190.069,379.535 188.903,378.701 188,377.5C 186.387,367.934 186.053,358.267 187,348.5C 187.5,346.667 188.667,345.5 190.5,345C 225.498,344.5 260.498,344.333 295.5,344.5 Z"/></g>
<g><path style="opacity:1" fill="#b3dafd" d="M 295.5,344.5 C 303.84,344.334 312.173,344.5 320.5,345C 321.416,345.374 322.25,345.874 323,346.5C 324.615,356.4 324.949,366.4 324,376.5C 322.871,378.141 321.371,379.141 319.5,379.5C 311.826,379.666 304.159,379.5 296.5,379C 297.333,378.167 298.167,377.333 299,376.5C 299.667,367.167 299.667,357.833 299,348.5C 298.31,346.65 297.144,345.316 295.5,344.5 Z"/></g>
<g><path style="opacity:1" fill="#d8e9f9" d="M 224.5,401.5 C 245.169,401.333 265.836,401.5 286.5,402C 291.224,404.435 292.724,408.269 291,413.5C 289.786,415.049 288.286,416.215 286.5,417C 265.5,417.667 244.5,417.667 223.5,417C 217.939,411.353 218.272,406.186 224.5,401.5 Z"/></g>
<g><path style="opacity:0.999" fill="#b57f5f" d="M 348.5,267.5 C 357.5,267.5 366.5,267.5 375.5,267.5C 375.5,325.5 375.5,383.5 375.5,441.5C 366.5,441.5 357.5,441.5 348.5,441.5C 348.942,458.556 348.442,475.556 347,492.5C 343.151,502.187 336.317,508.521 326.5,511.5C 269.833,511.5 213.167,511.5 156.5,511.5C 145.876,508.374 139.043,501.374 136,490.5C 135.5,473.837 135.333,457.17 135.5,440.5C 206.5,440.5 277.5,440.5 348.5,440.5C 348.5,382.833 348.5,325.167 348.5,267.5 Z"/></g>
<g><path style="opacity:1" fill="#9f6e50" d="M 375.5,441.5 C 375.667,457.837 375.5,474.17 375,490.5C 371.957,501.374 365.124,508.374 354.5,511.5C 345.167,511.5 335.833,511.5 326.5,511.5C 336.317,508.521 343.151,502.187 347,492.5C 348.442,475.556 348.942,458.556 348.5,441.5C 357.5,441.5 366.5,441.5 375.5,441.5 Z"/></g>
</svg>
