<?xml version="1.0" encoding="iso-8859-1"?>
<!-- Generator: Adobe Illustrator 19.0.0, SVG Export Plug-In . SVG Version: 6.00 Build 0)  -->
<svg version="1.1" id="Capa_1" xmlns="http://www.w3.org/2000/svg" xmlns:xlink="http://www.w3.org/1999/xlink" x="0px" y="0px"
	 viewBox="0 0 512 512" style="enable-background:new 0 0 512 512;" xml:space="preserve">
<rect x="180.136" y="222.96" style="fill:#78B9EB;" width="151.73" height="164.9"/>
<g>
	<rect x="205.599" y="222.96" style="fill:#96C8EF;" width="126.266" height="164.9"/>
	<rect x="220.587" y="55.737" style="fill:#96C8EF;" width="70.838" height="65.512"/>
</g>
<g>
	<path style="fill:#D1E7F8;" d="M306.096,251.27H205.904c-24.492,0-44.348-19.855-44.348-44.348v-19.13
		c0-52.16,42.284-94.444,94.444-94.444l0,0c52.16,0,94.444,42.284,94.444,94.444v19.13
		C350.445,231.415,330.59,251.27,306.096,251.27z"/>
	<path style="fill:#D1E7F8;" d="M204.285,511.998h103.43c23.599,0,42.729-19.13,42.729-42.729v-71.087
		c0-28.352-22.983-51.336-51.336-51.336h-86.216c-28.352,0-51.336,22.983-51.336,51.336v71.087
		C161.557,492.868,180.687,511.998,204.285,511.998z"/>
</g>
<path style="fill:#78B9EB;" d="M313.916,38.252v24.143c0,4.872-3.953,8.825-8.825,8.825h-98.18c-4.872,0-8.825-3.953-8.825-8.825
	V38.252C198.085,17.124,215.209,0,236.338,0h39.326C296.792,0,313.916,17.124,313.916,38.252z"/>
<g>
	<path style="fill:#3D9AE2;" d="M236.905,46.458V71.22h-15.483V46.458c0-4.284,3.468-7.741,7.741-7.741
		C233.437,38.717,236.905,42.175,236.905,46.458z"/>
	<path style="fill:#3D9AE2;" d="M263.742,46.458V71.22h-15.483V46.458c0-4.284,3.468-7.741,7.741-7.741
		C260.274,38.717,263.742,42.175,263.742,46.458z"/>
	<path style="fill:#3D9AE2;" d="M290.578,46.458V71.22h-15.483V46.458c0-4.284,3.468-7.741,7.741-7.741
		C287.11,38.717,290.578,42.175,290.578,46.458z"/>
	<path style="fill:#3D9AE2;" d="M297.966,277.146h-83.93c-4.275,0-7.741,3.465-7.741,7.741s3.466,7.741,7.741,7.741h83.93
		c4.275,0,7.741-3.465,7.741-7.741S302.241,277.146,297.966,277.146z"/>
	<path style="fill:#3D9AE2;" d="M265.128,313.67c0-4.276-3.466-7.741-7.741-7.741h-43.351c-4.275,0-7.741,3.465-7.741,7.741
		s3.466,7.741,7.741,7.741h43.351C261.662,321.411,265.128,317.946,265.128,313.67z"/>
	<path style="fill:#3D9AE2;" d="M297.966,305.928h-9.614c-4.275,0-7.741,3.465-7.741,7.741s3.466,7.741,7.741,7.741h9.614
		c4.275,0,7.741-3.465,7.741-7.741S302.241,305.928,297.966,305.928z"/>
</g>
<g>
	<circle style="fill:#B3D8F4;" cx="210.936" cy="454.498" r="9.644"/>
	<circle style="fill:#B3D8F4;" cx="241.891" cy="429.426" r="9.644"/>
	<circle style="fill:#B3D8F4;" cx="268.046" cy="473.779" r="9.644"/>
	<circle style="fill:#B3D8F4;" cx="270.792" cy="181.952" r="9.644"/>
	<circle style="fill:#B3D8F4;" cx="304.265" cy="153.742" r="9.644"/>
	<circle style="fill:#B3D8F4;" cx="323.556" cy="195.711" r="9.644"/>
</g>
<g>
	<path style="fill:#C2DFF6;" d="M235.491,251.273h-29.582c-24.494,0-44.353-19.859-44.353-44.353v-19.126
		c0-52.166,42.288-94.444,94.444-94.444c5.037,0,9.971,0.392,14.791,1.156c-45.127,7.101-79.643,46.159-79.643,93.288v19.126
		C191.149,231.414,210.998,251.273,235.491,251.273z"/>
	<path style="fill:#C2DFF6;" d="M233.871,512h-29.582c-23.606,0-42.732-19.137-42.732-42.732v-71.086
		c0-28.354,22.987-51.34,51.34-51.34h29.582c-28.354,0-51.33,22.987-51.33,51.34v71.086C191.149,492.863,210.275,512,233.871,512z"
		/>
</g>
<path style="fill:#5AAAE7;" d="M216.664,38.252v24.143c0,4.872,3.953,8.825,8.825,8.825H206.91c-4.872,0-8.825-3.953-8.825-8.825
	V38.252C198.085,17.124,215.209,0,236.338,0h18.579C233.788,0,216.664,17.124,216.664,38.252z"/>
<g>
</g>
<g>
</g>
<g>
</g>
<g>
</g>
<g>
</g>
<g>
</g>
<g>
</g>
<g>
</g>
<g>
</g>
<g>
</g>
<g>
</g>
<g>
</g>
<g>
</g>
<g>
</g>
<g>
</g>
</svg>
