<?xml version="1.0" encoding="UTF-8"?>
<!DOCTYPE svg PUBLIC "-//W3C//DTD SVG 1.1//EN" "http://www.w3.org/Graphics/SVG/1.1/DTD/svg11.dtd">
<svg xmlns="http://www.w3.org/2000/svg" version="1.1" width="512px" height="512px" style="shape-rendering:geometricPrecision; text-rendering:geometricPrecision; image-rendering:optimizeQuality; fill-rule:evenodd; clip-rule:evenodd" xmlns:xlink="http://www.w3.org/1999/xlink">
<g><path style="opacity:1" fill="#378e43" d="M 305.5,98.5 C 283.788,98.0562 262.122,98.5562 240.5,100C 227.025,106.107 220.525,116.607 221,131.5C 218.833,136.333 215.333,139.833 210.5,142C 195.779,142.067 181.112,142.734 166.5,144C 154.392,148.441 146.892,156.941 144,169.5C 143.333,271.5 143.333,373.5 144,475.5C 144.269,478.352 145.103,481.018 146.5,483.5C 146.376,484.107 146.043,484.44 145.5,484.5C 136.19,480.014 130.357,472.681 128,462.5C 127.333,358.833 127.333,255.167 128,151.5C 131.61,138.223 140.11,130.056 153.5,127C 166.5,126.667 179.5,126.333 192.5,126C 199.989,123.511 204.155,118.345 205,110.5C 205.5,101.506 205.666,92.5062 205.5,83.5C 201.395,83.7662 197.395,83.2662 193.5,82C 191.513,80.6811 190.346,78.8477 190,76.5C 189.044,59.7665 189.377,43.0999 191,26.5C 191.903,25.2986 193.069,24.4652 194.5,24C 235.167,23.3333 275.833,23.3333 316.5,24C 317.931,24.4652 319.097,25.2986 320,26.5C 321.623,43.0999 321.956,59.7665 321,76.5C 320.654,78.8477 319.487,80.6811 317.5,82C 313.605,83.2662 309.605,83.7662 305.5,83.5C 305.5,88.5 305.5,93.5 305.5,98.5 Z"/></g>
<g><path style="opacity:0.997" fill="#42a047" d="M 305.5,98.5 C 305.261,104.565 305.761,110.565 307,116.5C 309.368,121.435 313.201,124.602 318.5,126C 331.5,126.333 344.5,126.667 357.5,127C 370.89,130.056 379.39,138.223 383,151.5C 383.991,256.543 383.658,361.543 382,466.5C 377.652,476.85 370.152,483.683 359.5,487C 290.167,487.667 220.833,487.667 151.5,487C 149.277,486.434 147.277,485.6 145.5,484.5C 146.043,484.44 146.376,484.107 146.5,483.5C 145.103,481.018 144.269,478.352 144,475.5C 143.333,373.5 143.333,271.5 144,169.5C 146.892,156.941 154.392,148.441 166.5,144C 181.112,142.734 195.779,142.067 210.5,142C 215.333,139.833 218.833,136.333 221,131.5C 220.525,116.607 227.025,106.107 240.5,100C 262.122,98.5562 283.788,98.0562 305.5,98.5 Z"/></g>
<g><path style="opacity:1" fill="#c5e1c4" d="M 333.5,206.5 C 310.892,196.545 287.225,192.045 262.5,193C 223.733,199.933 200.733,222.766 193.5,261.5C 188.167,261.5 182.833,261.5 177.5,261.5C 177.5,290.5 177.5,319.5 177.5,348.5C 177.5,369.167 177.5,389.833 177.5,410.5C 176.335,340.335 176.168,270.001 177,199.5C 228.755,169.178 280.755,168.845 333,198.5C 333.497,201.146 333.664,203.813 333.5,206.5 Z"/></g>
<g><path style="opacity:1" fill="#e8f3e8" d="M 333.5,206.5 C 333.5,224.833 333.5,243.167 333.5,261.5C 286.833,261.5 240.167,261.5 193.5,261.5C 200.733,222.766 223.733,199.933 262.5,193C 287.225,192.045 310.892,196.545 333.5,206.5 Z"/></g>
<g><path style="opacity:1" fill="#d53432" d="M 193.5,261.5 C 193.5,290.167 193.5,318.833 193.5,347.5C 240.167,347.5 286.833,347.5 333.5,347.5C 333.5,347.833 333.5,348.167 333.5,348.5C 286.833,348.5 240.167,348.5 193.5,348.5C 188.167,348.5 182.833,348.5 177.5,348.5C 177.5,319.5 177.5,290.5 177.5,261.5C 182.833,261.5 188.167,261.5 193.5,261.5 Z"/></g>
<g><path style="opacity:1" fill="#e43a34" d="M 193.5,261.5 C 240.167,261.5 286.833,261.5 333.5,261.5C 333.5,290.167 333.5,318.833 333.5,347.5C 286.833,347.5 240.167,347.5 193.5,347.5C 193.5,318.833 193.5,290.167 193.5,261.5 Z"/></g>
<g><path style="opacity:1" fill="#c8e5c9" d="M 177.5,348.5 C 182.833,348.5 188.167,348.5 193.5,348.5C 193.177,372.241 193.511,395.908 194.5,419.5C 188.35,417.26 182.684,414.26 177.5,410.5C 177.5,389.833 177.5,369.167 177.5,348.5 Z"/></g>
<g><path style="opacity:1" fill="#e8f3e8" d="M 193.5,348.5 C 240.167,348.5 286.833,348.5 333.5,348.5C 333.821,369.576 333.488,390.576 332.5,411.5C 293.941,433.423 253.275,438.256 210.5,426C 205.017,424.119 199.684,421.952 194.5,419.5C 193.511,395.908 193.177,372.241 193.5,348.5 Z"/></g>
<g><path style="opacity:1" fill="#7eab6e" d="M 333.5,261.5 C 334.167,286.331 334.5,311.331 334.5,336.5C 334.5,361.842 333.833,386.842 332.5,411.5C 333.488,390.576 333.821,369.576 333.5,348.5C 333.5,348.167 333.5,347.833 333.5,347.5C 333.5,318.833 333.5,290.167 333.5,261.5 Z"/></g>
</svg>
