<?xml version="1.0" encoding="iso-8859-1"?>
<!-- Generator: Adobe Illustrator 19.0.0, SVG Export Plug-In . SVG Version: 6.00 Build 0)  -->
<svg version="1.1" id="Layer_1" xmlns="http://www.w3.org/2000/svg" xmlns:xlink="http://www.w3.org/1999/xlink" x="0px" y="0px"
	 viewBox="0 0 512 512" style="enable-background:new 0 0 512 512;" xml:space="preserve">
<path style="fill:#68330C;" d="M503.556,382.115H8.444c-4.465,0-8.084,3.618-8.084,8.084v113.717c0,4.466,3.62,8.084,8.084,8.084
	h495.113c4.465,0,8.084-3.618,8.084-8.084V390.199C511.64,385.733,508.021,382.115,503.556,382.115z"/>
<path style="fill:#4C2307;" d="M503.556,382.115h-32.29V512h32.289c4.465,0,8.084-3.618,8.084-8.084V390.199
	C511.64,385.733,508.021,382.115,503.556,382.115z"/>
<path style="fill:#F5BA3D;" d="M179.342,186.598c-13.742-22.445-22.804-48.708-26.205-75.95l-8.688-69.604
	c-0.506-4.046-3.945-7.083-8.022-7.083H82.743c-4.078,0-7.517,3.036-8.022,7.083l-8.688,69.604
	c-3.4,27.241-12.46,53.503-26.204,75.95c-7.641,12.48-11.516,24.517-11.516,35.777v55.491c0,4.466,3.62,8.084,8.084,8.084h146.377
	c4.465,0,8.084-3.618,8.084-8.084v-55.491C190.858,211.113,186.983,199.075,179.342,186.598z"/>
<path style="fill:#EF9325;" d="M179.342,186.598c-13.742-22.445-22.804-48.708-26.205-75.95l-8.688-69.604
	c-0.506-4.046-3.945-7.083-8.022-7.083H96.064c4.078,0,7.517,3.036,8.022,7.083l8.688,69.604c3.4,27.242,12.462,53.505,26.205,75.95
	c7.641,12.478,11.516,24.516,11.516,35.777v55.491c0,4.466-3.62,8.084-8.084,8.084h40.364c4.465,0,8.084-3.618,8.084-8.084v-55.491
	C190.858,211.113,186.983,199.075,179.342,186.598z"/>
<path style="fill:#E6E7E8;" d="M153.276,111.649c-0.043-0.334-0.097-0.667-0.138-1.001l-8.688-69.604
	c-0.506-4.046-3.945-7.083-8.022-7.083H82.743c-4.078,0-7.517,3.036-8.022,7.083l-8.688,69.604
	c-0.042,0.335-0.095,0.667-0.138,1.001H153.276z"/>
<path style="fill:#C9C9C9;" d="M104.085,41.044l8.688,69.604c0.042,0.335,0.095,0.667,0.138,1.001h40.365
	c-0.043-0.334-0.097-0.667-0.138-1.001l-8.688-69.604c-0.506-4.046-3.945-7.083-8.022-7.083H96.064
	C100.141,33.961,103.581,36.998,104.085,41.044z"/>
<path style="fill:#904F15;" d="M122.93,0H96.241C78.49,0,64.047,14.442,64.047,32.193v9.852c0,4.466,3.62,8.084,8.084,8.084h74.908
	c4.465,0,8.084-3.618,8.084-8.084v-9.852C155.124,14.442,140.682,0,122.93,0z"/>
<path style="fill:#7C4111;" d="M122.93,0H96.241c-2.38,0-4.697,0.267-6.932,0.76c14.43,3.18,25.262,16.063,25.262,31.434v9.852
	c0,4.466-3.62,8.084-8.084,8.084h40.553c4.465,0,8.084-3.618,8.084-8.084v-9.852C155.124,14.442,140.682,0,122.93,0z"/>
<path style="fill:#39A4FA;" d="M190.858,229.403H28.313v48.464c0,4.465,3.62,8.084,8.084,8.084h146.377
	c4.465,0,8.084-3.62,8.084-8.084V229.403z"/>
<path style="fill:#0088FA;" d="M150.484,285.951h32.29c4.465,0,8.084-3.62,8.084-8.084v-48.464h-40.375V285.951z"/>
<path style="fill:#F5BA3D;" d="M325.755,186.598c-13.743-22.445-22.804-48.708-26.204-75.95l-8.688-69.604
	c-0.506-4.046-3.945-7.083-8.022-7.083h-53.686c-4.078,0-7.517,3.036-8.022,7.083l-8.688,69.604
	c-3.4,27.241-12.46,53.503-26.204,75.95c-7.641,12.48-11.516,24.517-11.516,35.777v55.491c0,4.466,3.62,8.084,8.084,8.084h146.377
	c4.465,0,8.084-3.618,8.084-8.084v-55.491C337.272,211.113,333.397,199.075,325.755,186.598z"/>
<path style="fill:#EF9325;" d="M325.755,186.598c-13.743-22.445-22.804-48.708-26.204-75.95l-8.688-69.604
	c-0.506-4.046-3.945-7.083-8.022-7.083h-40.364c4.078,0,7.517,3.036,8.022,7.083l8.688,69.604
	c3.4,27.242,12.462,53.505,26.205,75.95c7.641,12.478,11.516,24.516,11.516,35.777v55.491c0,4.466-3.62,8.084-8.084,8.084h40.364
	c4.465,0,8.084-3.618,8.084-8.084v-55.491C337.272,211.113,333.397,199.075,325.755,186.598z"/>
<path style="fill:#E6E7E8;" d="M299.69,111.649c-0.043-0.334-0.097-0.667-0.138-1.001l-8.688-69.604
	c-0.506-4.046-3.945-7.083-8.022-7.083h-53.686c-4.078,0-7.517,3.036-8.022,7.083l-8.688,69.604
	c-0.042,0.335-0.095,0.667-0.138,1.001H299.69z"/>
<path style="fill:#C9C9C9;" d="M250.5,41.044l8.688,69.604c0.042,0.335,0.095,0.667,0.138,1.001h40.365
	c-0.043-0.334-0.097-0.667-0.138-1.001l-8.688-69.604c-0.506-4.046-3.945-7.083-8.022-7.083h-40.364
	C246.555,33.961,249.994,36.998,250.5,41.044z"/>
<path style="fill:#904F15;" d="M269.344,0h-26.689c-17.752,0-32.193,14.442-32.193,32.193v9.852c0,4.466,3.62,8.084,8.084,8.084
	h74.908c4.465,0,8.084-3.618,8.084-8.084v-9.852C301.537,14.442,287.096,0,269.344,0z"/>
<path style="fill:#7C4111;" d="M269.344,0h-26.689c-2.38,0-4.697,0.267-6.932,0.76c14.43,3.18,25.262,16.063,25.262,31.434v9.852
	c0,4.466-3.62,8.084-8.084,8.084h40.553c4.465,0,8.084-3.618,8.084-8.084v-9.852C301.537,14.442,287.096,0,269.344,0z"/>
<path style="fill:#39A4FA;" d="M337.273,229.403H174.726v48.464c0,4.465,3.62,8.084,8.084,8.084h146.378
	c4.465,0,8.084-3.62,8.084-8.084V229.403z"/>
<path style="fill:#0088FA;" d="M296.898,285.951h32.29c4.465,0,8.084-3.62,8.084-8.084v-48.464h-40.375V285.951z"/>
<path style="fill:#F5BA3D;" d="M472.132,186.598c-13.743-22.445-22.804-48.708-26.205-75.95l-8.688-69.604
	c-0.506-4.046-3.945-7.083-8.022-7.083h-53.686c-4.078,0-7.517,3.036-8.022,7.083l-8.688,69.604
	c-3.4,27.241-12.462,53.503-26.205,75.95c-7.641,12.48-11.516,24.517-11.516,35.777v55.491c0,4.466,3.62,8.084,8.084,8.084h146.377
	c4.465,0,8.084-3.618,8.084-8.084v-55.491C483.649,211.113,479.774,199.075,472.132,186.598z"/>
<path style="fill:#EF9325;" d="M472.132,186.598c-13.743-22.445-22.804-48.708-26.205-75.95l-8.688-69.604
	c-0.506-4.046-3.945-7.083-8.022-7.083h-40.364c4.078,0,7.517,3.036,8.022,7.083l8.688,69.604
	c3.4,27.242,12.462,53.505,26.204,75.95c7.641,12.478,11.516,24.516,11.516,35.777v55.491c0,4.466-3.62,8.084-8.084,8.084h40.364
	c4.465,0,8.084-3.618,8.084-8.084v-55.491C483.649,211.113,479.774,199.075,472.132,186.598z"/>
<path style="fill:#E6E7E8;" d="M446.067,111.649c-0.043-0.334-0.097-0.667-0.138-1.001l-8.688-69.604
	c-0.506-4.046-3.945-7.083-8.022-7.083h-53.686c-4.078,0-7.517,3.036-8.022,7.083l-8.688,69.604
	c-0.042,0.335-0.095,0.667-0.138,1.001H446.067z"/>
<path style="fill:#C9C9C9;" d="M396.877,41.044l8.688,69.604c0.042,0.335,0.095,0.667,0.138,1.001h40.364
	c-0.043-0.334-0.097-0.667-0.138-1.001l-8.688-69.604c-0.506-4.046-3.945-7.083-8.022-7.083h-40.364
	C392.932,33.961,396.371,36.998,396.877,41.044z"/>
<path style="fill:#904F15;" d="M415.721,0h-26.689c-17.752,0-32.193,14.442-32.193,32.193v9.852c0,4.466,3.62,8.084,8.084,8.084
	h74.908c4.465,0,8.084-3.618,8.084-8.084v-9.852C447.914,14.442,433.473,0,415.721,0z"/>
<path style="fill:#7C4111;" d="M415.721,0h-26.689c-2.38,0-4.697,0.267-6.932,0.76c14.43,3.18,25.262,16.063,25.262,31.434v9.852
	c0,4.466-3.62,8.084-8.084,8.084h40.553c4.465,0,8.084-3.618,8.084-8.084v-9.852C447.914,14.442,433.473,0,415.721,0z"/>
<path style="fill:#39A4FA;" d="M483.65,229.403H321.103v48.464c0,4.465,3.62,8.084,8.084,8.084h146.377
	c4.465,0,8.084-3.62,8.084-8.084v-48.464H483.65z"/>
<path style="fill:#0088FA;" d="M443.275,285.951h32.29c4.465,0,8.084-3.62,8.084-8.084v-48.464h-40.375V285.951z"/>
<path style="fill:#904F15;" d="M503.556,269.783H8.444c-4.465,0-8.084,3.618-8.084,8.084v112.332c0,4.466,3.62,8.084,8.084,8.084
	h495.113c4.465,0,8.084-3.618,8.084-8.084V277.867C511.64,273.403,508.021,269.783,503.556,269.783z"/>
<path style="fill:#7C4111;" d="M503.556,269.783h-32.29v128.5h32.289c4.465,0,8.084-3.618,8.084-8.084V277.867
	C511.64,273.403,508.021,269.783,503.556,269.783z"/>
<g>
	<path style="fill:#381905;" d="M46.581,341.1H8.444c-4.465,0-8.084-3.618-8.084-8.084c0-4.466,3.62-8.084,8.084-8.084h38.137
		c4.465,0,8.084,3.618,8.084,8.084C54.665,337.481,51.045,341.1,46.581,341.1z"/>
	<path style="fill:#381905;" d="M46.581,450.483H8.444c-4.465,0-8.084-3.618-8.084-8.084s3.62-8.084,8.084-8.084h38.137
		c4.465,0,8.084,3.618,8.084,8.084C54.665,446.864,51.045,450.483,46.581,450.483z"/>
	<path style="fill:#381905;" d="M503.556,341.1h-32.337c-4.465,0-8.084-3.618-8.084-8.084c0-4.466,3.62-8.084,8.084-8.084h32.337
		c4.465,0,8.084,3.618,8.084,8.084C511.64,337.481,508.021,341.1,503.556,341.1z"/>
	<path style="fill:#381905;" d="M503.556,450.483h-32.337c-4.465,0-8.084-3.618-8.084-8.084s3.62-8.084,8.084-8.084h32.337
		c4.465,0,8.084,3.618,8.084,8.084C511.64,446.864,508.021,450.483,503.556,450.483z"/>
</g>
<g>
</g>
<g>
</g>
<g>
</g>
<g>
</g>
<g>
</g>
<g>
</g>
<g>
</g>
<g>
</g>
<g>
</g>
<g>
</g>
<g>
</g>
<g>
</g>
<g>
</g>
<g>
</g>
<g>
</g>
</svg>
