<?xml version="1.0" encoding="iso-8859-1"?>
<!-- Generator: Adobe Illustrator 19.0.0, SVG Export Plug-In . SVG Version: 6.00 Build 0)  -->
<svg version="1.1" id="Layer_1" xmlns="http://www.w3.org/2000/svg" xmlns:xlink="http://www.w3.org/1999/xlink" x="0px" y="0px"
	 viewBox="0 0 512 512" style="enable-background:new 0 0 512 512;" xml:space="preserve">
<path style="fill:#C9C9C9;" d="M457.811,267.629h-43.936c-4.466,0-8.084,3.618-8.084,8.084v26.745c0,4.466,3.618,8.084,8.084,8.084
	h35.693c6.238,0,11.313,5.076,11.313,11.313v69.547c0,6.238-5.076,11.313-11.313,11.313h-35.693c-4.466,0-8.084,3.618-8.084,8.084
	v26.746c0,4.466,3.618,8.084,8.084,8.084h43.936c23.898,0,43.34-19.443,43.34-43.341v-91.321
	C501.151,287.072,481.709,267.629,457.811,267.629z"/>
<path style="fill:#E6E7E8;" d="M413.875,223.493h-53.297c-4.466,0-8.084,3.618-8.084,8.084v36.646c0,3.632-2.954,6.587-6.587,6.587
	c-3.632,0-6.588-2.954-6.588-6.587v-6.56c0-1.248-0.283-2.432-0.789-3.487c-2.628-9.726-11.597-16.865-21.967-16.865
	c-10.368,0-19.336,7.138-21.964,16.861c-0.504,1.05-0.789,2.226-0.791,3.469l-0.121,42.233c0,3.632-2.954,6.587-6.587,6.587
	s-6.587-2.954-6.587-6.587v-72.295c0-4.466-3.618-8.084-8.084-8.084h-42.343c-4.466,0-8.084,3.618-8.084,8.084v242.748
	c0,20.682,16.826,37.508,37.508,37.508h124.943c20.682,0,37.508-16.826,37.508-37.508V231.577
	C421.959,227.113,418.341,223.493,413.875,223.493z"/>
<path style="fill:#C9C9C9;" d="M413.875,223.493h-40.421c4.466,0,8.084,3.618,8.084,8.084v242.748
	c0,20.682-16.826,37.508-37.508,37.508h40.421c20.682,0,37.508-16.826,37.508-37.508V231.577
	C421.959,227.113,418.341,223.493,413.875,223.493z"/>
<path style="fill:#F5BA3D;" d="M179.778,210.344c-15.628-25.487-25.933-55.305-29.799-86.234l-9.83-78.65
	c-0.507-4.045-3.945-7.081-8.022-7.081H71.378c-4.077,0-7.516,3.035-8.022,7.081l-9.831,78.65
	c-3.865,30.926-14.17,60.745-29.798,86.234c-8.545,13.935-12.877,27.354-12.877,39.884v221.351
	c0,22.289,16.232,40.421,36.182,40.421h109.44c19.952,0,36.184-18.132,36.184-40.421V250.228
	C192.656,237.698,188.323,224.279,179.778,210.344z"/>
<path style="fill:#EF9325;" d="M179.778,210.344c-15.628-25.487-25.933-55.305-29.799-86.234l-9.83-78.65
	c-0.507-4.045-3.945-7.081-8.022-7.081H91.706c4.077,0,7.516,3.035,8.022,7.081l9.83,78.65c3.866,30.929,14.17,60.747,29.799,86.234
	c8.545,13.935,12.878,27.354,12.878,39.884v221.351c0,22.289-16.233,40.421-36.184,40.421h40.421
	c19.952,0,36.184-18.132,36.184-40.421V250.228C192.656,237.698,188.323,224.279,179.778,210.344z"/>
<path style="fill:#E6E7E8;" d="M148.277,110.488l-8.128-65.028c-0.507-4.045-3.945-7.081-8.022-7.081H71.378
	c-4.077,0-7.516,3.035-8.022,7.081l-8.128,65.028H148.277z"/>
<path style="fill:#C9C9C9;" d="M99.729,45.46l8.127,65.028h40.421l-8.128-65.028c-0.507-4.045-3.945-7.081-8.022-7.081H91.706
	C95.784,38.379,99.222,41.415,99.729,45.46z"/>
<rect x="10.854" y="259.221" style="fill:#39A4FA;" width="181.807" height="181.182"/>
<rect x="152.24" y="259.221" style="fill:#0088FA;" width="40.421" height="181.182"/>
<path style="fill:#004FAC;" d="M102.883,304.211c-25.883,0-46.941,21.056-46.941,46.94s21.058,46.941,46.941,46.941
	s46.94-21.058,46.94-46.941S128.766,304.211,102.883,304.211z"/>
<path style="fill:#F5BA3D;" d="M421.959,264.914h-62.164c-3.393,0-6.595,2.05-7.617,5.286c-0.91,2.879-3.653,4.783-6.675,4.598
	c-2.642-0.161-4.954-1.984-5.832-4.481c-1.137-3.235-4.194-5.403-7.627-5.403h-30.186c-4.456,0-8.071,3.606-8.084,8.062
	l-0.088,30.898c0,3.917-3.436,7.047-7.454,6.532c-3.321-0.426-5.721-3.413-5.721-6.76v-30.645c0-4.465-3.62-8.084-8.084-8.084
	h-50.427v209.412c0,20.715,16.793,37.508,37.508,37.508H384.45c20.715,0,37.508-16.792,37.508-37.508V264.914H421.959z"/>
<path style="fill:#EF9325;" d="M381.539,474.326c0,20.682-16.826,37.508-37.508,37.508h40.421c20.682,0,37.508-16.826,37.508-37.508
	V264.914h-40.421V474.326z"/>
<path style="fill:#E6E7E8;" d="M222,471.579v2.746c0,20.682,16.826,37.508,37.508,37.508h124.943
	c20.682,0,37.508-16.826,37.508-37.508v-2.746H222z"/>
<path style="fill:#C9C9C9;" d="M381.539,474.326c0,20.682-16.826,37.508-37.508,37.508h40.421c20.682,0,37.508-16.826,37.508-37.508
	v-2.746h-40.421V474.326z"/>
<path style="fill:#FFF5CF;" d="M368.662,231.578h53.297v-0.001V209.51c0-15.847-12.09-28.262-27.522-28.262
	c-6.242,0-12.165,2.017-17.007,5.682c-2.76-1.244-5.712-2.045-8.738-2.358c-4.412-10.059-14.394-16.823-25.863-16.823
	c-4.391,0-8.697,1.027-12.581,2.959c-6.511-4.285-14.374-6.289-22.326-5.524c-6.141-4.956-13.715-7.642-21.734-7.642
	c-13.969,0-26.198,8.154-31.689,20.486c-18.114,1.151-32.498,16.256-32.498,34.655c0,0.02,0,0.039,0,0.058s0,0.038,0,0.057v18.779
	v0.001h42.343v8.083v16.341v47.87c0,12.548,10.209,22.755,22.755,22.755c12.548,0,22.755-10.209,22.755-22.733l0.114-39.987
	c0.017-0.128,0.03-0.258,0.041-0.388c0.275-3.388,3.154-6.04,6.552-6.04c3.4,0,6.279,2.654,6.554,6.04
	c0.01,0.111,0.021,0.22,0.033,0.33v4.374c0,12.548,10.209,22.755,22.756,22.755c12.548,0,22.755-10.209,22.755-22.755v-12.221
	V239.66v-8.082H368.662z"/>
<path style="fill:#FFE682;" d="M394.438,181.249c-6.242,0-12.165,2.017-17.007,5.682c-2.76-1.244-5.712-2.045-8.738-2.358
	c-0.016-0.038-0.037-0.073-0.054-0.111v0.984c7.8,4.937,12.9,13.774,12.9,24.065v22.068v0.001h40.421v-0.001V209.51
	C421.959,193.663,409.87,181.249,394.438,181.249z"/>
<path style="fill:#904F15;" d="M120.026,0.004H83.478c-17.752,0-32.193,14.442-32.193,32.193v14.265
	c0,4.465,3.618,8.084,8.084,8.084h84.766c4.466,0,8.084-3.62,8.084-8.084V32.199C152.22,14.447,137.777,0.004,120.026,0.004z"/>
<path style="fill:#7C4111;" d="M119.985,0L83.439,0.054c-0.653,0.001-1.301,0.028-1.946,0.067
	c16.85,0.985,30.27,14.987,30.296,32.084l0.022,14.265c0.006,4.466-3.607,8.09-8.072,8.096l40.438-0.06
	c4.466-0.006,8.079-3.63,8.072-8.096l-0.022-14.265C152.2,14.394,137.737-0.026,119.985,0z"/>
<g>
</g>
<g>
</g>
<g>
</g>
<g>
</g>
<g>
</g>
<g>
</g>
<g>
</g>
<g>
</g>
<g>
</g>
<g>
</g>
<g>
</g>
<g>
</g>
<g>
</g>
<g>
</g>
<g>
</g>
</svg>
