<?xml version="1.0" encoding="UTF-8"?>
<!DOCTYPE svg PUBLIC "-//W3C//DTD SVG 1.1//EN" "http://www.w3.org/Graphics/SVG/1.1/DTD/svg11.dtd">
<svg xmlns="http://www.w3.org/2000/svg" version="1.1" width="512px" height="512px" style="shape-rendering:geometricPrecision; text-rendering:geometricPrecision; image-rendering:optimizeQuality; fill-rule:evenodd; clip-rule:evenodd" xmlns:xlink="http://www.w3.org/1999/xlink">
<g><path style="opacity:0.992" fill="#4d3d4c" d="M 226.5,-0.5 C 233.5,-0.5 240.5,-0.5 247.5,-0.5C 247.334,3.51383 247.501,7.51383 248,11.5C 249.543,13.3783 251.376,14.8783 253.5,16C 265.495,16.4999 277.495,16.6665 289.5,16.5C 289.807,21.3825 288.974,26.0492 287,30.5C 285.103,32.0163 282.936,32.683 280.5,32.5C 263.833,32.5 247.167,32.5 230.5,32.5C 224.95,32.7845 222.117,30.1179 222,24.5C 220.912,16.6403 221.579,8.97365 224,1.5C 224.995,0.934056 225.828,0.267389 226.5,-0.5 Z"/></g>
<g><path style="opacity:0.995" fill="#60515f" d="M 247.5,-0.5 C 259.833,-0.5 272.167,-0.5 284.5,-0.5C 286.144,0.316435 287.31,1.64977 288,3.5C 289.195,7.75143 289.695,12.0848 289.5,16.5C 277.495,16.6665 265.495,16.4999 253.5,16C 251.376,14.8783 249.543,13.3783 248,11.5C 247.501,7.51383 247.334,3.51383 247.5,-0.5 Z"/></g>
<g><path style="opacity:0.985" fill="#ffaa5a" d="M 230.5,32.5 C 247.167,32.5 263.833,32.5 280.5,32.5C 281.575,38.1023 282.242,43.769 282.5,49.5C 273.161,49.3335 263.827,49.5002 254.5,50C 249.667,52.1667 246.167,55.6667 244,60.5C 239.588,92.7976 235.421,125.131 231.5,157.5C 231.415,159.333 230.748,160.666 229.5,161.5C 220.602,156.522 216.602,148.855 217.5,138.5C 221.343,103.087 225.677,67.7538 230.5,32.5 Z"/></g>
<g><path style="opacity:0.993" fill="#ffc162" d="M 282.5,49.5 C 286.776,79.2126 290.443,109.046 293.5,139C 294.295,149.151 290.295,156.651 281.5,161.5C 279.233,162.423 276.9,163.256 274.5,164C 259.375,165.061 244.375,164.561 229.5,162.5C 229.5,162.167 229.5,161.833 229.5,161.5C 230.748,160.666 231.415,159.333 231.5,157.5C 235.421,125.131 239.588,92.7976 244,60.5C 246.167,55.6667 249.667,52.1667 254.5,50C 263.827,49.5002 273.161,49.3335 282.5,49.5 Z"/></g>
<g><path style="opacity:0.982" fill="#ffaa5a" d="M 281.5,161.5 C 285.194,165.86 289.194,169.86 293.5,173.5C 288.785,176.187 283.785,178.354 278.5,180C 264.54,181.221 250.54,181.888 236.5,182C 234.5,183 232.5,184 230.5,185C 217,197.167 203.5,209.333 190,221.5C 189.502,224.482 189.335,227.482 189.5,230.5C 183.833,230.5 178.167,230.5 172.5,230.5C 171.593,223.241 173.093,216.574 177,210.5C 194.37,194.294 211.87,178.294 229.5,162.5C 244.375,164.561 259.375,165.061 274.5,164C 276.9,163.256 279.233,162.423 281.5,161.5 Z"/></g>
<g><path style="opacity:0.997" fill="#ffc162" d="M 293.5,173.5 C 307.429,185.258 320.929,197.591 334,210.5C 337.907,216.574 339.407,223.241 338.5,230.5C 288.833,230.5 239.167,230.5 189.5,230.5C 189.335,227.482 189.502,224.482 190,221.5C 203.5,209.333 217,197.167 230.5,185C 232.5,184 234.5,183 236.5,182C 250.54,181.888 264.54,181.221 278.5,180C 283.785,178.354 288.785,176.187 293.5,173.5 Z"/></g>
<g><path style="opacity:0.995" fill="#fea95a" d="M 189.5,230.5 C 239.167,230.5 288.833,230.5 338.5,230.5C 338.5,318.5 338.5,406.5 338.5,494.5C 292.499,494.667 246.499,494.5 200.5,494C 195.667,491.833 192.167,488.333 190,483.5C 189.5,399.167 189.333,314.834 189.5,230.5 Z"/></g>
<g><path style="opacity:0.983" fill="#ff8b56" d="M 172.5,230.5 C 178.167,230.5 183.833,230.5 189.5,230.5C 189.333,314.834 189.5,399.167 190,483.5C 192.167,488.333 195.667,491.833 200.5,494C 246.499,494.5 292.499,494.667 338.5,494.5C 338.436,502.553 334.769,508.22 327.5,511.5C 279.5,511.5 231.5,511.5 183.5,511.5C 178.436,508.932 174.936,504.932 173,499.5C 172.5,409.834 172.333,320.167 172.5,230.5 Z"/></g>
<g><path style="opacity:1" fill="#635360" d="M 217.5,280.5 C 242.502,280.333 267.502,280.5 292.5,281C 297.799,282.398 301.632,285.565 304,290.5C 305.652,337.441 305.985,384.441 305,431.5C 303.718,437.113 300.551,441.28 295.5,444C 269.562,445.639 243.562,445.972 217.5,445C 212.667,442.833 209.167,439.333 207,434.5C 205.348,387.559 205.015,340.559 206,293.5C 208.002,287.463 211.835,283.13 217.5,280.5 Z"/></g>
<g><path style="opacity:1" fill="#fda95a" d="M 227.5,313.5 C 246.17,313.333 264.836,313.5 283.5,314C 285.667,314.833 287.167,316.333 288,318.5C 288.667,325.833 288.667,333.167 288,340.5C 287.167,343.333 285.333,345.167 282.5,346C 264.167,346.667 245.833,346.667 227.5,346C 225.274,344.773 223.774,342.939 223,340.5C 222.333,333.167 222.333,325.833 223,318.5C 224.025,316.313 225.525,314.646 227.5,313.5 Z"/></g>
<g><path style="opacity:1" fill="#afa7ae" d="M 235.5,371.5 C 248.837,371.333 262.171,371.5 275.5,372C 282.075,376.867 282.075,381.867 275.5,387C 262.167,387.667 248.833,387.667 235.5,387C 228.86,381.705 228.86,376.539 235.5,371.5 Z"/></g>
<g><path style="opacity:1" fill="#877e87" d="M 243.5,404.5 C 251.507,404.334 259.507,404.5 267.5,405C 271.277,407.955 272.443,411.788 271,416.5C 269.786,418.049 268.286,419.215 266.5,420C 258.833,420.667 251.167,420.667 243.5,420C 238.208,414.835 238.208,409.668 243.5,404.5 Z"/></g>
<g><path style="opacity:1" fill="#ffc162" d="M 210.5,462.5 C 240.502,462.333 270.502,462.5 300.5,463C 303.516,464.529 304.849,467.029 304.5,470.5C 304.664,474.177 302.997,476.677 299.5,478C 270.167,478.667 240.833,478.667 211.5,478C 206.776,475.565 205.276,471.731 207,466.5C 207.69,464.65 208.856,463.316 210.5,462.5 Z"/></g>
</svg>
