<?xml version="1.0" encoding="UTF-8"?>
<!DOCTYPE svg PUBLIC "-//W3C//DTD SVG 1.1//EN" "http://www.w3.org/Graphics/SVG/1.1/DTD/svg11.dtd">
<svg xmlns="http://www.w3.org/2000/svg" version="1.1" width="512px" height="512px" style="shape-rendering:geometricPrecision; text-rendering:geometricPrecision; image-rendering:optimizeQuality; fill-rule:evenodd; clip-rule:evenodd" xmlns:xlink="http://www.w3.org/1999/xlink">
<g><path style="opacity:1" fill="#d77d41" d="M 147.5,-0.5 C 152.833,-0.5 158.167,-0.5 163.5,-0.5C 218.84,13.0045 269.507,36.5045 315.5,70C 379.032,117.186 430.865,174.686 471,242.5C 489.555,275.682 503.055,310.682 511.5,347.5C 511.5,352.833 511.5,358.167 511.5,363.5C 507.466,373.865 500.133,380.865 489.5,384.5C 490.481,379.871 490.648,375.204 490,370.5C 476.058,312.626 451.392,259.959 416,212.5C 371.251,153.406 317.417,104.573 254.5,66C 218.711,45.4401 180.711,30.4401 140.5,21C 135.796,20.3523 131.129,20.519 126.5,21.5C 130.108,10.8926 137.108,3.55922 147.5,-0.5 Z"/></g>
<g><path style="opacity:0.998" fill="#f69e60" d="M 489.5,384.5 C 474.376,387.435 462.71,382.435 454.5,369.5C 452.585,360.617 450.252,351.951 447.5,343.5C 435.295,302.09 416.461,264.09 391,229.5C 349.184,173.006 298.017,127.173 237.5,92C 207.165,75.5013 175.165,63.668 141.5,56.5C 128.559,48.2798 123.559,36.6131 126.5,21.5C 131.129,20.519 135.796,20.3523 140.5,21C 180.711,30.4401 218.711,45.4401 254.5,66C 317.417,104.573 371.251,153.406 416,212.5C 451.392,259.959 476.058,312.626 490,370.5C 490.648,375.204 490.481,379.871 489.5,384.5 Z"/></g>
<g><path style="opacity:1" fill="#fceca4" d="M 141.5,56.5 C 175.165,63.668 207.165,75.5013 237.5,92C 298.017,127.173 349.184,173.006 391,229.5C 416.461,264.09 435.295,302.09 447.5,343.5C 436.22,347.038 424.886,350.371 413.5,353.5C 396.788,305.342 371.955,262.009 339,223.5C 298.307,175.795 249.807,138.295 193.5,111C 173.228,101.854 152.228,95.0204 130.5,90.5C 133.767,79.0326 137.434,67.6992 141.5,56.5 Z"/></g>
<g><path style="opacity:0.999" fill="#f8d01f" d="M 130.5,90.5 C 152.228,95.0204 173.228,101.854 193.5,111C 249.807,138.295 298.307,175.795 339,223.5C 371.955,262.009 396.788,305.342 413.5,353.5C 413.5,353.833 413.5,354.167 413.5,354.5C 395.023,361.104 376.356,367.104 357.5,372.5C 346.176,349.003 327.51,339.503 301.5,344C 274.645,353.864 263.312,373.031 267.5,401.5C 267.5,402.5 267.5,403.5 267.5,404.5C 190.108,430.02 112.775,455.853 35.5,482C 29.5,482.667 23.5,482.667 17.5,482C 11.2219,480.194 5.55519,477.361 0.5,473.5C 43.4627,345.61 86.796,217.944 130.5,90.5 Z"/></g>
<g><path style="opacity:1" fill="#ed2160" d="M 178.5,151.5 C 207.443,148.208 226.61,160.208 236,187.5C 239.102,222.063 223.436,241.396 189,245.5C 167.554,244.042 152.887,233.375 145,213.5C 138.263,183.089 149.43,162.422 178.5,151.5 Z"/></g>
<g><path style="opacity:1" fill="#fceca2" d="M 284.5,235.5 C 287.32,235.248 289.986,235.748 292.5,237C 298.333,242.167 304.167,247.333 310,252.5C 312.251,256.666 311.417,260.166 307.5,263C 304.833,263.667 302.167,263.667 299.5,263C 293.333,257.5 287.167,252 281,246.5C 279.662,241.96 280.829,238.293 284.5,235.5 Z"/></g>
<g><path style="opacity:1" fill="#fceca2" d="M 128.5,249.5 C 131.862,249.07 134.695,250.07 137,252.5C 140.418,258.337 144.084,264.004 148,269.5C 151.108,276.281 149.108,280.614 142,282.5C 140.188,282.507 138.688,281.84 137.5,280.5C 132.803,273.634 128.303,266.634 124,259.5C 122.571,254.783 124.071,251.45 128.5,249.5 Z"/></g>
<g><path style="opacity:1" fill="#6ac043" d="M 247.5,268.5 C 283,271.826 295.5,290.492 285,324.5C 282.868,327.316 280.035,328.649 276.5,328.5C 244.478,322.962 233.311,304.628 243,273.5C 244.059,271.341 245.559,269.674 247.5,268.5 Z"/></g>
<g><path style="opacity:1" fill="#ed2160" d="M 155.5,299.5 C 184.258,297.455 202.758,310.121 211,337.5C 213.503,366.303 201.003,384.803 173.5,393C 153.937,396.126 138.103,389.959 126,374.5C 115.453,357.225 114.786,339.558 124,321.5C 131.964,310.344 142.464,303.011 155.5,299.5 Z"/></g>
<g><path style="opacity:1" fill="#ed2260" d="M 357.5,372.5 C 357.5,372.833 357.5,373.167 357.5,373.5C 327.828,383.502 298.162,393.502 268.5,403.5C 268.672,402.508 268.338,401.842 267.5,401.5C 263.312,373.031 274.645,353.864 301.5,344C 327.51,339.503 346.176,349.003 357.5,372.5 Z"/></g>
<g><path style="opacity:1" fill="#fbde63" d="M 447.5,343.5 C 450.252,351.951 452.585,360.617 454.5,369.5C 443.306,373.565 431.972,377.231 420.5,380.5C 418.976,371.597 416.642,362.93 413.5,354.5C 413.5,354.167 413.5,353.833 413.5,353.5C 424.886,350.371 436.22,347.038 447.5,343.5 Z"/></g>
<g><path style="opacity:1" fill="#fea403" d="M 413.5,354.5 C 416.642,362.93 418.976,371.597 420.5,380.5C 400.72,387.872 380.72,394.872 360.5,401.5C 360.666,394.159 360.5,386.826 360,379.5C 359.76,377.148 358.927,375.148 357.5,373.5C 357.5,373.167 357.5,372.833 357.5,372.5C 376.356,367.104 395.023,361.104 413.5,354.5 Z"/></g>
<g><path style="opacity:1" fill="#fceca3" d="M 233.5,367.5 C 240.664,366.333 243.997,369.333 243.5,376.5C 243.116,383.564 242.282,390.564 241,397.5C 236.667,402.833 232.333,402.833 228,397.5C 227.245,388.734 227.912,380.067 230,371.5C 230.69,369.65 231.856,368.316 233.5,367.5 Z"/></g>
<g><path style="opacity:1" fill="#c71e54" d="M 357.5,373.5 C 358.927,375.148 359.76,377.148 360,379.5C 360.5,386.826 360.666,394.159 360.5,401.5C 335.144,409.841 309.811,418.174 284.5,426.5C 276.484,420.834 271.15,413.167 268.5,403.5C 298.162,393.502 327.828,383.502 357.5,373.5 Z"/></g>
<g><path style="opacity:1" fill="#6ac043" d="M 87.5,398.5 C 94.175,398.334 100.842,398.5 107.5,399C 109.286,399.785 110.786,400.951 112,402.5C 116.223,437.61 100.723,453.777 65.5,451C 62.6193,449.749 60.786,447.583 60,444.5C 56.7182,421.356 65.8849,406.022 87.5,398.5 Z"/></g>
<g><path style="opacity:1" fill="#fea402" d="M 267.5,401.5 C 268.338,401.842 268.672,402.508 268.5,403.5C 271.15,413.167 276.484,420.834 284.5,426.5C 201.564,455.034 118.564,483.368 35.5,511.5C 30.5,511.5 25.5,511.5 20.5,511.5C 10.5,507.5 3.5,500.5 -0.5,490.5C -0.5,485.5 -0.5,480.5 -0.5,475.5C 0.338246,475.158 0.67158,474.492 0.5,473.5C 5.55519,477.361 11.2219,480.194 17.5,482C 23.5,482.667 29.5,482.667 35.5,482C 112.775,455.853 190.108,430.02 267.5,404.5C 267.5,403.5 267.5,402.5 267.5,401.5 Z"/></g>
</svg>
