<?xml version="1.0" encoding="UTF-8"?>
<!DOCTYPE svg PUBLIC "-//W3C//DTD SVG 1.1//EN" "http://www.w3.org/Graphics/SVG/1.1/DTD/svg11.dtd">
<svg xmlns="http://www.w3.org/2000/svg" version="1.1" width="512px" height="512px" style="shape-rendering:geometricPrecision; text-rendering:geometricPrecision; image-rendering:optimizeQuality; fill-rule:evenodd; clip-rule:evenodd" xmlns:xlink="http://www.w3.org/1999/xlink">
<g><path style="opacity:0.997" fill="#c6855b" d="M 287.5,90.5 C 290.811,95.3314 293.978,100.331 297,105.5C 300.111,114.943 301.111,124.61 300,134.5C 293.539,159.753 282.539,182.753 267,203.5C 219.538,265.296 165.038,320.129 103.5,368C 87.6197,379.778 70.6197,389.778 52.5,398C 40.3234,403.045 27.6568,405.545 14.5,405.5C 11.1479,402.305 8.31455,398.638 6,394.5C 3.29265,387.881 1.12598,381.214 -0.5,374.5C -0.5,364.833 -0.5,355.167 -0.5,345.5C 2.14811,329.243 6.81477,313.576 13.5,298.5C 40.2307,305.363 62.2307,319.529 79.5,341C 89.867,346.701 99.0337,345.201 107,336.5C 111.611,328.472 111.611,320.472 107,312.5C 86.9177,288.205 61.751,271.539 31.5,262.5C 39.6989,247.418 49.3655,233.418 60.5,220.5C 86.1118,221.093 109.445,228.593 130.5,243C 139.5,251.333 148.5,259.667 157.5,268C 170.846,271.91 180.013,267.41 185,254.5C 185.667,250.833 185.667,247.167 185,243.5C 169.97,222.051 150.47,205.884 126.5,195C 115.534,190.624 104.534,186.791 93.5,183.5C 107.986,168.673 123.652,155.34 140.5,143.5C 175.583,147.435 203.749,163.435 225,191.5C 233.23,198.4 242.063,199.233 251.5,194C 258.896,187.25 261.063,179.084 258,169.5C 239.804,143.821 215.97,125.487 186.5,114.5C 217.585,95.8086 251.252,87.8086 287.5,90.5 Z"/></g>
<g><path style="opacity:1" fill="#c17e4e" d="M 287.5,90.5 C 327.589,102.007 340.756,127.673 327,167.5C 319.74,185.729 310.407,202.729 299,218.5C 292.259,227.062 285.759,235.729 279.5,244.5C 277.983,244.511 276.816,245.177 276,246.5C 271.633,252.57 266.8,258.236 261.5,263.5C 247.233,280.103 232.233,296.103 216.5,311.5C 203.505,323.162 190.838,335.162 178.5,347.5C 167.125,357.544 155.458,367.211 143.5,376.5C 134.949,382.602 126.615,388.935 118.5,395.5C 104.145,404.843 88.812,412.343 72.5,418C 58.4659,422.553 44.4659,422.553 30.5,418C 23.7647,415.41 18.4314,411.243 14.5,405.5C 27.6568,405.545 40.3234,403.045 52.5,398C 70.6197,389.778 87.6197,379.778 103.5,368C 165.038,320.129 219.538,265.296 267,203.5C 282.539,182.753 293.539,159.753 300,134.5C 301.111,124.61 300.111,114.943 297,105.5C 293.978,100.331 290.811,95.3314 287.5,90.5 Z"/></g>
<g><path style="opacity:0.998" fill="#f1d49b" d="M 186.5,114.5 C 215.97,125.487 239.804,143.821 258,169.5C 261.063,179.084 258.896,187.25 251.5,194C 242.063,199.233 233.23,198.4 225,191.5C 203.749,163.435 175.583,147.435 140.5,143.5C 154.475,131.836 169.809,122.17 186.5,114.5 Z"/></g>
<g><path style="opacity:0.998" fill="#f1d49b" d="M 93.5,183.5 C 104.534,186.791 115.534,190.624 126.5,195C 150.47,205.884 169.97,222.051 185,243.5C 185.667,247.167 185.667,250.833 185,254.5C 180.013,267.41 170.846,271.91 157.5,268C 148.5,259.667 139.5,251.333 130.5,243C 109.445,228.593 86.1118,221.093 60.5,220.5C 70.4158,207.248 81.4158,194.915 93.5,183.5 Z"/></g>
<g><path style="opacity:1" fill="#c6855b" d="M 279.5,244.5 C 283.5,244.5 287.5,244.5 291.5,244.5C 294.97,243.875 297.804,244.875 300,247.5C 318.714,277.974 326.047,310.974 322,346.5C 317.916,358.962 309.416,363.795 296.5,361C 289.903,358.737 285.736,354.237 284,347.5C 286.745,318.262 280.411,291.262 265,266.5C 264.241,264.937 263.074,263.937 261.5,263.5C 266.8,258.236 271.633,252.57 276,246.5C 276.816,245.177 277.983,244.511 279.5,244.5 Z"/></g>
<g><path style="opacity:0.998" fill="#d6a98a" d="M 291.5,244.5 C 314.136,243.675 336.803,245.008 359.5,248.5C 374.77,267.445 383.936,289.112 387,313.5C 387.552,322.508 387.386,331.508 386.5,340.5C 386.481,355.982 394.148,363.482 409.5,363C 420.463,359.596 425.963,352.096 426,340.5C 429.115,312.605 424.949,285.938 413.5,260.5C 438.709,267.771 461.709,279.271 482.5,295C 487.037,299.369 491.37,303.869 495.5,308.5C 497.885,327.85 491.552,343.683 476.5,356C 459.409,367.367 440.743,375.034 420.5,379C 375.533,387.036 330.199,390.869 284.5,390.5C 237.71,391.182 191.377,387.182 145.5,378.5C 144.287,378.253 143.62,377.586 143.5,376.5C 155.458,367.211 167.125,357.544 178.5,347.5C 184.668,361.387 194.668,364.887 208.5,358C 212.636,355.204 215.136,351.371 216,346.5C 217.706,334.827 217.873,323.161 216.5,311.5C 232.233,296.103 247.233,280.103 261.5,263.5C 263.074,263.937 264.241,264.937 265,266.5C 280.411,291.262 286.745,318.262 284,347.5C 285.736,354.237 289.903,358.737 296.5,361C 309.416,363.795 317.916,358.962 322,346.5C 326.047,310.974 318.714,277.974 300,247.5C 297.804,244.875 294.97,243.875 291.5,244.5 Z"/></g>
<g><path style="opacity:1" fill="#c6855b" d="M 359.5,248.5 C 377.88,250.929 395.88,254.929 413.5,260.5C 424.949,285.938 429.115,312.605 426,340.5C 425.963,352.096 420.463,359.596 409.5,363C 394.148,363.482 386.481,355.982 386.5,340.5C 387.386,331.508 387.552,322.508 387,313.5C 383.936,289.112 374.77,267.445 359.5,248.5 Z"/></g>
<g><path style="opacity:0.997" fill="#f1d49b" d="M 31.5,262.5 C 61.751,271.539 86.9177,288.205 107,312.5C 111.611,320.472 111.611,328.472 107,336.5C 99.0337,345.201 89.867,346.701 79.5,341C 62.2307,319.529 40.2307,305.363 13.5,298.5C 18.4649,285.903 24.4649,273.903 31.5,262.5 Z"/></g>
<g><path style="opacity:1" fill="#c6855b" d="M 216.5,311.5 C 217.873,323.161 217.706,334.827 216,346.5C 215.136,351.371 212.636,355.204 208.5,358C 194.668,364.887 184.668,361.387 178.5,347.5C 190.838,335.162 203.505,323.162 216.5,311.5 Z"/></g>
<g><path style="opacity:1" fill="#ce9775" d="M 495.5,308.5 C 503.462,317.091 508.796,327.091 511.5,338.5C 511.5,345.167 511.5,351.833 511.5,358.5C 504.992,376.85 492.658,390.017 474.5,398C 445.921,409.383 416.254,416.05 385.5,418C 328.5,422.657 271.5,422.657 214.5,418C 181.158,415.901 149.158,408.401 118.5,395.5C 126.615,388.935 134.949,382.602 143.5,376.5C 143.62,377.586 144.287,378.253 145.5,378.5C 191.377,387.182 237.71,391.182 284.5,390.5C 330.199,390.869 375.533,387.036 420.5,379C 440.743,375.034 459.409,367.367 476.5,356C 491.552,343.683 497.885,327.85 495.5,308.5 Z"/></g>
</svg>
