<?xml version="1.0" encoding="iso-8859-1"?>
<!-- Generator: Adobe Illustrator 19.0.0, SVG Export Plug-In . SVG Version: 6.00 Build 0)  -->
<svg version="1.1" id="Capa_1" xmlns="http://www.w3.org/2000/svg" xmlns:xlink="http://www.w3.org/1999/xlink" x="0px" y="0px"
	 viewBox="0 0 512 512" style="enable-background:new 0 0 512 512;" xml:space="preserve">
<path style="fill:#898890;" d="M412.142,354.031l-48.393,32.437c-76.402,44.791-145.58,32.84-192.58,12.828
	c-0.01,0-0.021-0.01-0.021-0.01c-38.908-16.575-62.604-38.671-62.604-38.671l278.332-72.057l14.985,21.239l14.624,20.713
	C421.905,338.178,419.934,348.798,412.142,354.031z"/>
<path style="fill:#787680;" d="M401.863,309.797c-27.112,35.75-68.198,63.636-110.8,79.602
	c-25.873,9.701-52.314,15.006-76.526,15.006c-13.943,0-28.577-1.754-43.367-5.109c-0.01,0-0.021-0.01-0.021-0.01
	c-38.908-16.575-62.604-38.671-62.604-38.671l278.332-72.057L401.863,309.797z"/>
<path style="fill:#898890;" d="M439.512,148.416l-37.649,42.262l-15.955,17.916L116.451,134.36c0,0,40.425-31.209,118.665-38.175
	c50.642-4.51,117.117,1.135,198.731,31.962C442.361,131.367,445.56,141.615,439.512,148.416z"/>
<path style="fill:#787680;" d="M401.863,190.678l-15.955,17.916L116.451,134.36c0,0,40.425-31.209,118.665-38.175
	C295.16,103.295,363.182,138.859,401.863,190.678z"/>
<path style="fill:#57565C;" d="M492.239,298.93c-2.178,2.446-4.52,4.809-7.049,7.07c-6.275,5.635-15.677,6.027-22.447,0.991
	l-69.333-51.499v-12.57l69.333-51.509c6.77-5.036,16.172-4.644,22.447,1.001c2.539,2.281,4.892,4.634,7.049,7.059
	C519.248,229.587,517.917,270.094,492.239,298.93z"/>
<path style="fill:#787680;" d="M492.239,298.93l-53.444-39.704c-3.171-2.356-5.042-6.074-5.042-10.025l0,0
	c0-3.951,1.87-7.669,5.042-10.025l53.444-39.704C519.248,229.587,517.917,270.094,492.239,298.93z"/>
<g>
	<path style="fill:#ACABB1;" d="M400.806,136.93c-3.221-2.809-8.111-2.478-10.922,0.743l-34.301,39.311
		c-2.81,3.221-2.478,8.111,0.743,10.922c1.468,1.28,3.281,1.908,5.086,1.908c2.158,0,4.305-0.898,5.835-2.651l34.301-39.311
		C404.361,144.63,404.027,139.74,400.806,136.93z"/>
	<path style="fill:#ACABB1;" d="M359.001,296.764c-2.402-3.536-7.215-4.457-10.752-2.055c-3.537,2.402-4.456,7.215-2.055,10.752
		l29.309,43.161c1.497,2.204,3.932,3.392,6.41,3.392c1.496,0,3.01-0.433,4.342-1.338c3.537-2.402,4.456-7.215,2.055-10.752
		L359.001,296.764z"/>
	<path style="fill:#ACABB1;" d="M325.43,314.348c-2.402-3.536-7.216-4.457-10.752-2.055c-3.537,2.402-4.456,7.215-2.055,10.752
		l29.309,43.161c1.497,2.204,3.932,3.392,6.41,3.392c1.496,0,3.009-0.433,4.342-1.338c3.537-2.402,4.456-7.215,2.055-10.752
		L325.43,314.348z"/>
	<path style="fill:#ACABB1;" d="M291.858,331.931c-2.402-3.536-7.215-4.457-10.752-2.055c-3.537,2.402-4.456,7.215-2.055,10.752
		l29.309,43.161c1.497,2.204,3.932,3.392,6.41,3.392c1.496,0,3.01-0.433,4.342-1.338c3.537-2.402,4.456-7.215,2.055-10.752
		L291.858,331.931z"/>
	<path style="fill:#ACABB1;" d="M254.143,343.04c-2.402-3.536-7.216-4.457-10.752-2.055c-3.537,2.402-4.456,7.215-2.055,10.752
		l29.309,43.161c1.497,2.204,3.932,3.392,6.41,3.392c1.496,0,3.009-0.433,4.342-1.338c3.537-2.402,4.456-7.215,2.055-10.752
		L254.143,343.04z"/>
	<path style="fill:#ACABB1;" d="M210.062,348.521c-2.401-3.536-7.215-4.457-10.752-2.055c-3.537,2.402-4.456,7.215-2.055,10.752
		l29.309,43.161c1.497,2.204,3.932,3.392,6.41,3.392c1.496,0,3.01-0.433,4.342-1.338c3.537-2.402,4.456-7.215,2.055-10.752
		L210.062,348.521z"/>
	<path style="fill:#ACABB1;" d="M322.027,171.339c1.468,1.28,3.281,1.908,5.086,1.908c2.158,0,4.305-0.898,5.835-2.651l34.3-39.311
		c2.81-3.221,2.477-8.11-0.743-10.921c-3.221-2.81-8.111-2.478-10.922,0.744l-34.3,39.311
		C318.473,163.639,318.806,168.528,322.027,171.339z"/>
	<path style="fill:#ACABB1;" d="M281.743,163.636c1.468,1.28,3.281,1.908,5.086,1.908c2.158,0,4.305-0.898,5.835-2.651l34.3-39.311
		c2.81-3.221,2.477-8.111-0.743-10.922c-3.221-2.809-8.111-2.478-10.922,0.744l-34.3,39.311
		C278.19,155.935,278.523,160.824,281.743,163.636z"/>
	<path style="fill:#ACABB1;" d="M240.155,157.536c1.468,1.28,3.281,1.908,5.086,1.908c2.158,0,4.305-0.898,5.835-2.651
		l34.301-39.311c2.81-3.221,2.477-8.111-0.743-10.922c-3.221-2.809-8.11-2.478-10.922,0.743l-34.301,39.311
		C236.601,149.835,236.933,154.725,240.155,157.536z"/>
</g>
<path style="fill:#898890;" d="M476.273,265.241l-38.316-14.082c-1.821-0.669-1.821-3.244,0-3.912l38.248-14.056
	c3.978-1.461,6.319-5.801,4.979-9.821c-1.388-4.16-5.926-6.324-10.015-4.822c-16.67,6.129-63.308,23.259-63.881,23.491
	c-6.501,2.641-6.429,11.979,0.237,14.429l63.643,23.39c4.195,1.544,8.893-0.78,10.13-5.196
	C482.398,270.736,480.098,266.647,476.273,265.241z"/>
<path style="fill:#C6C5CA;" d="M406.724,256.121c-23.531,50.797-75.453,90.624-129.852,111.007
	c-25.873,9.701-52.314,15.006-76.526,15.006c-66.536,0-148.563-40.033-190.516-101.254c-13.107-19.134-13.107-44.213,0-63.347
	c33.83-49.373,93.73-84.979,150.555-96.899c13.633-2.869,27.091-4.366,39.961-4.366c75.133,0,171.65,51.055,206.378,126.013
	C408.757,246.677,408.757,251.734,406.724,256.121z"/>
<path style="fill:#E0E0E2;" d="M406.724,256.121c-23.531,50.797-75.453,90.624-129.852,111.007
	c-13.902,2.941-27.597,4.479-40.652,4.479c-66.536,0-148.563-40.043-190.505-101.264c-13.117-19.134-13.117-44.213,0-63.347
	c26.73-39.022,69.756-69.436,114.671-86.362c13.633-2.869,27.091-4.366,39.961-4.366c75.133,0,171.65,51.055,206.378,126.013
	C408.757,246.677,408.757,251.734,406.724,256.121z"/>
<g>
	<circle style="fill:#57565C;" cx="60.499" cy="220.001" r="11.353"/>
	<path style="fill:#57565C;" d="M76.93,187.111c-3.023,3.023-3.023,7.924,0,10.946c25.636,25.636,25.636,67.35,0,92.987
		c-3.023,3.023-3.023,7.924,0,10.946c1.511,1.511,3.492,2.267,5.473,2.267c1.98,0,3.962-0.755,5.473-2.267
		c31.672-31.672,31.672-83.208,0-114.88C84.854,184.088,79.953,184.088,76.93,187.111z"/>
</g>
<g>
	<path style="fill:#898890;" d="M161.334,314.789c-1.964-2.894-1.964-6.635,0-9.529l8.276-12.193
		c5.547-8.175,5.547-18.74-0.001-26.916l-8.273-12.188c-1.964-2.895-1.965-6.635,0-9.529l8.273-12.188
		c5.548-8.175,5.549-18.741,0-26.918l-8.272-12.187c-1.964-2.895-1.964-6.635,0-9.53l14.456-21.298
		c2.401-3.537,1.48-8.35-2.058-10.751c-3.536-2.401-8.35-1.48-10.751,2.058l-14.456,21.298c-5.549,8.176-5.549,18.742,0,26.918
		l8.272,12.186c1.965,2.895,1.965,6.636,0,9.53l-8.273,12.188c-5.549,8.176-5.549,18.741,0,26.918l8.273,12.188
		c1.964,2.894,1.964,6.634,0,9.528l-8.276,12.194c-5.547,8.175-5.547,18.74,0,26.915l14.458,21.305
		c1.498,2.207,3.933,3.394,6.412,3.394c1.496,0,3.008-0.432,4.34-1.335c3.538-2.401,4.458-7.214,2.059-10.751L161.334,314.789z"/>
	<path style="fill:#898890;" d="M212.495,314.789c-1.964-2.894-1.964-6.635,0-9.529l8.276-12.193
		c5.548-8.176,5.547-18.741-0.001-26.916l-8.273-12.188c-1.964-2.895-1.965-6.635,0-9.529l8.273-12.188
		c5.548-8.175,5.549-18.741,0-26.918l-8.273-12.186c-1.964-2.895-1.964-6.635,0-9.53l14.456-21.298
		c2.401-3.537,1.48-8.35-2.058-10.751c-3.536-2.401-8.35-1.48-10.751,2.058l-14.456,21.298c-5.549,8.176-5.549,18.742,0,26.919
		l8.272,12.186c1.965,2.895,1.965,6.636,0,9.53l-8.273,12.188c-5.549,8.176-5.549,18.741,0,26.918l8.273,12.19
		c1.964,2.894,1.965,6.634,0.001,9.528l-8.276,12.194c-5.547,8.175-5.547,18.74,0,26.915l14.458,21.305
		c1.498,2.207,3.933,3.394,6.412,3.394c1.496,0,3.008-0.432,4.34-1.335c3.538-2.401,4.458-7.214,2.059-10.751L212.495,314.789z"/>
	<path style="fill:#898890;" d="M263.658,314.789c-1.964-2.894-1.964-6.635,0-9.529l8.274-12.193c5.548-8.176,5.548-18.741,0-26.916
		l-8.273-12.188c-1.965-2.895-1.965-6.635,0-9.529l8.273-12.189c5.548-8.176,5.548-18.741,0-26.917l-8.272-12.187
		c-1.965-2.895-1.965-6.635,0-9.53l14.457-21.298c2.401-3.537,1.48-8.35-2.058-10.751c-3.536-2.398-8.35-1.48-10.751,2.058
		l-14.457,21.298c-5.549,8.176-5.549,18.742,0,26.918l8.272,12.187c1.965,2.895,1.965,6.635,0,9.529l-8.273,12.189
		c-5.548,8.176-5.548,18.741,0,26.917l8.273,12.19c1.964,2.894,1.965,6.634,0,9.528l-8.275,12.193
		c-5.547,8.175-5.547,18.74,0,26.915l14.458,21.305c1.497,2.207,3.933,3.394,6.412,3.394c1.496,0,3.008-0.432,4.34-1.335
		c3.538-2.401,4.458-7.214,2.059-10.751L263.658,314.789z"/>
	<path style="fill:#898890;" d="M314.82,253.964c-1.965-2.895-1.965-6.635,0-9.529l8.273-12.189c5.548-8.176,5.548-18.741,0-26.917
		l-8.272-12.187c-1.965-2.895-1.965-6.635,0-9.53c2.401-3.537,1.48-8.35-2.058-10.751c-3.536-2.399-8.35-1.479-10.751,2.058
		c-5.549,8.176-5.549,18.742,0,26.918l8.272,12.187c1.964,2.895,1.965,6.635,0,9.529l-8.273,12.189
		c-5.548,8.176-5.548,18.741,0,26.917l8.273,12.189c1.964,2.894,1.965,6.634,0,9.528l-8.275,12.193
		c-5.547,8.175-5.547,18.74,0,26.915c1.497,2.207,3.933,3.395,6.412,3.395c1.496,0,3.008-0.433,4.34-1.337
		c3.537-2.401,4.458-7.214,2.059-10.751c-1.964-2.894-1.964-6.635,0-9.529l8.274-12.193c5.548-8.176,5.548-18.741,0-26.916
		L314.82,253.964z"/>
</g>
<g>
</g>
<g>
</g>
<g>
</g>
<g>
</g>
<g>
</g>
<g>
</g>
<g>
</g>
<g>
</g>
<g>
</g>
<g>
</g>
<g>
</g>
<g>
</g>
<g>
</g>
<g>
</g>
<g>
</g>
</svg>
