<?xml version="1.0" encoding="iso-8859-1"?>
<!-- Generator: Adobe Illustrator 19.0.0, SVG Export Plug-In . SVG Version: 6.00 Build 0)  -->
<svg version="1.1" id="Capa_1" xmlns="http://www.w3.org/2000/svg" xmlns:xlink="http://www.w3.org/1999/xlink" x="0px" y="0px"
	 viewBox="0 0 511.997 511.997" style="enable-background:new 0 0 511.997 511.997;" xml:space="preserve">
<path style="fill:#CC7400;" d="M342.194,86.541c-4.243,0-7.681-3.438-7.681-7.681V9.75c0-5.377,4.379-9.75,9.762-9.75
	c3.12,0,5.976,1.453,7.832,3.986c6.904,9.446,35.164,37.829,73.248,44.259c4.182,0.706,7.001,4.67,6.294,8.853
	c-0.706,4.182-4.669,7.003-8.853,6.294c-32.706-5.523-58.581-24.825-72.924-38.911v54.38
	C349.875,83.102,346.436,86.541,342.194,86.541z"/>
<path style="fill:#FFD422;" d="M493.86,290.009c0,77.34-52.639,151.044-97.535,177.087c-9.268,5.366-16.396,13.631-21.117,23.237
	c-5.868,11.931-18.546,20.195-33.232,20.195s-27.364-8.264-33.232-20.195c-3.83-7.783-9.237-14.686-16.078-19.878
	c-1.598-1.219-3.277-2.345-5.028-3.359c-44.907-26.043-97.105-99.747-97.105-177.087c0-34.727,7.322-67.304,20.113-95.395
	c15.73-34.563,39.755-62.347,68.645-79.009c10.661-6.145,18.884-15.607,24.363-26.616c6.861-13.774,21.537-23.298,38.537-23.298
	c17.01,0,31.686,9.524,38.537,23.298c5.489,11.009,13.713,20.472,24.363,26.616C457.463,145.806,493.86,212.536,493.86,290.009z"/>
<path style="fill:#7ED63E;" d="M415.805,59.571c0.295,15.675,11.303,45.231,84.295,61.265c3.817,0.839,7.017-2.929,5.605-6.573
	c-7.958-20.54-32.577-71.616-79.187-66.729C420.39,48.176,415.689,53.41,415.805,59.571z"/>
<path style="fill:#EEBF00;" d="M292.666,470.454c-1.598-1.219-3.277-2.345-5.028-3.359c-44.907-26.043-97.105-99.747-97.105-177.087
	c0-34.727,7.322-67.304,20.113-95.395c74.861,5.274,136.502,64.764,142.329,141.807
	C357.051,390.391,332.749,439.947,292.666,470.454z"/>
<path style="fill:#6DC82A;" d="M500.096,120.838c-72.987-16.037-83.996-45.593-84.293-61.272
	c-0.113-6.155,4.588-11.388,10.712-12.033c2.478-0.256,4.885-0.358,7.24-0.307c0.676,14.542,10.784,39.776,67.222,56.008
	c1.966,4.168,3.533,7.947,4.731,11.03C507.122,117.909,503.916,121.678,500.096,120.838z"/>
<circle style="fill:#FFD422;" cx="159.706" cy="358.239" r="153.758"/>
<circle style="fill:#FFF5CC;" cx="159.706" cy="358.239" r="117.126"/>
<path style="fill:#FFEB99;" d="M171.628,474.776c-7.425,0.748-15.034,0.799-22.745,0.082
	c-64.405-5.97-111.78-63.033-105.799-127.449c5.981-64.416,63.043-111.78,127.459-105.799c0.266,0.02,0.543,0.051,0.809,0.082
	c-54.605,5.52-99.45,49.024-104.714,105.717C60.677,411.559,107.632,468.406,171.628,474.776z"/>
<g>
	<path style="fill:#DDB200;" d="M154.048,321.3c1.384,4.417,7.644,4.41,9.017-0.01c3.158-10.168,7.206-24.401,10.606-36.045
		c2.954-10.117-4.63-20.234-15.17-20.234l0,0c-10.558,0-18.145,10.152-15.157,20.278C146.78,296.93,150.867,311.146,154.048,321.3z"
		/>
	<path style="fill:#DDB200;" d="M98.966,313.54c10.115,6.709,22.383,14.972,31.348,20.706c3.9,2.495,8.689-1.535,6.9-5.804
		c-4.116-9.82-10.165-23.324-15.045-34.429c-4.24-9.649-16.553-12.524-24.626-5.749C89.453,295.05,90.167,307.704,98.966,313.54z"/>
	<path style="fill:#DDB200;" d="M83.128,363.708c12.061-1.362,26.771-2.918,37.323-4.288c4.59-0.596,5.669-6.762,1.556-8.882
		c-9.466-4.877-22.779-11.334-33.656-16.704c-9.45-4.666-20.731,1.047-22.561,11.426C63.957,355.658,72.637,364.893,83.128,363.708z
		"/>
	<path style="fill:#DDB200;" d="M124.562,377.24c-10.385,2.348-24.735,5.96-36.519,8.838c-10.238,2.5-15.208,14.127-9.939,23.254
		c5.279,9.144,17.864,10.638,25.14,2.987c8.364-8.796,18.631-19.444,25.835-27.276C132.213,381.637,129.076,376.219,124.562,377.24z
		"/>
	<path style="fill:#DDB200;" d="M143.682,396.052c-6.446,8.474-15.117,20.466-22.295,30.245c-6.236,8.496-2.569,20.598,7.335,24.201
		l0,0c9.921,3.611,20.523-3.333,21.178-13.871c0.753-12.114,1.775-26.87,2.259-37.501
		C152.369,394.501,146.484,392.367,143.682,396.052z"/>
	<path style="fill:#DDB200;" d="M178.891,395.078c-2.811-3.678-8.69-1.529-8.469,3.094c0.509,10.635,1.575,25.395,2.363,37.498
		c0.684,10.517,11.271,17.43,21.175,13.825l0,0c9.921-3.611,13.578-15.745,7.307-24.239
		C194.055,415.493,185.354,403.533,178.891,395.078z"/>
	<path style="fill:#DDB200;" d="M233.306,383.531c-11.8-2.845-26.154-6.414-36.539-8.737c-4.517-1.01-7.641,4.415-4.499,7.814
		c7.226,7.82,17.529,18.441,25.914,27.207c7.284,7.616,19.838,6.107,25.108-3.02l0,0
		C248.568,397.652,243.569,386.006,233.306,383.531z"/>
	<path style="fill:#DDB200;" d="M253.631,342.378L253.631,342.378c-1.833-10.398-13.148-16.107-22.602-11.405
		c-10.868,5.405-24.158,11.898-33.606,16.794c-4.11,2.13-3.015,8.293,1.576,8.878c10.563,1.346,25.282,2.859,37.34,4.185
		C246.815,361.982,255.461,352.756,253.631,342.378z"/>
	<path style="fill:#DDB200;" d="M187.466,332.428c8.956-5.758,21.205-14.061,31.293-20.795c8.765-5.851,9.459-18.477,1.386-25.251
		l0,0c-8.088-6.787-20.426-3.886-24.645,5.792c-4.851,11.126-10.858,24.643-14.949,34.467
		C178.773,330.913,183.573,334.932,187.466,332.428z"/>
	<circle style="fill:#DDB200;" cx="159.716" cy="360.287" r="15.544"/>
</g>
<g>
</g>
<g>
</g>
<g>
</g>
<g>
</g>
<g>
</g>
<g>
</g>
<g>
</g>
<g>
</g>
<g>
</g>
<g>
</g>
<g>
</g>
<g>
</g>
<g>
</g>
<g>
</g>
<g>
</g>
</svg>
