<?xml version="1.0" encoding="iso-8859-1"?>
<!-- Generator: Adobe Illustrator 19.0.0, SVG Export Plug-In . SVG Version: 6.00 Build 0)  -->
<svg version="1.1" id="Capa_1" xmlns="http://www.w3.org/2000/svg" xmlns:xlink="http://www.w3.org/1999/xlink" x="0px" y="0px"
	 viewBox="0 0 512 512" style="enable-background:new 0 0 512 512;" xml:space="preserve">
<path style="fill:#A4E276;" d="M456.201,244.875c0,119.322-89.146,216.046-199.124,216.046
	c-109.967,0-199.114-96.724-199.114-216.046S147.11,28.829,257.077,28.829c4.672,0,9.302,0.178,13.891,0.523
	c4.411,0.324,8.78,0.815,13.107,1.453C381.28,45.092,456.201,135.493,456.201,244.875z"/>
<path style="fill:#91DC5A;" d="M289.479,458.068c-10.546,1.881-21.364,2.853-32.402,2.853
	c-109.967,0-199.114-96.724-199.114-216.046S147.11,28.829,257.077,28.829c4.672,0,9.302,0.178,13.891,0.523
	c4.411,0.324,8.78,0.815,13.107,1.453c1.808,0.261,3.606,0.554,5.393,0.878c-94.55,16.786-166.701,105.849-166.701,213.193
	C122.767,352.229,194.918,441.281,289.479,458.068z"/>
<path style="fill:#C9EEAE;" d="M308.188,133.831c-17.434,26.486-51.351,32.464-62.901,33.76c-0.439,3.407-1.181,7.013-2.31,10.86
	c-6,20.455-16.818,27.771-26.371,34.241c-8.769,5.937-15.699,10.619-20.099,25.66c-4.526,15.417-1.338,25.137,2.352,36.394
	c3.93,11.999,8.393,25.597,2.509,45.686c-1.003,3.418-4.129,5.634-7.526,5.634c-0.732,0-1.474-0.105-2.205-0.324
	c-4.16-1.212-6.533-5.571-5.32-9.72c4.515-15.417,1.338-25.137-2.352-36.394c-3.94-11.999-8.393-25.608-2.508-45.686
	c6-20.455,16.818-27.771,26.371-34.241c8.769-5.937,15.689-10.619,20.099-25.66c4.515-15.406,1.338-25.127-2.352-36.384
	c-1.202-3.658-2.446-7.463-3.439-11.55c-12.574-1.139-38.339-8.341-57.111-45.958c-1.934-3.878-0.366-8.581,3.512-10.515
	c3.867-1.934,8.581-0.366,10.515,3.512c13.901,27.865,31.44,35.13,41.182,36.938c0.063-5.435,0.868-11.414,2.833-18.114
	c5.989-20.444,16.818-27.771,26.36-34.231c8.769-5.937,15.699-10.619,20.11-25.66c0.303-1.024,0.794-1.944,1.432-2.728
	c4.411,0.324,8.78,0.815,13.107,1.453c0.847,1.704,1.077,3.711,0.502,5.686c-5.989,20.455-16.818,27.771-26.36,34.231
	c-4.275,2.895-8.1,5.487-11.424,9.125c8.309,2.362,30.97,7.599,45.624-0.439c3.794-2.09,8.56-0.7,10.64,3.094
	c2.08,3.794,0.7,8.56-3.094,10.64c-8.477,4.662-18.354,6.188-27.688,6.188c-16.044,0-30.468-4.526-33.363-5.487
	c-0.272,0.815-0.544,1.662-0.805,2.54c-4.515,15.417-1.327,25.137,2.362,36.394c1.892,5.77,3.909,11.926,4.829,18.992
	c10.661-1.453,36.896-6.961,49.794-26.548c2.383-3.616,7.243-4.62,10.86-2.237C309.568,125.355,310.571,130.225,308.188,133.831z"/>
<path style="fill:#6DC82A;" d="M443.201,81.127c25.368-14.956,54.812,9.861,47.072,40.04c-1.374,5.36-2.534,10.443-3.269,15.171
	c-5.381,34.588,1.272,73.972-16.816,96.122c-19.412,23.769-56.956,19.285-82.627,30.672c-28.146,12.484-65.005,87.846-89.751,87.979
	c-42.894,0.23-62.185-22.402-47.94-48.4c8.692-15.864,13.879-95.179,30.099-116.259c12.255-15.927,43.284-13.749,60.53-30.496
	c14.628-14.206,17.237-49.805,35.85-63.366c16.408-11.954,45.746-0.084,65.516-10.708C442.307,81.643,442.752,81.392,443.201,81.127
	z"/>
<g>
	<path style="fill:#91DC5A;" d="M455.828,123.834c-3.143-2.978-8.105-2.844-11.082,0.299c-11.01,11.621-24.059,13.344-30.976,13.317
		l8.731-18.723c1.83-3.924,0.133-8.589-3.791-10.418c-3.923-1.829-8.587-0.133-10.418,3.791l-17.109,36.69
		c-3.014-3.995-6.242-10.332-5.734-18.797c0.259-4.322-3.033-8.036-7.355-8.295c-4.321-0.283-8.036,3.033-8.295,7.355
		c-1.105,18.418,9.127,30.335,14.226,35.085l-23.34,50.737c-1.83,3.924-0.133,8.589,3.791,10.418
		c1.071,0.501,2.199,0.737,3.308,0.737c2.952,0,5.779-1.677,7.11-4.528l31.802-68.884c1.14,0.174,3.65,0.482,7.098,0.482
		c9.909,0,27.521-2.549,42.333-18.185C459.104,131.773,458.97,126.812,455.828,123.834z"/>
	<path style="fill:#91DC5A;" d="M339.977,190.75c-9.21,6.285-15.781,14.101-20.144,20.573c-1.094-3.854-2.046-8.047-2.789-12.611
		c-0.696-4.273-4.726-7.169-8.997-6.476c-4.273,0.696-7.172,4.724-6.476,8.997c7.288,44.74,32.766,60.789,33.847,61.449
		c1.282,0.784,2.703,1.158,4.107,1.158c2.642,0,5.225-1.326,6.7-3.737c2.259-3.694,1.125-8.502-2.568-10.76
		c-0.536-0.341-8.816-5.777-16.293-19.401c0.039-0.088,0.09-0.166,0.126-0.255c0.063-0.157,6.485-15.859,21.327-25.986
		c3.576-2.441,4.498-7.318,2.057-10.894C348.431,189.231,343.552,188.312,339.977,190.75z"/>
</g>
<path style="fill:#7ED63E;" d="M294.908,334.172c-45.178,58.747-70.11-6.3-95.606-8.951c-32.181-3.346-67.909,6.676-89.567-11.313
	c-23.241-19.306-21.807-60.259-34.114-87.226c-13.492-29.566-44.217-54.379-46.111-81.151C26.227,99.126,45.65,76.626,70.569,90.18
	c15.206,8.271,47.296-1.477,67.836,14.568c15.519,12.122,15.74,45.859,32.37,63.322c14.106,14.813,47.019,15.087,60.818,34.259
	c12.164,16.901,3.354,49.502,14.537,70.138C256.154,290.968,280.626,352.743,294.908,334.172z"/>
<g>
	<path style="fill:#A4E276;" d="M130.848,205.416c-0.036-0.079-0.072-0.159-0.11-0.238l-8.203-16.98
		c1.194-0.78,2.194-1.887,2.834-3.277c10.795-23.476,11.94-38.896,11.983-39.541c0.29-4.306-2.957-8.02-7.262-8.329
		c-4.328-0.306-8.051,2.94-8.378,7.242c-0.009,0.116-0.861,10.386-7.447,26.785l-16.001-33.12
		c-1.883-3.898-6.567-5.532-10.469-3.648c-3.898,1.883-5.531,6.57-3.648,10.469l32.418,67.1l14.681,33.177
		c1.295,2.928,4.164,4.669,7.172,4.669c1.06,0,2.136-0.216,3.168-0.673c3.959-1.752,5.749-6.381,3.996-10.341L130.848,205.416z"/>
	<path style="fill:#A4E276;" d="M191.123,197.942c-4.16,1.184-6.575,5.518-5.396,9.681c0.06,0.21,2.713,9.829,3.727,23.213
		l-16.227-18.206c-2.88-3.233-7.835-3.516-11.068-0.635c-3.232,2.881-3.516,7.836-0.635,11.068l27.062,30.36l-0.908,9.301
		c-1.72,8.058-4.627,16.063-9.277,23.279c-2.344,3.638-1.296,8.49,2.343,10.836c1.314,0.847,2.784,1.25,4.239,1.25
		c2.575,0,5.098-1.268,6.597-3.593c24.16-37.491,9.847-88.997,9.226-91.172C199.615,199.166,195.285,196.755,191.123,197.942z"/>
</g>
<path style="fill:#5EAC24;" d="M225.665,455.631c39.158,9.932,84.654,32.365,124.438,16.9
	c33.828-13.149,70.476-27.566,95.073-55.443c39.493-44.758,58.413-101.512,65.392-159.694c2.93-24.425,5.268-97.846-34.856-97.295
	c-5.507,0.075-10.861,2.241-15.504,5.068c-21.6,13.153-63.124,14.216-92.65,41.506c-21.676,20.034-27.284,59.764-49.304,88.902
	c-18.418,24.371-55.837,39.813-72.359,71.361C231.549,394.33,237.212,422.306,225.665,455.631z"/>
<path style="fill:#4E901E;" d="M510.563,257.397c-6.972,58.177-25.89,114.932-65.389,159.688
	c-24.594,27.876-61.239,42.3-95.073,55.449c-39.781,15.459-85.279-6.972-124.433-16.901c4.285-12.365,6.198-23.988,7.651-35.13
	c31.409,9.846,64.751,19.817,94.832,8.132c33.834-13.149,70.479-27.573,95.073-55.449c39.499-44.756,58.417-101.511,65.389-159.688
	c1.296-10.808,2.477-31.2-0.094-50.536C515.256,176.643,513.144,235.938,510.563,257.397z"/>
<path style="fill:#7ED63E;" d="M492.065,236.836c-2.436-3.579-7.313-4.504-10.891-2.066c-4.145,2.822-13.632,9.031-22.135,13.887
	c3.876-15.927,6.121-32.104,6.681-48.414c0.149-4.327-3.238-7.955-7.564-8.104c-4.284-0.178-7.955,3.238-8.104,7.564
	c-1.017,29.57-7.922,58.706-20.524,86.596c-5.284,11.694-11.653,23.306-18.975,34.683l4.77-62.251c0.33-4.317-2.9-8.084-7.217-8.416
	c-4.326-0.326-8.085,2.9-8.416,7.217l-6.72,87.674c-0.008,0.109-0.004,0.214-0.008,0.322
	c-11.116,14.006-23.132,26.768-35.318,38.266c1.242-5.753,2.465-11.857,3.576-17.868c3.558-19.244,7.505-45.626,6.096-62.021
	c-0.37-4.314-4.159-7.509-8.482-7.139c-4.314,0.37-7.51,4.168-7.139,8.482c2.206,25.675-11.233,86.691-14.18,94.83
	c-0.377,0.691-0.635,1.429-0.79,2.185c-5.747,4.752-11.435,9.208-16.994,13.382l-0.431-48.613c-0.039-4.305-3.541-7.77-7.838-7.77
	c-0.023,0-0.047,0-0.07,0c-4.329,0.039-7.808,3.58-7.77,7.908l0.499,56.26c0.009,1.07,0.234,2.089,0.631,3.015
	c-31.298,21.673-55.369,32.936-55.84,33.153c-3.931,1.81-5.65,6.466-3.842,10.397c1.321,2.872,4.159,4.564,7.126,4.564
	c1.096,0,2.21-0.232,3.272-0.719c2.104-0.968,29.734-13.871,64.382-38.63l26.216,7.421c0.715,0.202,1.432,0.298,2.14,0.298
	c3.419,0,6.561-2.254,7.539-5.706c1.179-4.165-1.242-8.499-5.408-9.679l-14.653-4.148c5.733-4.463,11.571-9.221,17.444-14.275
	c21.12-1.366,46.362-5.66,47.472-5.85c4.268-0.731,7.134-4.782,6.404-9.049c-0.731-4.267-4.769-7.128-9.049-6.404
	c-0.179,0.03-11.783,2.004-25.558,3.686c8.837-8.593,17.568-17.854,25.948-27.786c21.599-3.843,49.3-22.895,82.423-56.718
	c0.899-0.918,1.828-1.867,2.098-2.119c3.214-2.876,3.5-7.814,0.633-11.043c-2.873-3.237-7.828-3.534-11.067-0.66
	c-0.541,0.48-1.228,1.178-2.866,2.852c-22.492,22.968-39.744,36.274-52.788,43.779c10.723-15.279,19.821-31.084,27.04-47.058
	c3.53-7.813,6.63-15.721,9.319-23.706c0.253-0.073,0.506-0.158,0.756-0.257c12.427-4.971,35.147-20.408,36.109-21.063
	C493.577,245.29,494.502,240.414,492.065,236.836z"/>
<path style="fill:#4E901E;" d="M324.086,477.801c-41.882,14.403-99.013-3.491-139.829-14.79
	c-40-11.058-79.259-26.987-108.326-57.926c-15.616-16.629-27.5-36.363-38.663-56.264c-20.915-37.272-41.976-77.67-36.342-121.506
	c3.334-25.942,20.486-53.118,49.501-37.795c18.573,9.815,57.685-1.568,82.792,17.445c18.971,14.361,19.357,54.174,39.708,74.848
	c17.257,17.528,57.403,17.978,74.304,40.648c14.894,19.995,4.264,58.428,17.978,82.823c10.964,19.514,34.461,34.105,48.655,52.627
	c4.066,5.299,7.369,10.923,9.396,17.068C323.563,475.909,323.835,476.85,324.086,477.801z"/>
<path style="fill:#47821C;" d="M324.086,477.801c-41.882,14.403-99.013-3.491-139.829-14.79
	c-40-11.058-79.259-26.987-108.326-57.926c-15.616-16.629-27.5-36.363-38.663-56.264c-20.915-37.272-41.976-77.67-36.342-121.506
	c2.78-21.657,15.197-44.181,36.112-42.101c-0.7,2.864-1.244,5.759-1.62,8.654c-5.634,43.836,15.427,84.234,36.342,121.506
	c11.163,19.901,23.047,39.635,38.663,56.264c29.067,30.938,68.326,46.867,108.326,57.926c25.346,7.013,56.975,16.577,87.338,19.368
	c2.78,2.906,5.404,5.885,7.776,8.978c4.066,5.299,7.369,10.923,9.396,17.068C323.563,475.909,323.835,476.85,324.086,477.801z"/>
<path style="fill:#5EAC24;" d="M323.26,474.979c-0.951,0.408-1.986,0.627-3.052,0.627c-0.606,0-1.212-0.063-1.829-0.209
	c-2.937-0.711-52.574-12.867-108.42-44.38c-20.977,2.791-46.575,3.512-47.704,3.543h-0.22c-4.233,0-7.714-3.366-7.829-7.63
	c-0.115-4.327,3.292-7.923,7.62-8.048c0.188,0,11.947-0.334,25.785-1.38c-10.348-6.7-20.716-14.079-30.876-22.179
	c-0.366,0.01-0.721,0.021-1.087,0.021c-21.866,0-52.386-13.274-90.829-39.53c-1.077-0.732-2.184-1.484-2.488-1.672
	c-3.731-2.185-4.975-6.972-2.791-10.713c2.185-3.731,7.013-4.986,10.745-2.801c0.627,0.366,1.432,0.92,3.366,2.237
	c26.548,18.134,46.073,27.803,60.33,32.621c-12.093-11.55-22.984-23.768-32.454-36.436c-0.157-0.188-0.293-0.387-0.439-0.585
	c-0.941-1.286-1.902-2.561-2.822-3.846c-8.759-12.239-16.295-25.022-22.598-38.265c-13.703-3.47-34.555-12.292-35.516-12.699
	c-3.993-1.693-5.853-6.292-4.16-10.274c1.693-3.993,6.292-5.843,10.274-4.16c4.118,1.746,12.919,5.299,21.354,8.247
	c-3.596-9.574-6.585-19.336-8.926-29.287c-0.983-4.223,1.631-8.435,5.843-9.428c4.202-0.993,8.435,1.62,9.428,5.832
	c5.456,23.225,14.633,45.425,27.311,66.204l4.244-64.918c0.282-4.317,4.045-7.588,8.33-7.317c4.327,0.282,7.599,4.014,7.317,8.341
	l-5.54,84.819c9.491,12.438,20.434,24.416,32.632,35.694c9.25,8.571,18.918,16.441,28.733,23.653
	c-1.568-3.711-3.136-7.515-4.641-11.288c-7.254-18.176-16.274-43.282-18.103-59.63c-0.481-4.306,2.623-8.184,6.93-8.665
	c4.285-0.47,8.174,2.624,8.654,6.93c2.77,24.855,26.496,79.468,31.994,89.439c6.616,4.108,13.212,7.944,19.702,11.508l-7.985-42.028
	c-0.815-4.254,1.986-8.362,6.229-9.167c4.264-0.805,8.362,1.986,9.167,6.229l10.306,54.194c32.862,16.222,61.25,25.43,74.618,29.329
	C317.93,463.21,321.232,468.833,323.26,474.979z"/>
<g>
</g>
<g>
</g>
<g>
</g>
<g>
</g>
<g>
</g>
<g>
</g>
<g>
</g>
<g>
</g>
<g>
</g>
<g>
</g>
<g>
</g>
<g>
</g>
<g>
</g>
<g>
</g>
<g>
</g>
</svg>
