<?xml version="1.0" encoding="iso-8859-1"?>
<!-- Generator: Adobe Illustrator 19.0.0, SVG Export Plug-In . SVG Version: 6.00 Build 0)  -->
<svg version="1.1" id="Capa_1" xmlns="http://www.w3.org/2000/svg" xmlns:xlink="http://www.w3.org/1999/xlink" x="0px" y="0px"
	 viewBox="0 0 512 512" style="enable-background:new 0 0 512 512;" xml:space="preserve">
<path style="fill:#D8D7DA;" d="M316.312,109.459c-7.167,9.38-20.621,10.58-29.329,2.927l-0.021-0.021
	c-1.045-0.92-2.647-0.817-3.568,0.228l-67.986,77.242l-5.678-5.005l-14.623-12.865l67.986-77.242
	c0.92-1.045,0.817-2.658-0.228-3.568l-0.021-0.021c-8.708-7.663-9.214-21.17-0.827-29.464c7.063-6.991,18.398-7.725,26.309-1.696
	c4.571,3.485,7.198,8.46,7.818,13.651c0.238,2.017,1.944,3.516,3.971,3.506c0.641-0.01,1.282,0.021,1.913,0.072
	c4.592,0.393,9.09,2.358,12.627,5.946C321.638,90.223,322.351,101.568,316.312,109.459z"/>
<path style="fill:#EBE5DD;" d="M316.312,109.459c-7.167,9.38-20.621,10.58-29.329,2.927l-0.021-0.021
	c-1.045-0.92-2.647-0.817-3.568,0.228l-67.986,77.242l-5.678-5.005l92.3-107.626c4.592,0.393,9.09,2.358,12.627,5.946
	C321.638,90.223,322.351,101.568,316.312,109.459z"/>
<path style="fill:#CD2A00;" d="M239.39,192.193c0,3.868-0.538,7.787-1.644,11.634l-29.877,103.49
	c-13.899,29.112-41.956,49.33-73.892,52.184c-23.652,2.12-47.644-4.602-66.435-20.663c-10.29-8.79-18.057-19.473-23.248-31.17
	c-5.781-13.02-8.129-26.795-7.415-40.302c1.582-30.198,18.439-59.051,46.321-75.174l100.366-38.264
	c14.396-5.491,30.529-2.637,41.956,7.425c8.387,7.374,13.217,17.715,13.806,28.585C239.369,190.683,239.39,191.438,239.39,192.193z"
	/>
<path style="fill:#AB2300;" d="M239.39,192.193c0,3.868-0.538,7.787-1.644,11.634l-29.877,103.49
	c-13.899,29.112-41.956,49.33-73.892,52.184c-23.652,2.12-47.644-4.602-66.435-20.663c-10.29-8.79-18.057-19.473-23.248-31.17
	c-5.781-13.02-8.129-26.795-7.415-40.302c34.552-46.879,90.128-77.428,152.489-77.428h49.961
	C239.369,190.683,239.39,191.438,239.39,192.193z"/>
<path style="fill:#781900;" d="M375.518,313.294c0,78.545-64.263,142.809-142.809,142.809H47.158
	C21.221,456.103,0,434.882,0,408.945v-0.041c0-104.151,85.216-189.367,189.367-189.367h92.383c18.543,0,35.865,5.45,50.457,14.83
	c5.709,3.671,10.993,7.932,15.771,12.71C364.97,264.068,375.518,287.512,375.518,313.294z"/>
<path style="fill:#891C00;" d="M375.518,313.294c0,43.115-19.37,81.937-49.826,108.174c-25.027,21.563-57.552,34.634-92.982,34.634
	H54.046c-8.284-8.501-13.403-20.104-13.403-32.835v-0.041c0-0.589,0-1.169,0.01-1.758c0.951-103.345,85.805-187.619,189.367-187.619
	h92.383c3.309,0,6.577,0.176,9.804,0.517c5.709,3.671,10.993,7.932,15.771,12.71C364.97,264.068,375.518,287.512,375.518,313.294z"
	/>
<path style="fill:#781900;" d="M230.021,233.849h92.383c3.309,0,6.577,0.176,9.804,0.517c-14.592-9.38-31.915-14.83-50.457-14.83
	h-92.383C85.215,219.536,0,304.751,0,408.903v0.041c0,25.937,21.221,47.158,47.158,47.158h6.888h178.664
	c35.431,0,67.955-13.072,92.982-34.634H55.521c-8.258,0-14.839-7.052-14.098-15.276C50.108,309.942,131.61,233.849,230.021,233.849z
	"/>
<path style="fill:#D8D7DA;" d="M505.565,136.926c-8.677,7.994-22.142,6.867-29.391-2.182l-0.021-0.021
	c-0.869-1.076-2.472-1.262-3.558-0.383l-80.262,64.377l-4.509-5.616l-12.42-15.482l80.272-64.388
	c1.086-0.869,1.251-2.472,0.383-3.558l-0.01-0.021c-7.26-9.039-5.44-22.431,4.25-29.164c8.17-5.667,19.463-4.437,26.216,2.865
	c3.899,4.219,5.636,9.566,5.347,14.799c-0.114,2.017,1.313,3.795,3.32,4.126c0.589,0.103,1.179,0.228,1.768,0.372
	c4.488,1.169,8.615,3.888,11.51,8.067C514.118,118.89,512.877,130.184,505.565,136.926z"/>
<path style="fill:#EBE5DD;" d="M505.565,136.926c-8.677,7.994-22.142,6.867-29.391-2.182l-0.021-0.021
	c-0.869-1.076-2.472-1.262-3.558-0.383l-80.262,64.377l-4.509-5.616l109.126-90.449c4.488,1.169,8.615,3.888,11.51,8.067
	C514.118,118.89,512.877,130.184,505.565,136.926z"/>
<path style="fill:#781900;" d="M416.161,198.015c0,6.226-1.396,12.493-4.25,18.336l-47.241,96.799
	c-18.698,26.289-49.816,41.367-81.772,38.688c-10.993-0.92-21.718-3.733-31.646-8.397c-11.438-5.367-21.8-13.186-30.239-23.393
	c-8.625-10.445-14.427-22.297-17.529-34.707c-11.169-44.738,14.427-91.028,58.203-107.057l105.454-20.415
	c15.13-2.937,30.529,2.658,40.053,14.54c1.489,1.851,2.792,3.816,3.92,5.853C414.455,184.354,416.161,191.158,416.161,198.015z"/>
<path style="fill:#AB2300;" d="M416.161,198.015c0,6.226-1.396,12.493-4.25,18.336l-47.241,96.799
	c-18.698,26.289-49.816,41.367-81.772,38.688c-10.993-0.92-21.718-3.733-31.646-8.397c-0.92-1.003-1.82-2.037-2.699-3.103
	c-8.635-10.445-14.437-22.297-17.54-34.707c-11.169-44.738,14.437-91.028,58.203-107.057l105.455-20.415
	c5.543-1.076,11.128-1.003,16.443,0.103C414.455,184.354,416.161,191.158,416.161,198.015z"/>
<g>
</g>
<g>
</g>
<g>
</g>
<g>
</g>
<g>
</g>
<g>
</g>
<g>
</g>
<g>
</g>
<g>
</g>
<g>
</g>
<g>
</g>
<g>
</g>
<g>
</g>
<g>
</g>
<g>
</g>
</svg>
