<?xml version="1.0" encoding="iso-8859-1"?>
<!-- Generator: Adobe Illustrator 19.0.0, SVG Export Plug-In . SVG Version: 6.00 Build 0)  -->
<svg version="1.1" id="Capa_1" xmlns="http://www.w3.org/2000/svg" xmlns:xlink="http://www.w3.org/1999/xlink" x="0px" y="0px"
	 viewBox="0 0 512 512" style="enable-background:new 0 0 512 512;" xml:space="preserve">
<path style="fill:#CD2A00;" d="M220.353,37.159H68.329c-23.453,0-42.533,19.08-42.533,42.533c0,10.6,3.906,20.298,10.343,27.753
	C15.649,110.942,0,128.814,0,150.284v40.787c0,4.255,3.449,7.705,7.705,7.705s7.705-3.45,7.705-7.705v-40.787
	c0-15.472,12.587-28.06,28.06-28.06h24.859h30.566c4.256,0,7.705-3.45,7.705-7.705s-3.449-7.705-7.705-7.705H68.329
	c-14.956,0-27.122-12.167-27.122-27.122S53.375,52.57,68.329,52.57h152.024c4.256,0,7.705-3.45,7.705-7.705
	S224.609,37.159,220.353,37.159z"/>
<path style="fill:#FF5023;" d="M481.047,357.37c-4.633,6.236-9.719,12.123-15.205,17.609
	c-28.489,28.489-67.776,46.171-110.998,46.171h-37.479l56.814-47.65c5.64-4.726,10.222-10.192,13.736-16.13
	c10.818-18.277,11.558-40.951,2.281-59.578c-4.253-8.517-10.582-16.192-19.007-22.212c-7.757-5.538-16.9-9.39-27.102-10.89
	c-3.113-0.462-6.318-0.699-9.616-0.699H231.886c-2.332,0-4.654-0.051-6.966-0.154c-40.623-1.767-77.249-18.965-104.156-45.883
	c-3.257-3.247-6.359-6.647-9.308-10.171c-22.233-26.476-35.886-60.4-36.698-97.457c-0.021-0.853,0.298-1.695,0.863-2.332
	c0.647-0.74,1.582-1.161,2.558-1.161h275.236c58.304,0,109.766,31.489,137.31,78.554c13.13,22.428,20.835,48.4,21.257,76.18
	C512.526,297.382,500.927,330.607,481.047,357.37z"/>
<circle style="fill:#CD2A00;" cx="150.758" cy="152.279" r="15.452"/>
<g>
	<path style="fill:#FF6243;" d="M351.289,106.833l-7.202,157.857c-3.113-0.462-6.318-0.699-9.616-0.699H231.886
		c-2.332,0-4.654-0.051-6.966-0.154V106.833L351.289,106.833L351.289,106.833z"/>
	<path style="fill:#FF6243;" d="M481.047,357.37h-93.132c10.818-18.277,11.558-40.951,2.281-59.578l1.295-1.202l99.225-111.183
		l0.01-0.021c13.13,22.428,20.835,48.4,21.257,76.18C512.526,297.382,500.927,330.607,481.047,357.37z"/>
</g>
<path style="fill:#FF3501;" d="M459.164,288.834c0,15.709-4.541,31.099-13.192,44.219c-14.589,22.12-42.852,56.424-92.341,88.098
	h-36.267l56.814-47.65c5.64-4.726,10.222-10.192,13.736-16.13c10.818-18.277,11.558-40.951,2.281-59.578
	c-4.253-8.517-10.582-16.192-19.007-22.212c-7.757-5.538-16.9-9.39-27.102-10.89c-3.113-0.462-6.318-0.699-9.616-0.699H231.886
	c-2.332,0-4.654-0.051-6.966-0.154c-40.623-1.767-77.249-18.965-104.156-45.883c-3.257-3.247-6.359-6.647-9.308-10.171
	c62.629-0.699,185.905-0.123,267.561,0.39c22.181,0.144,42.215,9.226,56.701,23.815
	C450.215,246.567,459.164,266.663,459.164,288.834z"/>
<g>
	<path style="fill:#FF5023;" d="M224.921,263.838c2.312,0.103,4.633,0.154,6.966,0.154H334.47c3.298,0,6.503,0.236,9.616,0.699
		l2.589-56.711c-38.023-0.205-81.143-0.401-121.755-0.483L224.921,263.838L224.921,263.838z"/>
	<path style="fill:#FF5023;" d="M442.376,239.571l-50.886,57.02l-1.294,1.202c9.277,18.626,8.538,41.301-2.281,59.578h39.749
		c7.644-9.02,13.674-17.281,18.308-24.318c8.651-13.12,13.192-28.51,13.192-44.219C459.164,270.289,452.907,253.194,442.376,239.571
		z"/>
</g>
<path style="fill:#CD2A00;" d="M345.945,376.342c-21.127-3.51-60.156-2.241-106.063,36.036c-3.718,3.101-1.675,9.156,3.162,9.35
	l64,2.567c0,0-15.564,5.348-47.122,41.455c-2.938,3.363-0.668,8.638,3.795,8.788c19.889,0.671,60.318,2.852,101.02-29.115
	c8.744-6.868,12.343-18.428,9.044-29.046l-6.699-21.557C364.083,385.168,355.918,377.998,345.945,376.342z"/>
<g>
</g>
<g>
</g>
<g>
</g>
<g>
</g>
<g>
</g>
<g>
</g>
<g>
</g>
<g>
</g>
<g>
</g>
<g>
</g>
<g>
</g>
<g>
</g>
<g>
</g>
<g>
</g>
<g>
</g>
</svg>
