<?xml version="1.0" encoding="iso-8859-1"?>
<!-- Generator: Adobe Illustrator 19.0.0, SVG Export Plug-In . SVG Version: 6.00 Build 0)  -->
<svg version="1.1" id="Capa_1" xmlns="http://www.w3.org/2000/svg" xmlns:xlink="http://www.w3.org/1999/xlink" x="0px" y="0px"
	 viewBox="0 0 512 512" style="enable-background:new 0 0 512 512;" xml:space="preserve">
<path style="fill:#A5001E;" d="M57.836,267.398l-27.067,15.628l-11.036,6.371C10.963,294.454,0,288.124,0,277.999v-43.997
	c0-10.125,10.963-16.455,19.734-11.398l10.27,5.926l27.832,16.072C66.606,249.67,66.606,262.33,57.836,267.398z"/>
<path style="fill:#830018;" d="M57.836,267.398l-27.067,15.628c-4.675-8.243-7.343-17.779-7.343-27.946
	c0-9.588,2.379-18.627,6.578-26.549l27.832,16.072C66.606,249.67,66.606,262.33,57.836,267.398z"/>
<path style="fill:#A5001E;" d="M304.6,142.997v226.006H161.603C99.186,369.003,48.59,318.407,48.59,256
	s50.596-113.003,113.014-113.003H304.6z"/>
<path style="fill:#C70024;" d="M304.6,142.997v226.006H196.582c-62.407,0-113.003-50.596-113.003-113.003
	s50.596-113.003,113.003-113.003L304.6,142.997L304.6,142.997z"/>
<g>
	<path style="fill:#720015;" d="M157.032,198.319c0,4.282-3.465,7.757-7.757,7.757H60.194c2.679-5.43,5.771-10.611,9.257-15.514
		h79.824C153.567,190.562,157.032,194.027,157.032,198.319z"/>
	<path style="fill:#720015;" d="M155.997,304.093c0,4.282-3.465,7.757-7.757,7.757H63.348c-2.834-4.944-5.285-10.136-7.333-15.514
		h92.225C152.533,296.336,155.997,299.811,155.997,304.093z"/>
	<path style="fill:#720015;" d="M151.464,231.522c0,4.284,3.473,7.757,7.757,7.757h58.275c4.284,0,7.757-3.473,7.757-7.757
		s-3.473-7.757-7.757-7.757h-58.275C154.937,223.765,151.464,227.238,151.464,231.522z"/>
	<path style="fill:#720015;" d="M135.953,231.519c0,4.292-3.475,7.757-7.757,7.757H49.82c0.786-5.306,1.944-10.487,3.444-15.514
		h74.932C132.478,223.762,135.953,227.237,135.953,231.519z"/>
	<path style="fill:#720015;" d="M177.975,337.965c0,4.282-3.465,7.757-7.757,7.757H92.897c-6.009-4.602-11.553-9.805-16.527-15.514
		h93.849C174.511,330.208,177.975,333.683,177.975,337.965z"/>
	<path style="fill:#720015;" d="M251.713,330.208h-50.464c-4.284,0-7.757,3.473-7.757,7.757s3.473,7.757,7.757,7.757h50.464
		c4.284,0,7.757-3.473,7.757-7.757S255.997,330.208,251.713,330.208z"/>
	<path style="fill:#720015;" d="M225.254,266.343c0-4.284-3.473-7.757-7.757-7.757H99.633c-4.284,0-7.757,3.473-7.757,7.757
		s3.473,7.757,7.757,7.757h117.863C221.78,274.1,225.254,270.626,225.254,266.343z"/>
	<path style="fill:#720015;" d="M252.122,160.331H138.935c-4.284,0-7.757,3.473-7.757,7.757s3.473,7.757,7.757,7.757h113.186
		c4.284,0,7.757-3.473,7.757-7.757S256.405,160.331,252.122,160.331z"/>
</g>
<path style="fill:#FF0C38;" d="M417.603,256c0,50.958-33.738,94.045-80.103,108.132c-10.405,3.165-21.451,4.871-32.9,4.871
	c-62.407,0-113.003-50.596-113.003-113.003S242.193,142.997,304.6,142.997c11.449,0,22.495,1.707,32.9,4.871
	C383.866,161.955,417.603,205.042,417.603,256z"/>
<path style="fill:#C70024;" d="M417.603,256c0,50.958-33.738,94.045-80.103,108.132c-46.366-14.087-80.103-57.174-80.103-108.132
	s33.738-94.045,80.103-108.132C383.866,161.955,417.603,205.042,417.603,256z"/>
<circle style="fill:#FF0C38;" cx="398.997" cy="256" r="113.003"/>
<g>
	<circle style="fill:#A5001E;" cx="218.705" cy="264.026" r="7.115"/>
	<circle style="fill:#A5001E;" cx="255.803" cy="191.1" r="9.05"/>
	<circle style="fill:#A5001E;" cx="229.43" cy="224.403" r="9.05"/>
	<circle style="fill:#A5001E;" cx="264.853" cy="273.076" r="9.05"/>
	<circle style="fill:#A5001E;" cx="300.97" cy="168.088" r="7.115"/>
	<circle style="fill:#A5001E;" cx="262.919" cy="231.519" r="7.115"/>
	<circle style="fill:#A5001E;" cx="238.873" cy="308.096" r="13.059"/>
	<circle style="fill:#A5001E;" cx="285.983" cy="336.714" r="10.566"/>
	<circle style="fill:#A5001E;" cx="352.31" cy="191.1" r="9.05"/>
	<circle style="fill:#A5001E;" cx="325.937" cy="224.403" r="9.05"/>
	<circle style="fill:#A5001E;" cx="361.36" cy="273.076" r="9.05"/>
	<circle style="fill:#A5001E;" cx="397.466" cy="168.088" r="7.115"/>
	<circle style="fill:#A5001E;" cx="359.416" cy="231.519" r="7.115"/>
	<circle style="fill:#A5001E;" cx="387.878" cy="215.354" r="7.115"/>
	<circle style="fill:#A5001E;" cx="418.813" cy="215.354" r="7.115"/>
	<circle style="fill:#A5001E;" cx="315.201" cy="264.026" r="7.115"/>
	<circle style="fill:#A5001E;" cx="335.369" cy="308.096" r="13.059"/>
	<circle style="fill:#A5001E;" cx="454.764" cy="324.261" r="9.05"/>
	<circle style="fill:#A5001E;" cx="481.138" cy="290.958" r="9.05"/>
	<circle style="fill:#A5001E;" cx="445.714" cy="242.286" r="9.05"/>
	<circle style="fill:#A5001E;" cx="411.697" cy="345.081" r="7.115"/>
	<circle style="fill:#A5001E;" cx="436.664" cy="287.928" r="7.115"/>
	<circle style="fill:#A5001E;" cx="373.647" cy="315.211" r="7.115"/>
	<circle style="fill:#A5001E;" cx="481.138" cy="256" r="7.115"/>
	<circle style="fill:#A5001E;" cx="398.997" cy="295.043" r="7.115"/>
	<circle style="fill:#A5001E;" cx="380.763" cy="345.081" r="7.115"/>
	<circle style="fill:#A5001E;" cx="471.705" cy="207.266" r="13.059"/>
	<circle style="fill:#A5001E;" cx="390.35" cy="258.451" r="13.059"/>
	<circle style="fill:#A5001E;" cx="435.154" cy="182.05" r="10.566"/>
</g>
<g>
</g>
<g>
</g>
<g>
</g>
<g>
</g>
<g>
</g>
<g>
</g>
<g>
</g>
<g>
</g>
<g>
</g>
<g>
</g>
<g>
</g>
<g>
</g>
<g>
</g>
<g>
</g>
<g>
</g>
</svg>
