<?xml version="1.0" encoding="iso-8859-1"?>
<!-- Generator: Adobe Illustrator 19.0.0, SVG Export Plug-In . SVG Version: 6.00 Build 0)  -->
<svg version="1.1" id="Capa_1" xmlns="http://www.w3.org/2000/svg" xmlns:xlink="http://www.w3.org/1999/xlink" x="0px" y="0px"
	 viewBox="0 0 512 512" style="enable-background:new 0 0 512 512;" xml:space="preserve">
<path style="fill:#C9EEAE;" d="M334.989,363.314c-14.222,12.376-65.046,41.694-68.211,136.567
	C266.553,506.629,261.051,512,254.3,512h-40.564c-6.674,0-12.163-5.251-12.467-11.918c-4.752-104.185-82.869-175.33-95.09-185.01
	c-2.108-1.674-2.883-4.516-1.953-7.038l11.999-32.503c1.633-4.444,7.431-5.519,10.552-1.953l85.458,84.393l-15.13-139.953
	c-0.816-3.876,2.139-7.534,6.108-7.534H264.9c3.969,0,6.935,3.658,6.118,7.534l-15.13,139.953l60.861-38.114
	c3.121-3.555,8.919-2.48,10.552,1.964l10.831,29.33C339.723,355.46,338.462,360.296,334.989,363.314z"/>
<path style="fill:#A4E276;" d="M242.442,512h-28.707c-6.674,0-12.163-5.251-12.467-11.918
	c-4.752-104.185-82.869-175.33-95.09-185.01c-2.108-1.674-2.883-4.516-1.953-7.038l11.999-32.503
	c1.633-4.444,7.431-5.519,10.552-1.953l85.458,84.393l-15.13-139.953c-0.816-3.876,2.139-7.534,6.108-7.534H235.9
	C237.76,300.334,240.788,437.736,242.442,512z"/>
<g>
	<path style="fill:#6DC82A;" d="M363.658,81.25c-1.618,0.396-3.172,0.92-4.658,1.549c-0.195-0.4-0.385-0.803-0.585-1.199
		c4.176-6.698,5.76-15.005,3.737-23.278c-3.983-16.291-20.419-26.268-36.71-22.285c-2.377,0.581-4.616,1.434-6.7,2.507
		c-2.168-1.33-4.383-2.582-6.639-3.756c0.468-3.61,0.299-7.363-0.618-11.111c-3.983-16.291-20.419-26.268-36.71-22.285
		c-5.657,1.383-10.55,4.27-14.364,8.128c-7.254-7.664-18.299-11.332-29.283-8.646c-9.474,2.316-16.805,8.848-20.504,17.109
		c-6.198-3.084-13.474-4.082-20.725-2.31c-16.291,3.983-26.268,20.419-22.285,36.71c0.052,0.211,0.114,0.415,0.169,0.624
		c-5.503-2.051-11.659-2.533-17.794-1.033c-16.291,3.983-26.268,20.419-22.285,36.71c1.053,4.305,2.975,8.169,5.535,11.451
		c-21.89,11.955-33.927,37.511-27.722,62.887c5.076,20.761,21.042,35.999,40.336,41.132c0.125,1.641,0.382,3.293,0.786,4.944
		c3.983,16.291,20.418,26.268,36.71,22.285c7.934-1.94,14.363-6.837,18.419-13.229c0.498,0.344,0.998,0.684,1.503,1.02
		c-2.834,6.052-3.704,13.072-1.994,20.069c3.983,16.291,20.419,26.268,36.71,22.285c11.786-2.882,20.263-12.283,22.544-23.431
		c7.167,8.837,19.026,13.266,30.812,10.384c12.136-2.968,20.765-12.848,22.73-24.429c0.197-0.107,0.394-0.217,0.591-0.326
		c5.378,14.097,20.529,22.318,35.565,18.642c16.291-3.983,26.268-20.419,22.285-36.71c-1.821-7.446-6.247-13.566-12.069-17.644
		c15.204-4.722,24.3-20.525,20.468-36.199c-1.015-4.148-2.84-7.885-5.261-11.088c0.81-0.13,1.622-0.284,2.432-0.483
		c16.291-3.983,26.268-20.419,22.285-36.71C396.384,87.244,379.949,77.267,363.658,81.25z"/>
	<path style="fill:#6DC82A;" d="M489.594,312.795c0-20.228-16.398-36.627-36.627-36.627c-1.234,0-2.454,0.063-3.657,0.183
		c0.121-1.104,0.188-2.223,0.188-3.359c0-16.836-13.648-30.484-30.484-30.484c-12.235,0-22.781,7.212-27.634,17.613
		c-4.853-10.402-15.399-17.613-27.635-17.613c-16.836,0-30.484,13.648-30.484,30.484c0,3.265,0.519,6.408,1.469,9.356
		c-0.487-0.024-0.977-0.037-1.469-0.037c-16.836,0-30.484,13.648-30.484,30.484s13.648,30.484,30.484,30.484
		c0.378,0,0.753-0.014,1.129-0.029c-4.293,6-6.828,13.344-6.828,21.284c0,20.228,16.398,36.626,36.627,36.626
		c15.45,0,28.656-9.571,34.037-23.104c6.06,11.866,18.392,19.998,32.631,19.998c20.228,0,36.627-16.398,36.627-36.627
		c0-4.939-0.984-9.647-2.756-13.948C479.184,342.582,489.594,328.909,489.594,312.795z"/>
</g>
<g>
	<path style="fill:#47821C;" d="M252.873,92.531c-17.096,0-31.003-13.907-31.003-31.003c0-4.282,3.469-7.751,7.751-7.751
		c4.282,0,7.751,3.469,7.751,7.751c0,8.548,6.954,15.501,15.501,15.501c8.547,0,15.501-6.954,15.501-15.501
		c0-4.282,3.469-7.751,7.751-7.751s7.751,3.469,7.751,7.751C283.876,78.623,269.968,92.531,252.873,92.531z"/>
	<path style="fill:#47821C;" d="M190.798,140.181c-13.15,0-23.847-10.699-23.847-23.847c0-4.282,3.469-7.751,7.751-7.751
		c4.282,0,7.751,3.469,7.751,7.751c0,4.602,3.743,8.345,8.345,8.345c4.602,0,8.345-3.743,8.345-8.345
		c0-4.282,3.469-7.751,7.751-7.751s7.751,3.469,7.751,7.751C214.646,129.483,203.947,140.181,190.798,140.181z"/>
	<path style="fill:#47821C;" d="M302.776,187.588c-13.151,0-23.848-10.699-23.848-23.847c0-4.282,3.469-7.751,7.751-7.751
		s7.751,3.469,7.751,7.751c0,4.602,3.744,8.345,8.346,8.345s8.345-3.743,8.345-8.345c0-4.282,3.469-7.751,7.751-7.751
		s7.751,3.469,7.751,7.751C326.623,176.89,315.926,187.588,302.776,187.588z"/>
</g>
<path style="fill:#6DC82A;" d="M186.168,287.97c0-17.732-14.375-32.106-32.106-32.106c-1.082,0-2.152,0.055-3.206,0.16
	c0.106-0.967,0.165-1.949,0.165-2.944c0-14.758-11.963-26.721-26.721-26.721c-10.725,0-19.969,6.322-24.224,15.439
	c-4.254-9.118-13.498-15.439-24.224-15.439c-14.758,0-26.721,11.963-26.721,26.721c0,2.862,0.455,5.616,1.288,8.202
	c-0.427-0.021-0.856-0.033-1.288-0.033c-14.758,0-26.721,11.963-26.721,26.721s11.963,26.721,26.721,26.721
	c0.332,0,0.66-0.013,0.989-0.025c-3.764,5.259-5.986,11.697-5.986,18.657c0,17.731,14.375,32.106,32.106,32.106
	c13.544,0,25.12-8.39,29.836-20.252c5.312,10.402,16.122,17.53,28.603,17.53c17.731,0,32.106-14.375,32.106-32.106
	c0-4.33-0.862-8.457-2.416-12.226C177.044,314.08,186.168,302.094,186.168,287.97z"/>
<path style="fill:#5EAC24;" d="M87.535,333.323c0-14.878,8.184-18.633,5.002-18.633c-16.56,0-29.607-15.056-26.174-32.23
	c2.488-12.445,13.483-21.211,26.174-21.211c0.035,0,0.069,0,0.104,0c0.584,0.002,0.993-0.547,0.84-1.11
	c-0.612-2.249-0.944-4.618-0.944-7.055c0-5.818,1.86-11.203,5.012-15.585c-5.058-7.042-13.457-11.518-22.862-11.116
	c-12.467,0.533-23.078,9.839-25.169,22.141c-0.759,4.465-0.372,8.814,0.905,12.755c-0.388-0.019-0.766-0.029-1.151-0.03
	c-12.678-0.064-23.73,8.635-26.282,21.053c-3.545,17.239,9.532,32.387,26.142,32.387c0.331,0,0.661-0.01,0.992-0.021
	c-4.426,6.189-6.735,14.011-5.781,22.387c1.702,14.936,13.853,26.842,28.82,28.234c9.572,0.89,18.371-2.423,24.78-8.31
	C91.545,351.119,87.535,342.686,87.535,333.323z"/>
<g>
	<path style="fill:#47821C;" d="M81.882,301.01c-13.15,0-23.847-10.699-23.847-23.847c0-4.282,3.469-7.751,7.751-7.751
		s7.751,3.469,7.751,7.751c0,4.602,3.743,8.345,8.345,8.345c4.602,0,8.345-3.743,8.345-8.345c0-4.282,3.469-7.751,7.751-7.751
		s7.751,3.469,7.751,7.751C105.729,290.313,95.031,301.01,81.882,301.01z"/>
	<path style="fill:#47821C;" d="M123.036,337.634c-13.15,0-23.847-10.698-23.847-23.847c0-4.282,3.469-7.751,7.751-7.751
		c4.282,0,7.751,3.469,7.751,7.751c0,4.602,3.743,8.345,8.345,8.345s8.345-3.743,8.345-8.345c0-4.282,3.469-7.751,7.751-7.751
		c4.282,0,7.751,3.469,7.751,7.751C146.884,326.936,136.186,337.634,123.036,337.634z"/>
</g>
<g>
	<path style="fill:#5EAC24;" d="M249.319,2.064c-5.605-2.182-11.912-2.723-18.192-1.187c-7.558,1.846-13.749,6.374-17.823,12.321
		c-1.757,2.564-5.005,3.576-7.998,2.734c-4.869-1.371-10.145-1.546-15.405-0.255c-16.298,3.979-26.271,20.421-22.292,36.709
		c0.052,0.207,0.114,0.413,0.176,0.62c-5.508-2.046-11.658-2.532-17.796-1.023c-16.288,3.979-26.271,20.411-22.282,36.709
		c0.513,2.09,1.23,4.077,2.125,5.946c1.539,3.211,0.559,7.036-2.337,9.107c-18.192,13.009-27.612,36.22-21.977,59.286
		c4.974,20.341,20.413,35.389,39.193,40.806c0.686,0.197,1.173,0.785,1.256,1.494c0.008,0.071,0.017,0.143,0.026,0.214
		c2.082,17.037,18.254,29.165,35.175,26.291c2.091-0.356,4.092-0.913,5.985-1.647c4.441-1.723,5.953-7.133,3.249-11.055
		c-2.04-2.959-3.586-6.333-4.489-10.031c-0.076-0.312-0.147-0.624-0.213-0.936c-0.516-2.446-2.291-4.443-4.653-5.266
		c-17.44-6.08-31.545-20.6-36.257-39.87c-5.634-23.066,3.785-46.276,21.978-59.286c2.896-2.071,3.876-5.896,2.337-9.107
		c-0.895-1.869-1.613-3.856-2.125-5.946c-3.989-16.298,5.994-32.73,22.282-36.709l8.271,0.189c4.497,0.103,8.359-3.388,8.488-7.884
		c0.383-13.324,9.573-25.295,23.154-28.611c5.334-1.308,10.685-1.111,15.611,0.314c2.928,0.846,6.065-0.282,7.793-2.793l0.076-0.112
		C255.33,9.192,253.721,3.777,249.319,2.064z"/>
	<path style="fill:#5EAC24;" d="M370.965,364.534l2.93-10.939c1.355-5.059-1.593-10.175-6.578-11.777
		c-12.263-3.944-21.135-15.443-21.135-29.019c0-14.498,10.116-26.634,23.675-29.726c3.94-0.898,6.802-4.294,6.802-8.335v-1.749
		c0-8.34,3.348-15.895,8.785-21.393c-6.066-6.157-14.722-9.739-24.204-8.984c-14.525,1.156-26.355,12.731-27.817,27.229
		c-0.443,4.399,0.056,8.617,1.308,12.511c-0.486-0.031-0.982-0.041-1.468-0.041c-16.835,0-30.487,13.652-30.487,30.487
		c0,16.835,13.652,30.477,30.487,30.477c0.372,0,0.754-0.01,1.126-0.021c-4.75,6.622-7.343,14.899-6.747,23.796
		c1.221,18.209,16.042,32.935,34.258,34.04c8.995,0.546,17.356-2.159,23.987-7.062C376.835,387.363,370.965,376.636,370.965,364.534
		z"/>
</g>
<g>
	<path style="fill:#47821C;" d="M385.146,311.693c-13.15,0-23.847-10.699-23.847-23.847c0-4.282,3.469-7.751,7.751-7.751
		s7.751,3.469,7.751,7.751c0,4.602,3.743,8.345,8.345,8.345s8.345-3.743,8.345-8.345c0-4.282,3.469-7.751,7.751-7.751
		s7.751,3.469,7.751,7.751C408.994,300.995,398.296,311.693,385.146,311.693z"/>
	<path style="fill:#47821C;" d="M407.44,361.78c-13.151,0-23.848-10.699-23.848-23.847c0-4.282,3.469-7.751,7.751-7.751
		c4.282,0,7.751,3.469,7.751,7.751c0,4.602,3.744,8.345,8.346,8.345s8.345-3.743,8.345-8.345c0-4.282,3.469-7.751,7.751-7.751
		s7.751,3.469,7.751,7.751C431.287,351.081,420.589,361.78,407.44,361.78z"/>
</g>
<g>
</g>
<g>
</g>
<g>
</g>
<g>
</g>
<g>
</g>
<g>
</g>
<g>
</g>
<g>
</g>
<g>
</g>
<g>
</g>
<g>
</g>
<g>
</g>
<g>
</g>
<g>
</g>
<g>
</g>
</svg>
