<?xml version="1.0" encoding="iso-8859-1"?>
<!-- Generator: Adobe Illustrator 19.0.0, SVG Export Plug-In . SVG Version: 6.00 Build 0)  -->
<svg version="1.1" id="Capa_1" xmlns="http://www.w3.org/2000/svg" xmlns:xlink="http://www.w3.org/1999/xlink" x="0px" y="0px"
	 viewBox="0 0 512 512" style="enable-background:new 0 0 512 512;" xml:space="preserve">
<path style="fill:#A5001E;" d="M42.447,512c-11.056,0-18.674-11.284-14.337-21.454c7.395-17.336,22.412-24.124,22.412-51.693
	c0-36.574-26.429-36.574-26.429-73.147c0-36.571,26.429-36.571,26.429-73.144c0-36.57-26.429-36.57-26.429-73.142
	c0-36.569,26.429-36.569,26.429-73.138c0-36.57-26.429-36.57-26.429-73.141c0-31.989,20.22-35.997,25.288-60.973
	C50.829,5.035,57.25,0,64.53,0h161.052c11.056,0,18.675,11.285,14.337,21.455c-7.395,17.334-22.411,24.121-22.411,51.687
	c0,36.57,26.429,36.57,26.429,73.141c0,36.569-26.429,36.569-26.429,73.138c0,36.57,26.429,36.57,26.429,73.142
	s-26.429,36.571-26.429,73.144c0,36.574,26.429,36.574,26.429,73.147c0,31.991-20.221,35.999-25.288,60.978
	c-1.447,7.133-7.87,12.169-15.149,12.169H42.447z"/>
<path style="fill:#FF728B;" d="M85.836,512c0-36.574,26.429-36.574,26.429-73.147s-26.429-36.573-26.429-73.147
	c0-36.571,26.429-36.571,26.429-73.144c0-36.57-26.429-36.57-26.429-73.142c0-36.569,26.429-36.569,26.429-73.138
	c0-36.57-26.429-36.57-26.429-73.141S112.264,36.571,112.264,0h66.008c0,36.57-26.429,36.57-26.429,73.142
	c0,36.57,26.429,36.57,26.429,73.141c0,36.569-26.429,36.569-26.429,73.138c0,36.57,26.429,36.57,26.429,73.142
	s-26.429,36.571-26.429,73.144c0,36.574,26.429,36.574,26.429,73.147S151.844,475.426,151.844,512H85.836z"/>
<path style="fill:#830018;" d="M97.801,0h-33.27C57.248,0,50.833,5.036,49.38,12.173c-5.068,24.973-25.287,28.985-25.287,60.97
	c0,36.571,26.425,36.571,26.425,73.143c0,36.561-26.425,36.561-26.425,73.132s26.425,36.571,26.425,73.143
	s-26.425,36.571-26.425,73.143s26.425,36.571,26.425,73.153c0,27.564-15.015,34.356-22.413,51.691
	C23.77,500.715,31.387,512,42.442,512h33.28c-11.065,0-18.683-11.285-14.336-21.452c7.387-17.335,22.403-24.127,22.403-51.691
	c0-36.582-26.425-36.582-26.425-73.153s26.425-36.571,26.425-73.143s-26.425-36.571-26.425-73.143s26.425-36.571,26.425-73.132
	c0-36.571-26.425-36.571-26.425-73.143c0-31.984,20.219-35.997,25.287-60.97C84.102,5.036,90.518,0,97.801,0z"/>
<path style="fill:#FF3F62;" d="M147.496,146.286c0,36.561-26.425,36.561-26.425,73.132s26.425,36.571,26.425,73.143
	s-26.425,36.571-26.425,73.143s26.425,36.571,26.425,73.153c0,36.571-26.425,36.571-26.425,73.143H85.837
	c0-36.571,26.425-36.571,26.425-73.143c0-36.582-26.425-36.582-26.425-73.153s26.425-36.571,26.425-73.143
	s-26.425-36.571-26.425-73.143s26.425-36.571,26.425-73.132c0-36.571-26.425-36.571-26.425-73.143S112.262,36.571,112.262,0h35.234
	c0,36.571-26.425,36.571-26.425,73.143S147.496,109.714,147.496,146.286z"/>
<path id="SVGCleanerId_0" style="fill:#C70024;" d="M243.94,292.561c0,36.571-26.436,36.571-26.436,73.143
	s26.436,36.571,26.436,73.153c0,31.984-20.229,35.997-25.287,60.97c-1.452,7.137-7.879,12.173-15.151,12.173h-1.191
	c-11.055,0-18.672-11.285-14.336-21.452c7.398-17.335,22.413-24.127,22.413-51.691c0-36.582-26.425-36.582-26.425-73.153
	s26.425-36.571,26.425-73.143s-26.425-36.571-26.425-73.143s26.425-36.571,26.425-73.132c0-36.571-26.425-36.571-26.425-73.143
	c0-31.984,20.219-35.997,25.287-60.97C210.702,5.036,217.118,0,224.401,0h1.181c11.055,0,18.672,11.285,14.336,21.452
	c-7.398,17.335-22.413,24.127-22.413,51.691c0,36.571,26.436,36.571,26.436,73.143c0,36.561-26.436,36.561-26.436,73.132
	S243.94,255.99,243.94,292.561z"/>
<g>
	<path id="SVGCleanerId_0_1_" style="fill:#C70024;" d="M243.94,292.561c0,36.571-26.436,36.571-26.436,73.143
		s26.436,36.571,26.436,73.153c0,31.984-20.229,35.997-25.287,60.97c-1.452,7.137-7.879,12.173-15.151,12.173h-1.191
		c-11.055,0-18.672-11.285-14.336-21.452c7.398-17.335,22.413-24.127,22.413-51.691c0-36.582-26.425-36.582-26.425-73.153
		s26.425-36.571,26.425-73.143s-26.425-36.571-26.425-73.143s26.425-36.571,26.425-73.132c0-36.571-26.425-36.571-26.425-73.143
		c0-31.984,20.219-35.997,25.287-60.97C210.702,5.036,217.118,0,224.401,0h1.181c11.055,0,18.672,11.285,14.336,21.452
		c-7.398,17.335-22.413,24.127-22.413,51.691c0,36.571,26.436,36.571,26.436,73.143c0,36.561-26.436,36.561-26.436,73.132
		S243.94,255.99,243.94,292.561z"/>
</g>
<path style="fill:#A5001E;" d="M286.412,512c-11.056,0-18.674-11.284-14.337-21.454c7.395-17.336,22.412-24.124,22.412-51.693
	c0-36.574-26.429-36.574-26.429-73.147c0-36.571,26.429-36.571,26.429-73.144c0-36.57-26.429-36.57-26.429-73.142
	c0-36.569,26.429-36.569,26.429-73.138c0-36.57-26.429-36.57-26.429-73.141c0-31.989,20.221-35.997,25.288-60.973
	C294.793,5.035,301.216,0,308.495,0h161.052c11.057,0,18.675,11.285,14.337,21.455c-7.395,17.334-22.411,24.121-22.411,51.687
	c0,36.57,26.429,36.57,26.429,73.141c0,36.569-26.429,36.569-26.429,73.138c0,36.57,26.429,36.57,26.429,73.142
	s-26.429,36.571-26.429,73.144c0,36.574,26.429,36.574,26.429,73.147c0,31.991-20.221,35.999-25.288,60.978
	c-1.447,7.133-7.87,12.169-15.149,12.169H286.412z"/>
<path style="fill:#FF728B;" d="M329.801,512c0-36.574,26.429-36.574,26.429-73.147s-26.429-36.573-26.429-73.147
	c0-36.571,26.429-36.571,26.429-73.144c0-36.57-26.429-36.57-26.429-73.142c0-36.569,26.429-36.569,26.429-73.138
	c0-36.57-26.429-36.57-26.429-73.141S356.229,36.571,356.229,0h66.008c0,36.57-26.429,36.57-26.429,73.142
	c0,36.57,26.429,36.57,26.429,73.141c0,36.569-26.429,36.569-26.429,73.138c0,36.57,26.429,36.57,26.429,73.142
	s-26.429,36.571-26.429,73.144c0,36.574,26.429,36.574,26.429,73.147S395.81,475.426,395.81,512H329.801z"/>
<path style="fill:#830018;" d="M341.767,0h-33.27c-7.283,0-13.699,5.036-15.151,12.173c-5.068,24.973-25.287,28.985-25.287,60.97
	c0,36.571,26.425,36.571,26.425,73.143c0,36.561-26.425,36.561-26.425,73.132s26.425,36.571,26.425,73.143
	s-26.425,36.571-26.425,73.143s26.425,36.571,26.425,73.153c0,27.564-15.015,34.356-22.413,51.691
	C267.736,500.715,275.353,512,286.408,512h33.28c-11.065,0-18.683-11.285-14.336-21.452c7.387-17.335,22.403-24.127,22.403-51.691
	c0-36.582-26.425-36.582-26.425-73.153s26.425-36.571,26.425-73.143s-26.425-36.571-26.425-73.143s26.425-36.571,26.425-73.132
	c0-36.571-26.425-36.571-26.425-73.143c0-31.984,20.219-35.997,25.287-60.97C328.068,5.036,334.484,0,341.767,0z"/>
<path style="fill:#FF3F62;" d="M391.462,146.286c0,36.561-26.425,36.561-26.425,73.132s26.425,36.571,26.425,73.143
	s-26.425,36.571-26.425,73.143s26.425,36.571,26.425,73.153c0,36.571-26.425,36.571-26.425,73.143h-35.234
	c0-36.571,26.425-36.571,26.425-73.143c0-36.582-26.425-36.582-26.425-73.153s26.425-36.571,26.425-73.143
	s-26.425-36.571-26.425-73.143s26.425-36.571,26.425-73.132c0-36.571-26.425-36.571-26.425-73.143S356.228,36.571,356.228,0h35.234
	c0,36.571-26.425,36.571-26.425,73.143S391.462,109.714,391.462,146.286z"/>
<path id="SVGCleanerId_1" style="fill:#C70024;" d="M487.906,292.561c0,36.571-26.436,36.571-26.436,73.143
	s26.436,36.571,26.436,73.153c0,31.984-20.229,35.997-25.287,60.97c-1.452,7.137-7.879,12.173-15.151,12.173h-1.191
	c-11.055,0-18.672-11.285-14.336-21.452c7.398-17.335,22.413-24.127,22.413-51.691c0-36.582-26.425-36.582-26.425-73.153
	s26.425-36.571,26.425-73.143s-26.425-36.571-26.425-73.143s26.425-36.571,26.425-73.132c0-36.571-26.425-36.571-26.425-73.143
	c0-31.984,20.219-35.997,25.287-60.97C454.668,5.036,461.084,0,468.367,0h1.181c11.055,0,18.672,11.285,14.336,21.452
	c-7.398,17.335-22.413,24.127-22.413,51.691c0,36.571,26.436,36.571,26.436,73.143c0,36.561-26.436,36.561-26.436,73.132
	S487.906,255.99,487.906,292.561z"/>
<g>
	<path id="SVGCleanerId_1_1_" style="fill:#C70024;" d="M487.906,292.561c0,36.571-26.436,36.571-26.436,73.143
		s26.436,36.571,26.436,73.153c0,31.984-20.229,35.997-25.287,60.97c-1.452,7.137-7.879,12.173-15.151,12.173h-1.191
		c-11.055,0-18.672-11.285-14.336-21.452c7.398-17.335,22.413-24.127,22.413-51.691c0-36.582-26.425-36.582-26.425-73.153
		s26.425-36.571,26.425-73.143s-26.425-36.571-26.425-73.143s26.425-36.571,26.425-73.132c0-36.571-26.425-36.571-26.425-73.143
		c0-31.984,20.219-35.997,25.287-60.97C454.668,5.036,461.084,0,468.367,0h1.181c11.055,0,18.672,11.285,14.336,21.452
		c-7.398,17.335-22.413,24.127-22.413,51.691c0,36.571,26.436,36.571,26.436,73.143c0,36.561-26.436,36.561-26.436,73.132
		S487.906,255.99,487.906,292.561z"/>
</g>
<g>
</g>
<g>
</g>
<g>
</g>
<g>
</g>
<g>
</g>
<g>
</g>
<g>
</g>
<g>
</g>
<g>
</g>
<g>
</g>
<g>
</g>
<g>
</g>
<g>
</g>
<g>
</g>
<g>
</g>
</svg>
