<?xml version="1.0" encoding="iso-8859-1"?>
<!-- Generator: Adobe Illustrator 19.0.0, SVG Export Plug-In . SVG Version: 6.00 Build 0)  -->
<svg version="1.1" id="Layer_1" xmlns="http://www.w3.org/2000/svg" xmlns:xlink="http://www.w3.org/1999/xlink" x="0px" y="0px"
	 viewBox="0 0 512 512" style="enable-background:new 0 0 512 512;" xml:space="preserve">
<path style="fill:#EF9325;" d="M470.747,38.653H319.414c-4.466,0-8.084,3.618-8.084,8.084v24.127c0,4.466,3.618,8.084,8.084,8.084
	h151.333c4.466,0,8.084-3.618,8.084-8.084V46.738C478.831,42.272,475.213,38.653,470.747,38.653z"/>
<path style="fill:#D88121;" d="M470.747,38.653h-32.481v40.295h32.481c4.466,0,8.084-3.618,8.084-8.084V46.738
	C478.831,42.272,475.213,38.653,470.747,38.653z"/>
<path style="fill:#BC6611;" d="M485.493,54.822H304.667c-4.466,0-8.084-3.618-8.084-8.084s3.618-8.084,8.084-8.084h180.827
	c4.466,0,8.084,3.618,8.084,8.084S489.959,54.822,485.493,54.822z"/>
<path style="fill:#F5BA3D;" d="M509.648,98.996l-30.8-30.975H311.311l-30.8,30.975c-1.506,1.514-2.352,3.565-2.352,5.7l0,0l0,0
	v22.719v8.084h8.084h17.542h19.797v13.317c-1.047,2.923-0.328,6.205,1.879,8.424l31.289,31.467v195.876
	c0,4.466,3.618,8.084,8.084,8.084h88.869c32.144,0,58.295-26.151,58.295-58.295V104.696C512,102.561,511.155,100.512,509.648,98.996
	z"/>
<g>
	<path style="fill:#EF9325;" d="M509.648,98.996l-30.8-30.975h-40.583l30.8,30.975c1.506,1.514,2.352,3.565,2.352,5.7v229.678
		c0,32.144-26.151,58.295-58.295,58.295h40.583c32.144,0,58.295-26.151,58.295-58.295V104.696
		C512,102.561,511.155,100.512,509.648,98.996z"/>
	<path style="fill:#EF9325;" d="M192.586,38.653H41.252c-4.465,0-8.084,3.618-8.084,8.084v24.127c0,4.466,3.62,8.084,8.084,8.084
		h151.334c4.465,0,8.084-3.618,8.084-8.084V46.738C200.671,42.272,197.051,38.653,192.586,38.653z"/>
</g>
<path style="fill:#D88121;" d="M192.586,38.653h-32.782v40.295h32.782c4.465,0,8.084-3.618,8.084-8.084V46.738
	C200.671,42.272,197.051,38.653,192.586,38.653z"/>
<path style="fill:#BC6611;" d="M207.333,54.822H26.507c-4.465,0-8.084-3.618-8.084-8.084s3.62-8.084,8.084-8.084h180.827
	c4.465,0,8.084,3.618,8.084,8.084S211.798,54.822,207.333,54.822z"/>
<path style="fill:#F5BA3D;" d="M233.838,104.696c0-2.135-0.845-4.185-2.352-5.7l-30.8-30.975H33.151L2.352,98.996
	C0.845,100.512,0,102.561,0,104.696v229.678c0,32.144,26.151,58.295,58.295,58.295h88.869c4.465,0,8.084-3.618,8.084-8.084V188.709
	l31.288-31.467c2.205-2.218,1.88-4.784,1.88-8.422V135.5h19.797h17.542h8.084v-8.084V104.696L233.838,104.696L233.838,104.696z"/>
<g>
	<path style="fill:#EF9325;" d="M188.417,135.499h-3.545H167.33h-19.797v13.321c0,2.922,0.327,6.204-1.88,8.422l-31.288,31.467
		v195.876c0,4.466-3.62,8.084-8.084,8.084h40.883c4.465,0,8.084-3.618,8.084-8.084V188.709l31.288-31.467
		c2.205-2.218,1.88-5.145,1.88-8.422L188.417,135.499L188.417,135.499z"/>
	<path style="fill:#EF9325;" d="M231.488,98.996l-30.8-30.975h-40.883l30.8,30.975c1.506,1.514,2.352,3.565,2.352,5.7l0,0v22.719
		v8.084h15.258h17.542h8.084v-8.084v-22.719l0,0C233.838,102.561,232.993,100.51,231.488,98.996z"/>
</g>
<path style="fill:#2975C1;" d="M503.916,96.612h-217.67c-4.466,0-8.084,3.618-8.084,8.084v1.769v20.95v8.084h8.084h10.338h27v13.317
	c-1.048,2.923-0.328,6.205,1.879,8.424l31.289,31.467v149.948c0,4.466,3.618,8.084,8.084,8.084h139.08
	c4.466,0,8.084-3.618,8.084-8.084V104.696C512,100.231,508.382,96.612,503.916,96.612z"/>
<path style="fill:#06498C;" d="M395.08,156.663c-15.522,0-30.571,5.558-42.376,15.649c-1.71,1.462-2.732,3.571-2.824,5.817
	c-0.091,2.248,0.759,4.432,2.345,6.028l4.526,4.552v81.723c0,2.787,1.436,5.379,3.8,6.855c10.354,6.47,22.295,9.89,34.528,9.89
	c35.983,0,65.258-29.273,65.258-65.257S431.063,156.663,395.08,156.663z"/>
<path style="fill:#2975C1;" d="M233.838,104.696c0-4.465-3.62-8.084-8.084-8.084H8.084C3.62,96.612,0,100.23,0,104.696v233.961
	c0,4.466,3.62,8.084,8.084,8.084h139.081c4.465,0,8.084-3.618,8.084-8.084V188.709l31.288-31.467c2.205-2.218,1.88-5.143,1.88-8.422
	V135.5h2.326h35.011h8.084v-8.084L233.838,104.696L233.838,104.696L233.838,104.696z"/>
<g>
	<path style="fill:#06498C;" d="M233.838,104.696L233.838,104.696c0-4.466-3.62-8.084-8.084-8.084h-10.338h-27.183l2.37,2.384
		c1.506,1.514,2.352,3.565,2.352,5.7l0,0v22.719v8.084h15.258h7.204h10.338h8.084v-8.084L233.838,104.696L233.838,104.696z"/>
	<path style="fill:#06498C;" d="M188.417,135.499h-3.545H167.33h-19.797v13.321c0,3.636,0.327,6.204-1.88,8.422l-31.288,31.467
		V346.74h32.799c4.465,0,8.084-3.618,8.084-8.084V188.709l31.288-31.467c2.205-2.218,1.88-4.966,1.88-8.422L188.417,135.499
		L188.417,135.499z"/>
	<path style="fill:#06498C;" d="M159.296,172.313c-11.803-10.091-26.853-15.65-42.375-15.65c-35.982,0-65.257,29.273-65.257,65.257
		s29.275,65.257,65.257,65.257c12.234,0,24.174-3.42,34.529-9.89c2.364-1.477,3.801-4.068,3.801-6.855v-81.723l4.526-4.552
		c1.587-1.594,2.436-3.779,2.344-6.028C162.029,175.882,161.005,173.774,159.296,172.313z"/>
</g>
<path style="fill:#053D6B;" d="M162.12,178.13c-0.091-2.247-1.115-4.356-2.824-5.816c-5.364-4.586-11.403-8.224-17.847-10.841
	l-27.082,27.237v98.403c0.848,0.033,1.698,0.065,2.554,0.065c12.234,0,24.174-3.42,34.529-9.89c2.364-1.477,3.801-4.068,3.801-6.855
	v-81.723l4.526-4.553C161.361,182.562,162.21,180.378,162.12,178.13z"/>
<path style="fill:#EF9325;" d="M331.667,119.33H180.333c-4.465,0-8.084,3.618-8.084,8.084v24.127c0,4.466,3.62,8.084,8.084,8.084
	h151.334c4.466,0,8.084-3.618,8.084-8.084v-24.127C339.751,122.95,336.133,119.33,331.667,119.33z"/>
<path style="fill:#D88121;" d="M331.667,119.33h-32.689v40.295h32.689c4.466,0,8.084-3.618,8.084-8.084v-24.127
	C339.751,122.95,336.133,119.33,331.667,119.33z"/>
<path style="fill:#F5BA3D;" d="M370.568,179.674l-30.637-30.812H172.069l-30.636,30.812c-1.506,1.514-2.352,3.565-2.352,5.7v229.678
	c0,32.144,26.151,58.295,58.295,58.295h117.248c32.144,0,58.296-26.151,58.296-58.295V185.374
	C372.92,183.239,372.074,181.189,370.568,179.674z"/>
<path style="fill:#EF9325;" d="M370.568,179.674l-30.637-30.812h-40.584l30.637,30.812c1.506,1.514,2.352,3.565,2.352,5.7v229.678
	c0,32.144-26.152,58.295-58.296,58.295h40.584c32.144,0,58.296-26.151,58.296-58.295V185.374
	C372.92,183.239,372.074,181.189,370.568,179.674z"/>
<path style="fill:#39A4FA;" d="M141.432,179.674c-1.506,1.514-2.352,3.565-2.352,5.7v229.678c0,4.244,0.468,8.378,1.333,12.368
	h231.173c0.866-3.988,1.333-8.123,1.333-12.368V185.374c0-2.135-0.845-4.185-2.352-5.7l-2.37-2.384H143.803L141.432,179.674z"/>
<path style="fill:#0088FA;" d="M370.568,179.674l-2.37-2.384h-40.584l2.37,2.384c1.506,1.514,2.352,3.565,2.352,5.7v229.678
	c0,4.244-0.468,8.378-1.333,12.368h40.584c0.423-1.948,0.747-3.932,0.972-5.946c0.006-0.057,0.015-0.112,0.022-0.168
	c0.098-0.899,0.167-1.807,0.223-2.717c0.009-0.139,0.025-0.277,0.031-0.416c0.056-1.033,0.085-2.072,0.085-3.118V185.376
	C372.92,183.239,372.074,181.189,370.568,179.674z"/>
<path style="fill:#BC6611;" d="M346.414,135.499H165.587c-4.465,0-8.084-3.618-8.084-8.084s3.62-8.084,8.084-8.084h180.827
	c4.466,0,8.084,3.618,8.084,8.084S350.878,135.499,346.414,135.499z"/>
<path style="fill:#004FAC;" d="M256,237.342c-35.982,0-65.257,29.273-65.257,65.257s29.275,65.257,65.257,65.257
	c35.983,0,65.257-29.273,65.257-65.257S291.983,237.342,256,237.342z"/>
<path style="fill:#06498C;" d="M512,338.657V104.696c0-4.466-3.618-8.084-8.084-8.084h-21.019h-16.202l2.37,2.384
	c1.506,1.514,2.352,3.565,2.352,5.7v229.678c0,4.244-0.468,8.378-1.333,12.368h12.813h21.019
	C508.382,346.741,512,343.123,512,338.657z"/>
<g>
</g>
<g>
</g>
<g>
</g>
<g>
</g>
<g>
</g>
<g>
</g>
<g>
</g>
<g>
</g>
<g>
</g>
<g>
</g>
<g>
</g>
<g>
</g>
<g>
</g>
<g>
</g>
<g>
</g>
</svg>
