<?xml version="1.0" encoding="UTF-8"?>
<!DOCTYPE svg PUBLIC "-//W3C//DTD SVG 1.1//EN" "http://www.w3.org/Graphics/SVG/1.1/DTD/svg11.dtd">
<svg xmlns="http://www.w3.org/2000/svg" version="1.1" width="512px" height="512px" style="shape-rendering:geometricPrecision; text-rendering:geometricPrecision; image-rendering:optimizeQuality; fill-rule:evenodd; clip-rule:evenodd" xmlns:xlink="http://www.w3.org/1999/xlink">
<g><path style="opacity:0.995" fill="#ecf8fb" d="M 214.5,-0.5 C 233.5,-0.5 252.5,-0.5 271.5,-0.5C 276.143,1.97883 279.643,5.64549 282,10.5C 282.667,22.5 282.667,34.5 282,46.5C 281.667,46.8333 281.333,47.1667 281,47.5C 280.667,41.8333 280.333,36.1667 280,30.5C 277.045,26.7235 273.212,25.5568 268.5,27C 266.951,28.214 265.785,29.714 265,31.5C 264.5,37.8246 264.334,44.1579 264.5,50.5C 258.5,50.5 252.5,50.5 246.5,50.5C 246.666,44.1579 246.5,37.8246 246,31.5C 243.565,26.7762 239.731,25.2762 234.5,27C 232.951,28.214 231.785,29.714 231,31.5C 230.5,37.8246 230.334,44.1579 230.5,50.5C 227.061,50.2529 223.728,50.5863 220.5,51.5C 216.064,51.7899 211.73,51.2899 207.5,50C 205.513,48.6811 204.346,46.8477 204,44.5C 203.333,34.1667 203.333,23.8333 204,13.5C 205.085,6.92774 208.585,2.26108 214.5,-0.5 Z"/></g>
<g><path style="opacity:0.995" fill="#cfeffb" d="M 271.5,-0.5 C 279.833,-0.5 288.167,-0.5 296.5,-0.5C 302.415,2.26108 305.915,6.92774 307,13.5C 307.667,23.8333 307.667,34.1667 307,44.5C 306.654,46.8477 305.487,48.6811 303.5,50C 299.27,51.2899 294.936,51.7899 290.5,51.5C 282.252,50.5314 273.918,50.1981 265.5,50.5C 265.096,56.2896 265.596,61.9562 267,67.5C 281.399,78.2843 296.233,88.451 311.5,98C 313.123,100.08 314.623,102.246 316,104.5C 319.684,121.342 317.517,137.342 309.5,152.5C 265.5,153.833 221.5,153.833 177.5,152.5C 169.482,137.365 167.315,121.365 171,104.5C 172.4,101.098 174.567,98.2643 177.5,96C 191.333,86.8333 205.167,77.6667 219,68.5C 220.404,62.9562 220.904,57.2896 220.5,51.5C 223.728,50.5863 227.061,50.2529 230.5,50.5C 230.334,44.1579 230.5,37.8246 231,31.5C 231.785,29.714 232.951,28.214 234.5,27C 239.731,25.2762 243.565,26.7762 246,31.5C 246.5,37.8246 246.666,44.1579 246.5,50.5C 252.5,50.5 258.5,50.5 264.5,50.5C 264.334,44.1579 264.5,37.8246 265,31.5C 265.785,29.714 266.951,28.214 268.5,27C 273.212,25.5568 277.045,26.7235 280,30.5C 280.333,36.1667 280.667,41.8333 281,47.5C 281.333,47.1667 281.667,46.8333 282,46.5C 282.667,34.5 282.667,22.5 282,10.5C 279.643,5.64549 276.143,1.97883 271.5,-0.5 Z"/></g>
<g><path style="opacity:1" fill="#9cd8f9" d="M 290.5,51.5 C 290.096,57.2896 290.596,62.9562 292,68.5C 305.833,77.6667 319.667,86.8333 333.5,96C 336.433,98.2643 338.6,101.098 340,104.5C 343.685,121.365 341.518,137.365 333.5,152.5C 325.5,152.5 317.5,152.5 309.5,152.5C 317.517,137.342 319.684,121.342 316,104.5C 314.623,102.246 313.123,100.08 311.5,98C 296.233,88.451 281.399,78.2843 267,67.5C 265.596,61.9562 265.096,56.2896 265.5,50.5C 273.918,50.1981 282.252,50.5314 290.5,51.5 Z"/></g>
<g><path style="opacity:0.997" fill="#73c3f8" d="M 177.5,152.5 C 221.5,153.833 265.5,153.833 309.5,152.5C 317.5,152.5 325.5,152.5 333.5,152.5C 334.492,152.328 335.158,152.662 335.5,153.5C 327.826,153.334 320.159,153.5 312.5,154C 314.552,154.93 316.052,156.43 317,158.5C 317.17,168.342 317.67,178.009 318.5,187.5C 317.833,188.167 317.167,188.833 316.5,189.5C 306.117,195.507 303.95,203.841 310,214.5C 311.758,216.765 313.925,218.432 316.5,219.5C 316.5,220.167 316.833,220.5 317.5,220.5C 317.666,230.172 317.5,239.839 317,249.5C 315.668,251.66 314.168,253.66 312.5,255.5C 311.167,255.5 309.833,255.5 308.5,255.5C 264.833,255.5 221.167,255.5 177.5,255.5C 173.363,255.518 170.863,253.518 170,249.5C 169.5,240.173 169.334,230.839 169.5,221.5C 177.585,221.901 185.585,221.401 193.5,220C 203.701,214.397 206.535,206.23 202,195.5C 200.116,192.616 197.616,190.449 194.5,189C 186.251,187.594 177.917,187.094 169.5,187.5C 169.334,177.828 169.5,168.161 170,158.5C 171.48,155.183 173.98,153.183 177.5,152.5 Z"/></g>
<g><path style="opacity:1" fill="#249ff4" d="M 335.5,153.5 C 338.091,154.254 339.924,155.921 341,158.5C 341.5,168.161 341.666,177.828 341.5,187.5C 333.833,187.5 326.167,187.5 318.5,187.5C 317.67,178.009 317.17,168.342 317,158.5C 316.052,156.43 314.552,154.93 312.5,154C 320.159,153.5 327.826,153.334 335.5,153.5 Z"/></g>
<g><path style="opacity:0.978" fill="#ecf7fb" d="M 169.5,187.5 C 177.917,187.094 186.251,187.594 194.5,189C 197.616,190.449 200.116,192.616 202,195.5C 206.535,206.23 203.701,214.397 193.5,220C 185.585,221.401 177.585,221.901 169.5,221.5C 169.5,210.167 169.5,198.833 169.5,187.5 Z"/></g>
<g><path style="opacity:1" fill="#fcfefe" d="M 249.5,187.5 C 267.19,186.347 274.357,194.347 271,211.5C 264.917,220.861 256.751,223.361 246.5,219C 238.598,213.179 236.432,205.679 240,196.5C 242.406,192.592 245.572,189.592 249.5,187.5 Z"/></g>
<g><path style="opacity:1" fill="#d0f0fc" d="M 318.5,187.5 C 326.167,187.5 333.833,187.5 341.5,187.5C 341.5,198.833 341.5,210.167 341.5,221.5C 333.445,221.77 325.445,221.437 317.5,220.5C 316.833,220.5 316.5,220.167 316.5,219.5C 317.833,209.5 317.833,199.5 316.5,189.5C 317.167,188.833 317.833,188.167 318.5,187.5 Z"/></g>
<g><path style="opacity:1" fill="#e9f6fb" d="M 316.5,189.5 C 317.833,199.5 317.833,209.5 316.5,219.5C 313.925,218.432 311.758,216.765 310,214.5C 303.95,203.841 306.117,195.507 316.5,189.5 Z"/></g>
<g><path style="opacity:1" fill="#209ef4" d="M 317.5,220.5 C 325.445,221.437 333.445,221.77 341.5,221.5C 341.666,230.839 341.5,240.173 341,249.5C 340.137,253.518 337.637,255.518 333.5,255.5C 326.5,255.5 319.5,255.5 312.5,255.5C 314.168,253.66 315.668,251.66 317,249.5C 317.5,239.839 317.666,230.172 317.5,220.5 Z"/></g>
<g><path style="opacity:0.998" fill="#d0f0fb" d="M 177.5,255.5 C 221.167,255.5 264.833,255.5 308.5,255.5C 313.778,263.386 316.778,272.053 317.5,281.5C 325.5,281.5 333.5,281.5 341.5,281.5C 341.5,281.833 341.5,282.167 341.5,282.5C 284.167,282.5 226.833,282.5 169.5,282.5C 169.485,278.44 169.985,274.44 171,270.5C 173.179,265.479 175.346,260.479 177.5,255.5 Z"/></g>
<g><path style="opacity:1" fill="#9cd8f9" d="M 308.5,255.5 C 309.833,255.5 311.167,255.5 312.5,255.5C 319.5,255.5 326.5,255.5 333.5,255.5C 335.654,260.479 337.821,265.479 340,270.5C 340.936,274.114 341.436,277.78 341.5,281.5C 333.5,281.5 325.5,281.5 317.5,281.5C 316.778,272.053 313.778,263.386 308.5,255.5 Z"/></g>
<g><path style="opacity:0.994" fill="#ecf7fb" d="M 169.5,282.5 C 226.833,282.5 284.167,282.5 341.5,282.5C 341.821,288.026 341.488,293.36 340.5,298.5C 332.684,297.508 324.684,297.174 316.5,297.5C 267.664,297.168 218.997,297.501 170.5,298.5C 169.512,293.36 169.179,288.026 169.5,282.5 Z"/></g>
<g><path style="opacity:0.998" fill="#d0f0fc" d="M 316.5,297.5 C 316.543,300.91 316.043,304.243 315,307.5C 311.867,315.424 309.034,323.424 306.5,331.5C 301.35,332.651 296.016,332.817 290.5,332C 281.609,328.389 272.609,325.055 263.5,322C 257.833,321.333 252.167,321.333 246.5,322C 238.722,324.723 231.055,327.723 223.5,331C 217.235,332.484 210.902,332.818 204.5,332C 196.009,327.414 187.009,324.581 177.5,323.5C 173.342,315.691 171.009,307.358 170.5,298.5C 218.997,297.501 267.664,297.168 316.5,297.5 Z"/></g>
<g><path style="opacity:1" fill="#9cd8f9" d="M 316.5,297.5 C 324.684,297.174 332.684,297.508 340.5,298.5C 339.991,307.358 337.658,315.691 333.5,323.5C 330.813,323.336 328.146,323.503 325.5,324C 319.182,326.604 312.849,329.104 306.5,331.5C 309.034,323.424 311.867,315.424 315,307.5C 316.043,304.243 316.543,300.91 316.5,297.5 Z"/></g>
<g><path style="opacity:0.998" fill="#ecf7fc" d="M 306.5,331.5 C 312.849,329.104 319.182,326.604 325.5,324C 328.146,323.503 330.813,323.336 333.5,323.5C 331.219,328.618 329.552,333.952 328.5,339.5C 321.127,342.958 313.46,345.625 305.5,347.5C 300.218,348.567 294.885,348.733 289.5,348C 280.677,345.059 272.01,341.726 263.5,338C 259.259,336.543 254.926,336.209 250.5,337C 240.577,340.863 230.577,344.53 220.5,348C 213.766,348.829 207.099,348.496 200.5,347C 194.655,344.33 188.655,342.164 182.5,340.5C 181.604,334.579 179.938,328.912 177.5,323.5C 187.009,324.581 196.009,327.414 204.5,332C 210.902,332.818 217.235,332.484 223.5,331C 231.055,327.723 238.722,324.723 246.5,322C 252.167,321.333 257.833,321.333 263.5,322C 272.609,325.055 281.609,328.389 290.5,332C 296.016,332.817 301.35,332.651 306.5,331.5 Z"/></g>
<g><path style="opacity:0.997" fill="#d0effb" d="M 305.5,347.5 C 304.411,351.078 304.245,354.745 305,358.5C 306.342,364.87 307.842,371.203 309.5,377.5C 309.747,378.713 310.414,379.38 311.5,379.5C 304.877,382.313 297.877,383.146 290.5,382C 283.833,379.333 277.167,376.667 270.5,374C 261.274,371.09 251.94,370.757 242.5,373C 232.934,377.69 222.934,380.856 212.5,382.5C 210.167,382.333 207.833,382.167 205.5,382C 196.631,378.723 187.965,375.223 179.5,371.5C 182.01,361.332 183.01,350.999 182.5,340.5C 188.655,342.164 194.655,344.33 200.5,347C 207.099,348.496 213.766,348.829 220.5,348C 230.577,344.53 240.577,340.863 250.5,337C 254.926,336.209 259.259,336.543 263.5,338C 272.01,341.726 280.677,345.059 289.5,348C 294.885,348.733 300.218,348.567 305.5,347.5 Z"/></g>
<g><path style="opacity:1" fill="#9cd8f9" d="M 328.5,339.5 C 327.964,350.332 328.964,360.998 331.5,371.5C 324.918,374.361 318.251,377.028 311.5,379.5C 310.414,379.38 309.747,378.713 309.5,377.5C 307.842,371.203 306.342,364.87 305,358.5C 304.245,354.745 304.411,351.078 305.5,347.5C 313.46,345.625 321.127,342.958 328.5,339.5 Z"/></g>
<g><path style="opacity:0.996" fill="#ecf7fc" d="M 179.5,371.5 C 187.965,375.223 196.631,378.723 205.5,382C 207.833,382.167 210.167,382.333 212.5,382.5C 222.934,380.856 232.934,377.69 242.5,373C 251.94,370.757 261.274,371.09 270.5,374C 277.167,376.667 283.833,379.333 290.5,382C 297.877,383.146 304.877,382.313 311.5,379.5C 318.251,377.028 324.918,374.361 331.5,371.5C 333.278,376.272 334.611,381.272 335.5,386.5C 328.346,389.323 321.346,392.323 314.5,395.5C 306.714,398.087 298.714,398.92 290.5,398C 281.434,394.867 272.434,391.533 263.5,388C 257.808,386.143 252.141,386.143 246.5,388C 235.674,393.72 224.174,397.22 212,398.5C 199.206,396.402 187.04,392.402 175.5,386.5C 176.389,381.272 177.722,376.272 179.5,371.5 Z"/></g>
<g><path style="opacity:0.997" fill="#d0f0fb" d="M 175.5,386.5 C 187.04,392.402 199.206,396.402 212,398.5C 224.174,397.22 235.674,393.72 246.5,388C 252.141,386.143 257.808,386.143 263.5,388C 272.434,391.533 281.434,394.867 290.5,398C 298.714,398.92 306.714,398.087 314.5,395.5C 316.61,405.87 317.944,416.203 318.5,426.5C 314.39,428.601 310.056,430.434 305.5,432C 300.5,432.667 295.5,432.667 290.5,432C 282.945,428.723 275.278,425.723 267.5,423C 259.175,421.041 250.842,421.041 242.5,423C 232.8,427.79 222.633,430.956 212,432.5C 209.833,432.333 207.667,432.167 205.5,432C 193.718,426.797 181.718,422.297 169.5,418.5C 169.915,407.511 171.915,396.844 175.5,386.5 Z"/></g>
<g><path style="opacity:1" fill="#9cd8f9" d="M 335.5,386.5 C 339.085,396.844 341.085,407.511 341.5,418.5C 333.712,420.763 326.045,423.43 318.5,426.5C 317.944,416.203 316.61,405.87 314.5,395.5C 321.346,392.323 328.346,389.323 335.5,386.5 Z"/></g>
<g><path style="opacity:0.993" fill="#ecf7fb" d="M 169.5,418.5 C 181.718,422.297 193.718,426.797 205.5,432C 207.667,432.167 209.833,432.333 212,432.5C 222.633,430.956 232.8,427.79 242.5,423C 250.842,421.041 259.175,421.041 267.5,423C 275.278,425.723 282.945,428.723 290.5,432C 295.5,432.667 300.5,432.667 305.5,432C 310.056,430.434 314.39,428.601 318.5,426.5C 326.045,423.43 333.712,420.763 341.5,418.5C 341.5,423.833 341.5,429.167 341.5,434.5C 333.18,437.267 325.18,440.601 317.5,444.5C 312.852,445.662 308.186,446.829 303.5,448C 295.955,448.692 288.622,447.692 281.5,445C 273.223,440.852 264.556,438.019 255.5,436.5C 245.443,438.352 235.777,441.519 226.5,446C 218.257,448.791 209.924,449.125 201.5,447C 190.924,442.543 180.257,438.376 169.5,434.5C 169.5,429.167 169.5,423.833 169.5,418.5 Z"/></g>
<g><path style="opacity:0.994" fill="#d0effb" d="M 169.5,434.5 C 180.257,438.376 190.924,442.543 201.5,447C 209.924,449.125 218.257,448.791 226.5,446C 235.777,441.519 245.443,438.352 255.5,436.5C 264.556,438.019 273.223,440.852 281.5,445C 288.622,447.692 295.955,448.692 303.5,448C 308.186,446.829 312.852,445.662 317.5,444.5C 317.5,452.833 317.5,461.167 317.5,469.5C 268.167,469.5 218.833,469.5 169.5,469.5C 169.5,457.833 169.5,446.167 169.5,434.5 Z"/></g>
<g><path style="opacity:1" fill="#9cd8f9" d="M 341.5,434.5 C 341.5,446.167 341.5,457.833 341.5,469.5C 333.5,469.5 325.5,469.5 317.5,469.5C 317.5,461.167 317.5,452.833 317.5,444.5C 325.18,440.601 333.18,437.267 341.5,434.5 Z"/></g>
<g><path style="opacity:0.996" fill="#ecf7fb" d="M 169.5,469.5 C 218.833,469.5 268.167,469.5 317.5,469.5C 325.5,469.5 333.5,469.5 341.5,469.5C 341.726,474.562 341.392,479.562 340.5,484.5C 283.833,484.5 227.167,484.5 170.5,484.5C 169.608,479.562 169.274,474.562 169.5,469.5 Z"/></g>
<g><path style="opacity:1" fill="#def3fb" d="M 170.5,485.5 C 170.5,485.167 170.5,484.833 170.5,484.5C 227.167,484.5 283.833,484.5 340.5,484.5C 340.737,485.791 340.404,486.791 339.5,487.5C 331.903,485.533 323.903,484.866 315.5,485.5C 267.167,485.5 218.833,485.5 170.5,485.5 Z"/></g>
<g><path style="opacity:0.996" fill="#d0f0fc" d="M 170.5,485.5 C 218.833,485.5 267.167,485.5 315.5,485.5C 311.483,500.519 301.816,509.186 286.5,511.5C 256.167,511.5 225.833,511.5 195.5,511.5C 182.462,507.46 174.129,498.794 170.5,485.5 Z"/></g>
<g><path style="opacity:1" fill="#9dd9f9" d="M 315.5,485.5 C 323.903,484.866 331.903,485.533 339.5,487.5C 335.81,499.857 327.81,507.857 315.5,511.5C 305.833,511.5 296.167,511.5 286.5,511.5C 301.816,509.186 311.483,500.519 315.5,485.5 Z"/></g>
</svg>
