<?xml version="1.0" encoding="iso-8859-1"?>
<!-- Generator: Adobe Illustrator 19.0.0, SVG Export Plug-In . SVG Version: 6.00 Build 0)  -->
<svg version="1.1" id="Layer_1" xmlns="http://www.w3.org/2000/svg" xmlns:xlink="http://www.w3.org/1999/xlink" x="0px" y="0px"
	 viewBox="0 0 512 512" style="enable-background:new 0 0 512 512;" xml:space="preserve">
<path style="fill:#E6E7E8;" d="M478.106,281.778H286.704c-4.466,0-8.084,3.618-8.084,8.084v214.054c0,4.466,3.618,8.084,8.084,8.084
	h191.401c4.466,0,8.084-3.618,8.084-8.084V289.862C486.19,285.396,482.571,281.778,478.106,281.778z"/>
<path style="fill:#C9C9C9;" d="M478.106,281.778h-31.259V512h31.259c4.466,0,8.084-3.618,8.084-8.084V289.862
	C486.19,285.396,482.571,281.778,478.106,281.778z"/>
<rect x="278.623" y="331.42" style="fill:#904F15;" width="207.57" height="145.494"/>
<rect x="446.85" y="331.42" style="fill:#7C4111;" width="39.343" height="145.494"/>
<path style="fill:#E6E7E8;" d="M404.814,399.58l-45.53-26.287c-3.869-2.231-8.813-0.91-11.043,2.959l-26.287,45.529
	c-2.232,3.866-0.908,8.811,2.959,11.043l45.53,26.288c1.24,0.716,2.634,1.083,4.042,1.083c0.701,0,1.404-0.091,2.093-0.276
	c2.071-0.555,3.836-1.909,4.909-3.766l26.287-45.53C410.005,406.757,408.679,401.812,404.814,399.58z"/>
<path style="fill:#C9C9C9;" d="M452.521,352.593h-52.573c-4.466,0-8.084,3.618-8.084,8.084v52.574c0,4.466,3.618,8.084,8.084,8.084
	h52.573c4.466,0,8.084-3.618,8.084-8.084v-52.574C460.605,356.213,456.987,352.593,452.521,352.593z"/>
<path style="fill:#ACABB1;" d="M452.521,352.593h-5.675v68.743h5.675c4.466,0,8.084-3.618,8.084-8.084v-52.574
	C460.605,356.213,456.987,352.593,452.521,352.593z"/>
<path style="fill:#C9C9C9;" d="M375.665,325.361l-50.831-13.424c-4.319-1.144-8.741,1.435-9.88,5.752L301.53,368.52
	c-1.14,4.317,1.435,8.74,5.752,9.88l50.831,13.424c0.692,0.183,1.386,0.271,2.07,0.271c3.581,0,6.853-2.397,7.81-6.022
	l13.424-50.831C382.556,330.924,379.981,326.501,375.665,325.361z"/>
<path style="fill:#904F15;" d="M203.109,184.242c-16.34-13.474-24.741-21.125-22.038-34.421
	c11.993-58.981-5.904-100.412-6.671-102.148c-1.295-2.925-4.193-4.813-7.392-4.813h-55.832c-3.2,0-6.098,1.887-7.392,4.813
	c-0.767,1.734-18.664,43.166-6.672,102.148c2.703,13.297-5.698,20.948-22.038,34.421c-20.792,17.143-49.265,40.623-49.265,93.316
	v194.021C25.81,493.868,43.942,512,66.231,512h145.725c22.289,0,40.421-18.132,40.421-40.421V277.558
	C252.374,224.864,223.901,201.385,203.109,184.242z"/>
<path style="fill:#7C4111;" d="M203.109,184.242c-16.34-13.474-24.741-21.125-22.038-34.421
	c11.993-58.981-5.904-100.412-6.671-102.148c-1.295-2.925-4.193-4.813-7.392-4.813h-37.868c3.2,0,6.098,1.887,7.392,4.813
	c0.767,1.734,18.664,43.166,6.672,102.148c-2.703,13.297,5.698,20.948,22.038,34.421c20.792,17.143,49.265,40.623,49.265,93.316
	v194.021c0,22.289-18.132,40.421-40.421,40.421h37.865c22.289,0,40.421-18.132,40.421-40.421V277.558
	C252.374,224.864,223.901,201.385,203.109,184.242z"/>
<g>
	<path style="fill:#57565C;" d="M25.806,277.558v158.701h226.567V277.558c0-5.935-0.378-11.481-1.049-16.707H26.856
		C26.185,266.077,25.806,271.623,25.806,277.558z"/>
	<path style="fill:#57565C;" d="M167.006,42.861h-55.832c-3.2,0-6.098,1.887-7.392,4.813c-0.728,1.646-16.865,39.056-8.261,93.277
		h87.138c8.604-54.22-7.532-91.631-8.26-93.277C173.105,44.749,170.207,42.861,167.006,42.861z"/>
</g>
<g>
	<path style="fill:#FFF5CF;" d="M139.091,295.408c-36.517,0-65.122,17.236-65.122,39.24s28.605,39.241,65.122,39.241
		s65.121-17.237,65.121-39.241S175.608,295.408,139.091,295.408z"/>
	<path style="fill:#FFF5CF;" d="M188.832,398.999H89.349c-4.466,0-8.084-3.618-8.084-8.084c0-4.466,3.618-8.084,8.084-8.084h99.483
		c4.466,0,8.084,3.618,8.084,8.084C196.916,395.38,193.297,398.999,188.832,398.999z"/>
</g>
<path style="fill:#3E3D42;" d="M174.4,47.674c-1.295-2.925-4.193-4.813-7.392-4.813h-9.847h-28.02c3.2,0,6.098,1.887,7.392,4.813
	c0.729,1.646,16.865,39.056,8.261,93.277h12.366h25.5C191.264,86.731,175.127,49.32,174.4,47.674z"/>
<path id="SVGCleanerId_0" style="fill:#2C2C2D;" d="M168.838,0h-59.493C98.944,0,90.481,8.463,90.481,18.863v32.082
	c0,4.466,3.618,8.084,8.084,8.084h81.051c4.466,0,8.084-3.618,8.084-8.084V18.863C187.701,8.463,179.238,0,168.838,0z"/>
<g>
	<path id="SVGCleanerId_0_1_" style="fill:#2C2C2D;" d="M168.838,0h-59.493C98.944,0,90.481,8.463,90.481,18.863v32.082
		c0,4.466,3.618,8.084,8.084,8.084h81.051c4.466,0,8.084-3.618,8.084-8.084V18.863C187.701,8.463,179.238,0,168.838,0z"/>
</g>
<path style="fill:#151516;" d="M168.838,0h-36.648c10.401,0,18.863,8.463,18.863,18.863v32.082c0,4.466-3.618,8.084-8.084,8.084
	h36.648c4.466,0,8.084-3.618,8.084-8.084V18.863C187.701,8.463,179.238,0,168.838,0z"/>
<path style="fill:#3E3D42;" d="M251.325,260.851h-18.408h-19.457c0.67,5.227,1.049,10.772,1.049,16.707v158.701h18.408h19.457
	V277.558C252.374,271.623,251.996,266.077,251.325,260.851z"/>
<g>
</g>
<g>
</g>
<g>
</g>
<g>
</g>
<g>
</g>
<g>
</g>
<g>
</g>
<g>
</g>
<g>
</g>
<g>
</g>
<g>
</g>
<g>
</g>
<g>
</g>
<g>
</g>
<g>
</g>
</svg>
