<?xml version="1.0" encoding="iso-8859-1"?>
<!-- Generator: Adobe Illustrator 19.0.0, SVG Export Plug-In . SVG Version: 6.00 Build 0)  -->
<svg version="1.1" id="Capa_1" xmlns="http://www.w3.org/2000/svg" xmlns:xlink="http://www.w3.org/1999/xlink" x="0px" y="0px"
	 viewBox="0 0 512 512" style="enable-background:new 0 0 512 512;" xml:space="preserve">
<path style="fill:#EBE5DD;" d="M318.612,29.494v59.505H193.393V29.494C193.393,13.205,206.598,0,222.887,0h66.231
	C305.407,0,318.612,13.205,318.612,29.494z"/>
<rect x="193.388" y="38.807" style="fill:#D9CCBC;" width="125.219" height="50.191"/>
<g>
	<path style="fill:#C0AB91;" d="M217.195,81.237c-4.287,0-7.761-3.475-7.761-7.761V34.151c0-4.286,3.474-7.761,7.761-7.761
		c4.287,0,7.762,3.475,7.762,7.761v39.325C224.957,77.762,221.483,81.237,217.195,81.237z"/>
	<path style="fill:#C0AB91;" d="M243.067,81.237c-4.287,0-7.761-3.475-7.761-7.761V34.151c0-4.286,3.474-7.761,7.761-7.761
		s7.761,3.475,7.761,7.761v39.325C250.828,77.762,247.354,81.237,243.067,81.237z"/>
	<path style="fill:#C0AB91;" d="M268.938,81.237c-4.287,0-7.762-3.475-7.762-7.761V34.151c0-4.286,3.474-7.761,7.762-7.761
		c4.287,0,7.761,3.475,7.761,7.761v39.325C276.7,77.762,273.226,81.237,268.938,81.237z"/>
	<path style="fill:#C0AB91;" d="M294.81,81.237c-4.287,0-7.762-3.475-7.762-7.761V34.151c0-4.286,3.474-7.761,7.762-7.761
		s7.762,3.475,7.762,7.761v39.325C302.572,77.762,299.098,81.237,294.81,81.237z"/>
</g>
<path style="fill:#FFCD00;" d="M418.973,69.967v432.574c0,5.226-4.243,9.459-9.469,9.459H196.032V60.498h213.472
	C414.73,60.498,418.973,64.741,418.973,69.967z"/>
<g>
	<path style="fill:#DDB200;" d="M374.971,211.744V512h-15.523V211.744c0-4.284,3.467-7.762,7.762-7.762
		C371.494,203.982,374.971,207.46,374.971,211.744z"/>
	<path style="fill:#DDB200;" d="M418.973,69.967v2.556l-44.002,51.609v56.566c0,4.284-3.477,7.762-7.762,7.762
		c-4.295,0-7.762-3.477-7.762-7.762v-56.576l-53.378-63.624h20.252l40.898,48.763l41.602-48.763h0.683
		C414.73,60.498,418.973,64.741,418.973,69.967z"/>
</g>
<path style="fill:#FFDA44;" d="M315.97,60.507V512H105.83c-7.066,0-12.795-5.728-12.795-12.795V73.301
	c0-7.066,5.728-12.795,12.795-12.795h210.14V60.507z"/>
<path style="fill:#FFCD00;" d="M141.608,512h-35.775c-7.068,0-12.801-5.723-12.801-12.791V73.3c0-7.068,5.733-12.791,12.801-12.791
	h35.775c-7.068,0-12.791,5.723-12.791,12.791v425.91C128.818,506.277,134.54,512,141.608,512z"/>
<rect x="93.037" y="150.666" style="fill:#FFB655;" width="222.931" height="271.166"/>
<rect x="93.027" y="150.666" style="fill:#DDB200;" width="35.786" height="271.176"/>
<rect x="93.027" y="150.666" style="fill:#FFA733;" width="35.786" height="271.176"/>
<circle style="fill:#EE8700;" cx="204.772" cy="288.5" r="86.96"/>
<path style="fill:#FFCD00;" d="M204.763,362.005c-40.602,0-73.635-33.032-73.635-73.635s33.033-73.635,73.635-73.635
	s73.635,33.033,73.635,73.635S245.365,362.005,204.763,362.005z"/>
<circle style="fill:#EE8700;" cx="204.772" cy="288.5" r="59.567"/>
<path style="fill:#FFCD00;" d="M264.344,288.5c0,2.608-0.166,5.174-0.486,7.689c-0.321,0.052-0.652,0.072-0.993,0.072h-39.346
	l27.828,27.828c0.228,0.238,0.445,0.476,0.631,0.735c-3.136,4.088-6.789,7.741-10.876,10.876c-0.259-0.186-0.497-0.404-0.735-0.642
	l-27.828-27.817v39.346c0,0.341-0.021,0.673-0.072,0.993c-2.515,0.321-5.081,0.486-7.689,0.486c-2.608,0-5.174-0.166-7.689-0.486
	c-0.052-0.321-0.072-0.652-0.072-0.993v-39.346l-27.828,27.817c-0.238,0.238-0.476,0.455-0.735,0.642
	c-4.088-3.136-7.741-6.789-10.876-10.876c0.186-0.259,0.404-0.497,0.631-0.735l27.828-27.828H146.69
	c-0.342,0-0.673-0.021-0.993-0.072c-0.321-2.515-0.486-5.081-0.486-7.689s0.166-5.174,0.486-7.689
	c0.321-0.052,0.652-0.072,0.993-0.072h39.346l-27.828-27.828c-0.238-0.238-0.455-0.486-0.642-0.745
	c3.146-4.077,6.799-7.73,10.876-10.876c0.259,0.186,0.507,0.404,0.745,0.642l27.828,27.828v-39.346c0-0.342,0.021-0.673,0.072-1.004
	c2.515-0.321,5.081-0.486,7.689-0.486c2.608,0,5.174,0.166,7.689,0.486c0.052,0.331,0.072,0.662,0.072,1.004v39.346l27.828-27.828
	c0.238-0.238,0.486-0.455,0.745-0.642c4.077,3.146,7.73,6.799,10.876,10.876c-0.186,0.259-0.404,0.507-0.642,0.745l-27.828,27.828
	h39.346c0.341,0,0.673,0.021,0.993,0.072C264.178,283.326,264.344,285.892,264.344,288.5z"/>
<g>
</g>
<g>
</g>
<g>
</g>
<g>
</g>
<g>
</g>
<g>
</g>
<g>
</g>
<g>
</g>
<g>
</g>
<g>
</g>
<g>
</g>
<g>
</g>
<g>
</g>
<g>
</g>
<g>
</g>
</svg>
