<?xml version="1.0" encoding="UTF-8"?>
<!DOCTYPE svg PUBLIC "-//W3C//DTD SVG 1.1//EN" "http://www.w3.org/Graphics/SVG/1.1/DTD/svg11.dtd">
<svg xmlns="http://www.w3.org/2000/svg" version="1.1" width="512px" height="512px" style="shape-rendering:geometricPrecision; text-rendering:geometricPrecision; image-rendering:optimizeQuality; fill-rule:evenodd; clip-rule:evenodd" xmlns:xlink="http://www.w3.org/1999/xlink">
<g><path style="opacity:1" fill="#fde376" d="M 211.5,-0.5 C 223.5,-0.5 235.5,-0.5 247.5,-0.5C 242.257,2.06067 238.423,6.06067 236,11.5C 235.333,26.1667 235.333,40.8333 236,55.5C 239.255,61.0084 242.255,66.675 245,72.5C 245.5,82.4944 245.666,92.4944 245.5,102.5C 233.833,102.5 222.167,102.5 210.5,102.5C 210.828,90.3217 210.495,78.3217 209.5,66.5C 203.921,64.0381 200.755,59.7048 200,53.5C 199.333,40.5 199.333,27.5 200,14.5C 200.966,7.2058 204.8,2.2058 211.5,-0.5 Z"/></g>
<g><path style="opacity:1" fill="#fdea98" d="M 247.5,-0.5 C 254.5,-0.5 261.5,-0.5 268.5,-0.5C 273.143,1.97883 276.643,5.64549 279,10.5C 279.667,26.1667 279.667,41.8333 279,57.5C 277.053,61.78 274.053,65.1133 270,67.5C 269.5,79.1619 269.333,90.8286 269.5,102.5C 263.833,102.5 258.167,102.5 252.5,102.5C 250.167,102.5 247.833,102.5 245.5,102.5C 245.666,92.4944 245.5,82.4944 245,72.5C 242.255,66.675 239.255,61.0084 236,55.5C 235.333,40.8333 235.333,26.1667 236,11.5C 238.423,6.06067 242.257,2.06067 247.5,-0.5 Z"/></g>
<g><path style="opacity:0.985" fill="#ff728b" d="M 252.5,102.5 C 258.167,102.5 263.833,102.5 269.5,102.5C 284.841,103.367 291.174,111.534 288.5,127C 291.299,141.968 285.299,150.135 270.5,151.5C 270.167,151.5 269.833,151.5 269.5,151.5C 263.824,151.666 258.157,151.499 252.5,151C 249.89,149.519 247.223,148.352 244.5,147.5C 242.822,144.298 241.322,140.965 240,137.5C 239.333,130.5 239.333,123.5 240,116.5C 241.926,109.745 246.093,105.078 252.5,102.5 Z"/></g>
<g><path style="opacity:1" fill="#ffa5b4" d="M 210.5,102.5 C 222.167,102.5 233.833,102.5 245.5,102.5C 247.833,102.5 250.167,102.5 252.5,102.5C 246.093,105.078 241.926,109.745 240,116.5C 239.333,123.5 239.333,130.5 240,137.5C 241.322,140.965 242.822,144.298 244.5,147.5C 244.204,149.403 243.537,151.07 242.5,152.5C 232.013,151.506 221.346,151.172 210.5,151.5C 210.5,135.167 210.5,118.833 210.5,102.5 Z"/></g>
<g><path style="opacity:1" fill="#ff1239" d="M 244.5,147.5 C 247.223,148.352 249.89,149.519 252.5,151C 258.157,151.499 263.824,151.666 269.5,151.5C 268.923,159.959 267.59,168.293 265.5,176.5C 255.281,177.67 245.614,176.004 236.5,171.5C 235.702,171.043 235.369,170.376 235.5,169.5C 238.11,163.947 240.443,158.281 242.5,152.5C 243.537,151.07 244.204,149.403 244.5,147.5 Z"/></g>
<g><path style="opacity:1" fill="#f9e075" d="M 209.5,66.5 C 210.495,78.3217 210.828,90.3217 210.5,102.5C 210.5,118.833 210.5,135.167 210.5,151.5C 221.346,151.172 232.013,151.506 242.5,152.5C 240.443,158.281 238.11,163.947 235.5,169.5C 223.299,194.571 207.632,217.238 188.5,237.5C 198.331,215.835 204.831,193.168 208,169.5C 209.428,135.191 209.928,100.857 209.5,66.5 Z"/></g>
<g><path style="opacity:1" fill="#d80227" d="M 270.5,153.5 C 278.802,170.773 288.135,187.44 298.5,203.5C 307.213,227.592 318.546,250.259 332.5,271.5C 332.404,277.938 331.57,284.271 330,290.5C 324.836,295.779 319.669,295.779 314.5,290.5C 314.5,289.833 314.167,289.5 313.5,289.5C 308.239,273.05 301.239,257.383 292.5,242.5C 288.465,232.443 284.465,222.443 280.5,212.5C 274.848,193.238 271.514,173.571 270.5,153.5 Z"/></g>
<g><path style="opacity:1" fill="#fee276" d="M 269.5,151.5 C 269.833,151.5 270.167,151.5 270.5,151.5C 270.5,152.167 270.5,152.833 270.5,153.5C 271.514,173.571 274.848,193.238 280.5,212.5C 269.325,238.296 255.325,262.296 238.5,284.5C 238.167,284.5 237.833,284.5 237.5,284.5C 231.167,279.167 224.833,273.833 218.5,268.5C 228.144,254.562 237.311,240.229 246,225.5C 254.175,209.802 260.675,193.469 265.5,176.5C 267.59,168.293 268.923,159.959 269.5,151.5 Z"/></g>
<g><path style="opacity:0.994" fill="#fe4061" d="M 235.5,169.5 C 235.369,170.376 235.702,171.043 236.5,171.5C 245.614,176.004 255.281,177.67 265.5,176.5C 260.675,193.469 254.175,209.802 246,225.5C 237.311,240.229 228.144,254.562 218.5,268.5C 210.439,278.73 201.772,288.564 192.5,298C 187.758,300.229 183.925,299.062 181,294.5C 180.165,288.157 179.331,281.824 178.5,275.5C 175.833,275.5 173.167,275.5 170.5,275.5C 162.395,276.228 158.895,272.562 160,264.5C 169.544,255.627 179.044,246.627 188.5,237.5C 207.632,217.238 223.299,194.571 235.5,169.5 Z"/></g>
<g><path style="opacity:0.93" fill="#fe0b37" d="M 298.5,203.5 C 313.356,223.527 330.523,241.527 350,257.5C 352.446,262.324 351.613,266.491 347.5,270C 342.58,271.25 337.58,271.75 332.5,271.5C 318.546,250.259 307.213,227.592 298.5,203.5 Z"/></g>
<g><path style="opacity:1" fill="#fde997" d="M 280.5,212.5 C 284.465,222.443 288.465,232.443 292.5,242.5C 275.167,257.159 257.5,271.492 239.5,285.5C 238.893,285.376 238.56,285.043 238.5,284.5C 255.325,262.296 269.325,238.296 280.5,212.5 Z"/></g>
<g><path style="opacity:0.995" fill="#5eab24" d="M 292.5,242.5 C 301.239,257.383 308.239,273.05 313.5,289.5C 314.167,289.5 314.5,289.833 314.5,290.5C 317.108,312.075 318.108,333.741 317.5,355.5C 277.833,355.5 238.167,355.5 198.5,355.5C 198.5,344.5 198.5,333.5 198.5,322.5C 204.045,321.393 208.712,318.727 212.5,314.5C 221.61,305.065 229.943,295.065 237.5,284.5C 237.833,284.5 238.167,284.5 238.5,284.5C 238.56,285.043 238.893,285.376 239.5,285.5C 257.5,271.492 275.167,257.159 292.5,242.5 Z"/></g>
<g><path style="opacity:0.999" fill="#4e901e" d="M 218.5,268.5 C 224.833,273.833 231.167,279.167 237.5,284.5C 229.943,295.065 221.61,305.065 212.5,314.5C 208.712,318.727 204.045,321.393 198.5,322.5C 198.5,333.5 198.5,344.5 198.5,355.5C 186.5,355.5 174.5,355.5 162.5,355.5C 162.333,339.83 162.5,324.163 163,308.5C 163.912,297.102 166.412,286.102 170.5,275.5C 173.167,275.5 175.833,275.5 178.5,275.5C 179.331,281.824 180.165,288.157 181,294.5C 183.925,299.062 187.758,300.229 192.5,298C 201.772,288.564 210.439,278.73 218.5,268.5 Z"/></g>
<g><path style="opacity:1" fill="#dcbfb0" d="M 198.5,356.5 C 198.5,356.167 198.5,355.833 198.5,355.5C 238.167,355.5 277.833,355.5 317.5,355.5C 317.5,387.833 317.5,420.167 317.5,452.5C 317.167,452.5 316.833,452.5 316.5,452.5C 316.5,442.167 316.5,431.833 316.5,421.5C 316.5,409.833 316.5,398.167 316.5,386.5C 316.5,376.5 316.5,366.5 316.5,356.5C 277.167,356.5 237.833,356.5 198.5,356.5 Z"/></g>
<g><path style="opacity:0.996" fill="#f78c9e" d="M 162.5,355.5 C 174.5,355.5 186.5,355.5 198.5,355.5C 198.5,355.833 198.5,356.167 198.5,356.5C 198.5,366.5 198.5,376.5 198.5,386.5C 198.167,386.5 197.833,386.5 197.5,386.5C 197.5,376.5 197.5,366.5 197.5,356.5C 186.167,356.5 174.833,356.5 163.5,356.5C 163.5,366.5 163.5,376.5 163.5,386.5C 163.167,386.5 162.833,386.5 162.5,386.5C 162.5,376.167 162.5,365.833 162.5,355.5 Z"/></g>
<g><path style="opacity:1" fill="#fe728a" d="M 197.5,386.5 C 186.167,386.5 174.833,386.5 163.5,386.5C 163.5,376.5 163.5,366.5 163.5,356.5C 174.833,356.5 186.167,356.5 197.5,356.5C 197.5,366.5 197.5,376.5 197.5,386.5 Z"/></g>
<g><path style="opacity:1" fill="#fea5b4" d="M 198.5,356.5 C 237.833,356.5 277.167,356.5 316.5,356.5C 316.5,366.5 316.5,376.5 316.5,386.5C 277.167,386.5 237.833,386.5 198.5,386.5C 198.5,376.5 198.5,366.5 198.5,356.5 Z"/></g>
<g><path style="opacity:1" fill="#aafef4" d="M 162.5,387.5 C 174.5,387.5 186.5,387.5 198.5,387.5C 198.5,398.833 198.5,410.167 198.5,421.5C 186.5,421.5 174.5,421.5 162.5,421.5C 162.5,410.167 162.5,398.833 162.5,387.5 Z"/></g>
<g><path style="opacity:1" fill="#ddfefa" d="M 162.5,387.5 C 162.5,387.167 162.5,386.833 162.5,386.5C 162.833,386.5 163.167,386.5 163.5,386.5C 174.833,386.5 186.167,386.5 197.5,386.5C 197.833,386.5 198.167,386.5 198.5,386.5C 237.833,386.5 277.167,386.5 316.5,386.5C 316.5,398.167 316.5,409.833 316.5,421.5C 277.167,421.5 237.833,421.5 198.5,421.5C 198.5,410.167 198.5,398.833 198.5,387.5C 186.5,387.5 174.5,387.5 162.5,387.5 Z"/></g>
<g><path style="opacity:1" fill="#fe738c" d="M 162.5,421.5 C 174.5,421.5 186.5,421.5 198.5,421.5C 198.5,431.833 198.5,442.167 198.5,452.5C 186.5,452.5 174.5,452.5 162.5,452.5C 162.5,442.167 162.5,431.833 162.5,421.5 Z"/></g>
<g><path style="opacity:1" fill="#fea5b5" d="M 198.5,421.5 C 237.833,421.5 277.167,421.5 316.5,421.5C 316.5,431.833 316.5,442.167 316.5,452.5C 277.167,452.5 237.833,452.5 198.5,452.5C 198.5,442.167 198.5,431.833 198.5,421.5 Z"/></g>
<g><path style="opacity:1" fill="#4e901e" d="M 162.5,452.5 C 174.5,452.5 186.5,452.5 198.5,452.5C 198.333,465.504 198.5,478.504 199,491.5C 199.56,495.627 201.393,498.96 204.5,501.5C 200.167,504.833 195.833,508.167 191.5,511.5C 188.167,511.5 184.833,511.5 181.5,511.5C 171.753,508.25 165.587,501.583 163,491.5C 162.5,478.504 162.333,465.504 162.5,452.5 Z"/></g>
<g><path style="opacity:0.99" fill="#5dab23" d="M 198.5,452.5 C 237.833,452.5 277.167,452.5 316.5,452.5C 316.833,452.5 317.167,452.5 317.5,452.5C 317.906,466.218 317.406,479.885 316,493.5C 313.317,502.682 307.483,508.682 298.5,511.5C 294.833,511.5 291.167,511.5 287.5,511.5C 281.688,506.531 275.688,501.697 269.5,497C 265.602,493.271 261.935,489.438 258.5,485.5C 251.876,476.926 243.209,474.093 232.5,477C 225.481,479.351 220.314,483.851 217,490.5C 212.667,494.066 208.501,497.733 204.5,501.5C 201.393,498.96 199.56,495.627 199,491.5C 198.5,478.504 198.333,465.504 198.5,452.5 Z"/></g>
<g><path style="opacity:1" fill="#47821c" d="M 258.5,485.5 C 250.132,493.866 242.132,502.533 234.5,511.5C 220.167,511.5 205.833,511.5 191.5,511.5C 195.833,508.167 200.167,504.833 204.5,501.5C 208.501,497.733 212.667,494.066 217,490.5C 220.314,483.851 225.481,479.351 232.5,477C 243.209,474.093 251.876,476.926 258.5,485.5 Z"/></g>
<g><path style="opacity:1" fill="#4e901e" d="M 258.5,485.5 C 261.935,489.438 265.602,493.271 269.5,497C 275.688,501.697 281.688,506.531 287.5,511.5C 269.833,511.5 252.167,511.5 234.5,511.5C 242.132,502.533 250.132,493.866 258.5,485.5 Z"/></g>
</svg>
