<?xml version="1.0" encoding="iso-8859-1"?>
<!-- Generator: Adobe Illustrator 19.0.0, SVG Export Plug-In . SVG Version: 6.00 Build 0)  -->
<svg version="1.1" id="Capa_1" xmlns="http://www.w3.org/2000/svg" xmlns:xlink="http://www.w3.org/1999/xlink" x="0px" y="0px"
	 viewBox="0 0 511.999 511.999" style="enable-background:new 0 0 511.999 511.999;" xml:space="preserve">
<path style="fill:#5EAC24;" d="M182.097,80.558c0,0-84.4-86.76-169.673,29.098c-3.07,4.171-1.342,10.116,3.468,12.038
	C42.827,132.457,123.776,156.024,182.097,80.558z"/>
<path style="fill:#7ED63E;" d="M193.106,136.46c-3.506,0-6.674-2.414-7.488-5.977L157.952,9.404
	c-0.946-4.139,1.643-8.262,5.782-9.207c4.137-0.953,8.262,1.643,9.207,5.782l27.665,121.079c0.946,4.139-1.643,8.262-5.782,9.207
	C194.248,136.396,193.672,136.46,193.106,136.46z"/>
<path style="fill:#4E901E;" d="M48.351,121.016c9.912,3.957,27.143,9.656,47.858,11.501c-34.584,4.818-65.561-4.93-80.321-10.824
	c-4.807-1.917-6.54-7.862-3.465-12.034c40.13-54.521,80.065-64.177,111.102-59.103c-24.314,5.115-51.436,21.454-78.64,58.416
	C41.812,113.144,43.544,119.089,48.351,121.016z"/>
<path style="fill:#EE8700;" d="M429.61,335.492c-7.975,88.829-76.774,163.276-168.893,174.951
	c-9.584,1.21-19.096,1.702-28.465,1.517c-94.671-1.876-176.14-72.9-188.4-169.631C30.383,236.024,105.65,138.923,211.966,125.464
	c106.305-13.469,203.396,61.799,216.865,168.104C430.624,307.765,430.84,321.798,429.61,335.492z"/>
<path style="fill:#CC7400;" d="M429.61,335.492l-206.696-78.804c-5.945-2.265-12.167-3.424-18.512-3.424
	c-23.207,0-43.789,15.611-50.052,37.967c-13.653,48.771-8.641,100.647,14.104,146.087c9.696,19.364,22.285,36.831,37.193,51.939
	c-57.823-27.416-100.875-82.831-109.519-151.029c-12.751-100.647,54.039-193.043,151.406-214.015
	c-11.665-0.656-23.565-0.267-35.568,1.251C105.65,138.922,30.383,236.023,43.852,342.328
	c12.254,96.729,93.731,167.737,188.387,169.622c0.004,0.003,0.008,0.006,0.012,0.009
	C335.464,513.984,420.614,435.687,429.61,335.492z"/>
<path style="fill:#EE8700;" d="M492.062,399.887c7.717,2.942,11.249,11.883,7.616,19.3c-37.316,76.175-127.251,112.69-208.064,81.88
	C210.81,470.26,168.006,383.136,190.873,301.453c2.226-7.953,10.814-12.274,18.531-9.332L492.062,399.887z"/>
<path style="fill:#EEBF00;" d="M459.335,387.41c-10.332,27.194-30.054,48.545-54.316,61.368c-4.541,2.388-9.235,4.49-14.063,6.273
	c-22.448,8.303-47.664,9.768-72.428,2.624c-0.513-0.143-1.025-0.297-1.538-0.461c-4.971-1.497-9.768-3.311-14.381-5.402
	c-24.324-11.029-43.41-29.808-55.116-52.451c-2.358-4.561-4.418-9.276-6.16-14.115c-7.985-22.202-9.307-47.038-2.265-71.444
	c0.902-3.137,1.927-6.201,3.065-9.205l90.633,34.554l35.046,13.366L459.335,387.41z"/>
<path style="fill:#FFD422;" d="M405.019,448.778c-4.541,2.388-9.235,4.49-14.063,6.273l-35.306-91.346
	c-0.654-1.693-3.055-1.68-3.69,0.021l-34.97,93.488c-4.971-1.497-9.768-3.311-14.381-5.402l35.206-94.149
	c0.629-1.683-1.134-3.263-2.738-2.454l-87.584,44.152c-2.358-4.561-4.418-9.276-6.16-14.115l91.432-46.095l35.046,13.366
	L405.019,448.778z"/>
<g>
</g>
<g>
</g>
<g>
</g>
<g>
</g>
<g>
</g>
<g>
</g>
<g>
</g>
<g>
</g>
<g>
</g>
<g>
</g>
<g>
</g>
<g>
</g>
<g>
</g>
<g>
</g>
<g>
</g>
</svg>
