<?xml version="1.0" encoding="iso-8859-1"?>
<!-- Generator: Adobe Illustrator 19.0.0, SVG Export Plug-In . SVG Version: 6.00 Build 0)  -->
<svg version="1.1" id="Capa_1" xmlns="http://www.w3.org/2000/svg" xmlns:xlink="http://www.w3.org/1999/xlink" x="0px" y="0px"
	 viewBox="0 0 512 512" style="enable-background:new 0 0 512 512;" xml:space="preserve">
<path style="fill:#FFD422;" d="M503.608,264.81c4.923-1.032,8.392-5.462,8.392-10.492v-30.482l-246.192-81.335
	c-4.127-1.363-8.618-0.425-11.978,2.331c-8.773,7.195-19.993,11.512-32.227,11.512c-23.862,0-43.894-16.442-49.383-38.613
	c-1.03-4.16-4.115-7.503-8.184-8.847l-55.763-18.425c-4.393-1.958-9.366-2.134-13.884-0.518C39.372,109.544,0,162.095,0,223.836
	v35.796c0,5.178,3.674,9.703,8.778,10.574c24.428,4.171,43.027,25.45,43.027,51.064s-18.599,46.893-43.027,51.064
	C3.674,373.207,0,377.732,0,382.91v26.606c0,7.522,6.103,13.635,13.635,13.635h80.108c4.501,0,8.497-2.813,10.082-7.025
	c5.735-15.23,20.434-26.058,37.664-26.058s31.93,10.827,37.664,26.058c1.586,4.212,5.581,7.025,10.082,7.025H327.47
	c5.06,0,9.531-3.47,10.6-8.416c6.532-30.211,33.414-52.838,65.574-52.838c32.168,0,59.043,22.627,65.574,52.838
	c1.069,4.946,5.539,8.416,10.599,8.416h18.547c7.532,0,13.635-6.113,13.635-13.635v-54.561c0-5.03-3.47-9.46-8.393-10.492
	c-18.446-3.868-32.294-20.226-32.294-39.822C471.312,285.037,485.162,268.678,503.608,264.81z"/>
<path style="fill:#EEBF00;" d="M471.312,304.642c0,19.596,13.85,35.954,32.294,39.822c4.923,1.032,8.393,5.462,8.393,10.492v54.561
	c0,7.522-6.103,13.635-13.635,13.635h-18.547c-5.06,0-9.53-3.47-10.599-8.416c-6.531-30.211-33.405-52.838-65.574-52.838
	c-32.159,0-59.042,22.627-65.574,52.838c-1.069,4.946-5.54,8.416-10.6,8.416H189.237c-4.501,0-8.497-2.813-10.082-7.025
	c-5.735-15.23-20.434-26.058-37.664-26.058c-17.231,0-31.93,10.828-37.664,26.058c-1.586,4.212-5.581,7.025-10.082,7.025H13.635
	C6.103,423.151,0,417.038,0,409.516V382.91c0-5.178,3.674-9.703,8.778-10.574c24.428-4.171,43.027-25.45,43.027-51.064
	c0-25.615-18.599-46.893-43.027-51.064C3.674,269.336,0,264.811,0,259.633v-35.796h512v30.482c0,5.03-3.47,9.46-8.392,10.492
	C485.162,268.678,471.312,285.037,471.312,304.642z"/>
<path style="fill:#FFDA44;" d="M512,223.836H0c0-61.741,39.372-114.292,94.389-133.895c4.517-1.616,9.491-1.44,13.884,0.518
	l55.762,18.425c4.069,1.345,7.154,4.687,8.184,8.847c5.489,22.172,25.52,38.613,49.383,38.613c12.234,0,23.455-4.317,32.227-11.512
	c3.36-2.756,7.853-3.695,11.978-2.331L512,223.836z"/>
<g>
	<circle style="fill:#DDB200;" cx="120.24" cy="288.793" r="32.119"/>
	<circle style="fill:#DDB200;" cx="221.601" cy="362.822" r="27.49"/>
	<circle style="fill:#DDB200;" cx="303.868" cy="283.488" r="27.49"/>
	<circle style="fill:#DDB200;" cx="416.616" cy="310.841" r="18.097"/>
	
		<ellipse transform="matrix(-0.0177 0.9998 -0.9998 -0.0177 335.6938 46.1067)" style="fill:#DDB200;" cx="145.198" cy="187.955" rx="14.485" ry="17.634"/>
	
		<ellipse transform="matrix(0.0078 1 -1 0.0078 462.1322 -89.8933)" style="fill:#DDB200;" cx="276.365" cy="187.929" rx="13.631" ry="16.18"/>
	<path style="fill:#DDB200;" d="M105.952,145.696c-2.186,0.694-4.559,1.15-7.056,1.305c-11.667,0.725-21.551-5.398-22.069-13.687
		c-0.508-8.289,8.537-15.593,20.214-16.319c3.802-0.238,7.408,0.259,10.568,1.305c6.548,2.197,11.148,6.807,11.49,12.392
		C119.504,137.2,114.002,143.116,105.952,145.696z"/>
</g>
<g>
	<path style="fill:#CCA400;" d="M124.208,317.865c1.585,0.746,3.202,1.347,4.839,1.813c-7.191,2.062-15.137,1.616-22.452-1.813
		c-16.06-7.532-22.97-26.659-15.438-42.718c6.786-14.485,23.012-21.52,37.901-17.241c-8.631,2.456-16.184,8.486-20.287,17.241
		C101.237,291.206,108.148,310.332,124.208,317.865z"/>
	<path style="fill:#CCA400;" d="M230.398,388.869c-10.527,3.564-22.608,0.477-30.068-8.631c-9.615-11.749-7.885-29.073,3.865-38.688
		c7.605-6.227,17.552-7.698,26.224-4.766c-3.057,1.026-5.968,2.611-8.61,4.766c-11.749,9.615-13.48,26.939-3.865,38.688
		C221.332,384.382,225.684,387.273,230.398,388.869z"/>
	<path style="fill:#CCA400;" d="M312.664,309.524c-10.527,3.564-22.618,0.477-30.078-8.631c-9.615-11.749-7.885-29.063,3.875-38.678
		c7.605-6.227,17.552-7.698,26.224-4.766c-3.057,1.026-5.968,2.611-8.61,4.766c-11.76,9.615-13.49,26.928-3.875,38.678
		C303.588,305.038,307.94,307.928,312.664,309.524z"/>
	<path style="fill:#CCA400;" d="M425.434,326.651c-7.512,4.207-17.179,2.549-22.815-4.352c-6.331-7.729-5.191-19.137,2.538-25.467
		c5.916-4.828,13.967-5.305,20.266-1.803c-0.922,0.518-1.803,1.119-2.652,1.803c-7.729,6.331-8.869,17.738-2.538,25.467
		C421.724,324.123,423.496,325.573,425.434,326.651z"/>
	<path style="fill:#CCA400;" d="M154.089,200.495c-2.684,1.285-5.823,1.989-9.159,1.938c-9.729-0.176-17.51-6.797-17.365-14.796
		c0.135-7.999,8.144-14.35,17.883-14.174c3.067,0.052,5.947,0.756,8.444,1.938c-5.139,2.445-8.62,6.983-8.714,12.236
		C145.075,193.108,148.681,197.936,154.089,200.495z"/>
	<path style="fill:#CCA400;" d="M285.156,199.376c-2.497,1.368-5.471,2.176-8.672,2.197c-8.942,0.073-16.225-5.968-16.288-13.5
		c-0.062-7.522,7.139-13.687,16.07-13.759c3.305-0.021,6.382,0.787,8.952,2.207c-4.486,2.445-7.45,6.724-7.408,11.553
		C277.851,192.828,280.763,196.983,285.156,199.376z"/>
	<path style="fill:#CCA400;" d="M105.952,145.696c-2.186,0.694-4.559,1.15-7.056,1.305c-11.667,0.725-21.551-5.398-22.069-13.687
		c-0.508-8.289,8.537-15.593,20.214-16.319c3.802-0.238,7.408,0.259,10.568,1.305c-8.051,2.58-13.573,8.496-13.169,15.013
		C94.793,138.909,99.404,143.52,105.952,145.696z"/>
</g>
<path style="fill:#FFCD00;" d="M108.273,90.461c-4.393-1.958-9.366-2.134-13.884-0.518C39.372,109.546,0,162.097,0,223.838h36.264
	c0-57.628,34.305-107.247,83.613-129.544L108.273,90.461z"/>
<path style="fill:#DDB200;" d="M45.039,372.332c24.431-4.165,43.029-25.447,43.029-51.059s-18.598-46.894-43.029-51.069
	c-5.098-0.87-8.776-5.398-8.776-10.568v-35.797H0v35.797c0,5.17,3.678,9.698,8.776,10.568c24.431,4.175,43.029,25.457,43.029,51.069
	s-18.598,46.894-43.029,51.059C3.678,373.203,0,377.731,0,382.911v26.607c0,7.522,6.103,13.635,13.635,13.635h36.264
	c-7.532,0-13.635-6.113-13.635-13.635v-26.607C36.264,377.731,39.942,373.203,45.039,372.332z"/>
<g>
</g>
<g>
</g>
<g>
</g>
<g>
</g>
<g>
</g>
<g>
</g>
<g>
</g>
<g>
</g>
<g>
</g>
<g>
</g>
<g>
</g>
<g>
</g>
<g>
</g>
<g>
</g>
<g>
</g>
</svg>
