<?xml version="1.0" encoding="iso-8859-1"?>
<!-- Generator: Adobe Illustrator 19.0.0, SVG Export Plug-In . SVG Version: 6.00 Build 0)  -->
<svg version="1.1" id="Capa_1" xmlns="http://www.w3.org/2000/svg" xmlns:xlink="http://www.w3.org/1999/xlink" x="0px" y="0px"
	 viewBox="0 0 512 512" style="enable-background:new 0 0 512 512;" xml:space="preserve">
<path style="fill:#47821C;" d="M452.104,258.783c8.156-5.538,10.279-16.639,4.739-24.799c-6.498-9.566-14.261-17.638-22.613-24.446
	h59.918c9.859,0,17.852-7.993,17.852-17.852s-7.993-17.852-17.852-17.852H434.23c8.352-6.808,16.116-14.881,22.613-24.448
	c5.542-8.158,3.418-19.26-4.739-24.798c-8.156-5.539-19.258-3.418-24.798,4.739c-17.633,25.964-53.254,40.226-84.245,44.709
	c-12.3,1.772-19.09,15.318-13.096,26.233c2.716,4.952,7.767,8.512,13.711,9.164c0.576,0.063,33.511,11.353,83.629,44.614
	C435.521,259.497,443.947,264.322,452.104,258.783z"/>
<path style="fill:#CC7400;" d="M372.92,191.689c0,41.256-33.591,73.925-73.78,73.925c-0.249,0-0.508,0-0.756-0.01
	c-2.569-0.021-5.158-0.176-7.769-0.476l-7.769-0.891l-76.743-8.753l-15.537-1.771L71.895,240.164l-15.537-1.771l-16.252-1.854
	C17.256,233.929,0,214.59,0,191.585c0-23.016,17.277-42.354,40.148-44.954l79.871-9.053l15.537-1.761l75.727-8.587l15.537-1.761
	l36.253-4.112l15.537-1.761l12.057-1.367C334.512,113.258,372.92,147.564,372.92,191.689z"/>
<path style="fill:#AA6100;" d="M372.92,191.689c0,4.723-0.445,9.343-1.284,13.807c-7.012-37.216-41.826-64.085-80.969-59.641
	l-12.057,1.367l-15.537,1.761l-36.253,4.112l-15.537,1.761l-75.727,8.587l-15.537,1.761l-79.871,9.053
	c-18.095,2.061-32.69,14.594-37.993,31.147C0.756,201.042,0,196.391,0,191.585c0-23.016,17.277-42.354,40.148-44.954l79.871-9.053
	l15.537-1.761l75.727-8.587l15.537-1.761l36.253-4.112l15.537-1.761l12.057-1.367C334.512,113.258,372.92,147.564,372.92,191.689z"
	/>
<path style="fill:#5EAC24;" d="M452.104,323.1c8.156-5.538,10.279-16.639,4.739-24.799c-6.498-9.566-14.261-17.638-22.613-24.446
	h59.918c9.859,0,17.852-7.993,17.852-17.852c0-9.859-7.993-17.852-17.852-17.852H434.23c8.352-6.808,16.116-14.881,22.613-24.448
	c5.542-8.158,3.418-19.26-4.739-24.798c-8.156-5.539-19.258-3.418-24.798,4.739c-17.633,25.964-53.254,40.226-84.245,44.709
	c-12.3,1.772-19.09,15.318-13.096,26.233c2.716,4.952,7.767,8.512,13.711,9.164c0.576,0.063,37.655,9.184,83.629,44.614
	C435.116,324.38,443.947,328.639,452.104,323.1z"/>
<path style="fill:#663A00;" d="M298.383,215.73v49.874c-2.569-0.021-5.158-0.176-7.769-0.476l-7.769-0.891V215.73
	c0-4.288,3.48-7.769,7.769-7.769C294.903,207.961,298.383,211.441,298.383,215.73z"/>
<g>
	<path style="fill:#884D00;" d="M71.895,178.151v62.013l-15.537-1.771v-60.242c0-4.288,3.48-7.769,7.769-7.769
		C68.415,170.382,71.895,173.863,71.895,178.151z"/>
	<path style="fill:#884D00;" d="M135.555,135.818v35.062c0,4.299-3.47,7.769-7.769,7.769c-4.288,0-7.769-3.47-7.769-7.769v-33.301
		L135.555,135.818z"/>
</g>
<path style="fill:#663A00;" d="M206.104,235.71v19.773l-15.537-1.771V235.71c0-4.288,3.48-7.769,7.769-7.769
	C202.634,227.942,206.104,231.422,206.104,235.71z"/>
<path style="fill:#884D00;" d="M226.82,125.47v23.078c0,4.299-3.47,7.769-7.769,7.769c-4.288,0-7.769-3.47-7.769-7.769v-21.317
	L226.82,125.47z"/>
<path style="fill:#FF9811;" d="M372.92,256.002c0,4.848-0.466,9.571-1.357,14.139c-6.619,34.347-36.968,59.797-72.444,59.797
	c-0.249,0-0.487,0-0.735-0.01c-2.569-0.021-5.158-0.176-7.769-0.476l-7.769-0.891l-88.623-10.109l-15.537-1.782L71.895,304.477
	l-15.537-1.771l-16.252-1.854c-17.95-2.041-32.452-14.429-37.838-30.794C0.798,265.593,0,260.839,0,255.908
	c0-23.016,17.277-42.364,40.148-44.954l79.871-9.053l15.537-1.761l107.982-12.243l15.537-1.761l31.592-3.584
	c10.213-1.16,20.126-0.186,29.324,2.548c5.459,1.616,10.669,3.853,15.537,6.629C357.725,204.377,372.92,228.242,372.92,256.002z"/>
<path style="fill:#EE8700;" d="M371.563,270.14c-6.619,34.347-36.968,59.797-72.444,59.797c-0.249,0-0.487,0-0.735-0.01
	c-2.569-0.021-5.158-0.176-7.769-0.476l-7.769-0.891l-88.623-10.109l-15.537-1.782L71.895,304.477l-15.537-1.771l-16.252-1.854
	c-17.95-2.041-32.452-14.429-37.838-30.794c5.397-16.376,19.908-28.764,37.879-30.794l79.871-9.053l15.537-1.761l107.982-12.243
	l15.537-1.761l31.592-3.584c10.213-1.16,20.126-0.186,29.324,2.548c5.459,1.616,10.669,3.853,15.537,6.629
	C353.84,230.469,367.389,248.544,371.563,270.14z"/>
<g>
	<path style="fill:#AA6100;" d="M298.383,280.043v49.884c-2.569-0.021-5.158-0.176-7.769-0.476l-7.769-0.891v-48.517
		c0-4.288,3.48-7.769,7.769-7.769C294.903,272.274,298.383,275.754,298.383,280.043z"/>
	<path style="fill:#AA6100;" d="M71.895,249.725v54.753l-15.537-1.771v-52.981c0-4.288,3.48-7.769,7.769-7.769
		C68.415,241.956,71.895,245.436,71.895,249.725z"/>
	<path style="fill:#AA6100;" d="M259.075,186.137v42.478c0,4.299-3.48,7.769-7.769,7.769c-4.299,0-7.769-3.47-7.769-7.769v-40.717
		L259.075,186.137z"/>
	<path style="fill:#AA6100;" d="M135.555,200.141v35.663c0,4.288-3.47,7.769-7.769,7.769c-4.288,0-7.769-3.48-7.769-7.769v-33.902
		L135.555,200.141z"/>
	<path style="fill:#AA6100;" d="M194.223,291.903v26.548l-15.537-1.782v-24.766c0-4.288,3.48-7.769,7.769-7.769
		C190.753,284.134,194.223,287.614,194.223,291.903z"/>
	<path style="fill:#AA6100;" d="M335.527,191.73v24.694c0,4.288-3.48,7.769-7.768,7.769c-4.299,0-7.769-3.48-7.769-7.769v-31.323
		C325.449,186.717,330.659,188.954,335.527,191.73z"/>
</g>
<path style="fill:#6DC82A;" d="M511.997,320.315c0,9.861-7.986,17.857-17.847,17.857h-59.921
	c8.349,6.805,16.117,14.874,22.612,24.445c5.542,8.162,3.418,19.266-4.734,24.797c-8.162,5.542-19.266,3.418-24.797-4.734
	c-8.359-12.316-20.271-21.348-32.483-27.936c-24.745-13.352-50.765-16.635-51.148-16.676c-5.945-0.653-11-4.216-13.714-9.167
	c-5.997-10.917,0.798-24.466,13.093-26.237c17.339-2.507,36.129-8.069,52.412-17.039c12.813-7.064,24.072-16.231,31.841-27.666
	c5.531-8.162,16.635-10.275,24.797-4.744c8.152,5.542,10.275,16.645,4.734,24.807c-6.494,9.56-14.263,17.64-22.612,24.445h59.921
	C504.011,302.468,511.997,310.464,511.997,320.315z"/>
<path style="fill:#EE8700;" d="M372.92,320.315c0,41.277-33.591,73.936-73.801,73.936c-0.249,0-0.487,0-0.735-0.01
	c-2.569-0.021-5.158-0.176-7.769-0.476l-7.769-0.891l-88.623-10.109l-15.537-1.771L71.895,368.801l-15.537-1.771l-16.252-1.854
	C17.256,362.565,0,343.227,0,320.221c0-7.023,1.605-13.714,4.506-19.68c6.567-13.59,19.753-23.471,35.642-25.274l79.871-9.053
	l15.537-1.761l107.972-12.243l15.537-1.761l31.602-3.584c10.203-1.16,20.115-0.186,29.313,2.538
	c5.459,1.616,10.669,3.853,15.537,6.629c16.739,9.54,29.5,25.45,34.762,44.602C371.998,306.891,372.92,313.478,372.92,320.315z"/>
<path style="fill:#FF9811;" d="M370.279,300.634c-8.659,31.519-37.61,54.255-71.16,54.255c-2.807,0-5.645-0.155-8.504-0.487
	L40.106,325.815c-15.868-1.813-29.044-11.694-35.601-25.274c6.567-13.59,19.753-23.471,35.642-25.274l250.519-28.402
	C327.728,242.66,360.894,266.515,370.279,300.634z"/>
<g>
	<path style="fill:#CC7400;" d="M298.383,344.356v49.884c-2.569-0.021-5.158-0.176-7.769-0.476l-7.769-0.891v-48.517
		c0-4.288,3.47-7.768,7.769-7.768C294.903,336.587,298.383,340.067,298.383,344.356z"/>
	<path style="fill:#CC7400;" d="M71.895,314.048V368.8l-15.537-1.771v-52.981c0-4.299,3.48-7.769,7.769-7.769
		C68.415,306.279,71.895,309.749,71.895,314.048z"/>
	<path style="fill:#CC7400;" d="M259.064,250.45v53.686c0,4.288-3.47,7.769-7.769,7.769c-4.288,0-7.769-3.48-7.769-7.769v-51.925
		L259.064,250.45z"/>
	<path style="fill:#CC7400;" d="M135.555,264.454v52.857c0,4.288-3.47,7.769-7.769,7.769c-4.288,0-7.769-3.48-7.769-7.769v-51.096
		L135.555,264.454z"/>
	<path style="fill:#CC7400;" d="M194.223,356.226v26.537l-15.537-1.771v-24.766c0-4.288,3.48-7.769,7.769-7.769
		S194.223,351.938,194.223,356.226z"/>
	<path style="fill:#CC7400;" d="M335.517,256.033v24.704c0,4.288-3.47,7.769-7.769,7.769c-4.288,0-7.769-3.48-7.769-7.769v-31.333
		C325.439,251.019,330.649,253.257,335.517,256.033z"/>
</g>
<path style="fill:#884D00;" d="M278.61,119.597l-0.083,29.976c0,4.299-3.47,7.769-7.768,7.769c-4.288,0-7.769-3.47-7.769-7.769
	l0.083-28.215L278.61,119.597z"/>
<g>
</g>
<g>
</g>
<g>
</g>
<g>
</g>
<g>
</g>
<g>
</g>
<g>
</g>
<g>
</g>
<g>
</g>
<g>
</g>
<g>
</g>
<g>
</g>
<g>
</g>
<g>
</g>
<g>
</g>
</svg>
