<?xml version="1.0" encoding="iso-8859-1"?>
<!-- Generator: Adobe Illustrator 19.0.0, SVG Export Plug-In . SVG Version: 6.00 Build 0)  -->
<svg version="1.1" id="Capa_1" xmlns="http://www.w3.org/2000/svg" xmlns:xlink="http://www.w3.org/1999/xlink" x="0px" y="0px"
	 viewBox="0 0 512 512" style="enable-background:new 0 0 512 512;" xml:space="preserve">
<path style="fill:#91DC5A;" d="M366.422,216.507c-7.655-16.55-21.55-29.67-38.627-36.303c-8.026-3.106-16.541-4.71-25.151-4.728
	c2.334-5.608,24.993-58.007,61.903-70.667c1.415-0.486,1.325-2.506-0.132-2.841c-9.941-2.283-32.748-5.65-55.354,3.12
	c12.738-21.798,27.815-41.253,43.023-46.469c1.415-0.486,1.343-2.595-0.132-2.841c-20.441-3.413-46.742,0.82-69.818,15.158
	c4.12-20.183,1.343-44.318-19.935-68.149c-3.344-3.745-9.201-3.707-12.502,0.075c-9.532,10.923-25.869,35.006-20.204,66.995
	c-26.542-16.218-53.22-15.673-63.202-13.379c-1.458,0.335-1.388,2.029-0.132,2.841c16.18,10.467,31.064,29.11,43.393,48.427
	c-24.595-12.263-50.972-8.287-61.893-5.779c-1.458,0.335-1.548,2.356-0.132,2.841c39.01,13.38,61.909,70.664,61.909,70.664h0.357
	c-10.79,0.326-17.144,1.482-25.513,4.73c-17.077,6.632-30.972,19.753-38.627,36.303c-9.205,19.939-5.961,20.744-6.446,178.496
	c0,74.444,68.245,127.142,136.398,115.344c12.945-2.231,25.889-6.798,38.358-13.988c35.889-20.641,58.906-58.989,58.906-101.356
	C372.372,234.462,375.368,235.898,366.422,216.507z"/>
<path style="fill:#4E901E;" d="M249.697,2.864c-14.106,16.164-43.131,61.144,6.336,117.931c0,0,58.033-59.917,6.166-118.007
	C258.855-0.958,252.997-0.92,249.697,2.864z"/>
<path style="fill:#47821C;" d="M264.116,110.766c-4.546,6.374-8.089,10.031-8.089,10.031
	c-49.464-56.789-20.434-101.769-6.333-117.937c3.306-3.781,9.163-3.822,12.5-0.072c2.955,3.306,5.558,6.622,7.831,9.938
	C257.195,28.13,235.51,64.401,264.116,110.766z"/>
<path style="fill:#5EAC24;" d="M352.083,58.62c-39.01,13.38-77.166,120.45-77.166,120.45h-46.455
	c0.714-99.518,77.162-131.027,123.488-123.291C353.426,56.025,353.498,58.135,352.083,58.62z"/>
<path style="fill:#6DC82A;" d="M166.158,59.321c43.648,28.237,77.885,115.961,77.885,115.961h46.455
	C269.123,54.155,185.802,51.997,166.291,56.48C164.833,56.814,164.902,58.509,166.158,59.321z"/>
<path style="fill:#91DC5A;" d="M147.659,101.969c-1.458,0.335-1.548,2.356-0.132,2.841c39.01,13.38,61.909,70.664,61.909,70.664
	h46.455C236.033,88.305,167.171,97.487,147.659,101.969z"/>
<path style="fill:#7ED63E;" d="M364.415,101.969c-19.512-4.483-88.573-13.167-108.43,74.004h46.455c0,0,23.097-57.781,62.108-71.163
	C365.962,104.325,365.873,102.304,364.415,101.969z"/>
<path style="fill:#CC7400;" d="M372.868,395.003c0,42.367-23.017,80.715-58.906,101.356c-12.469,7.19-25.414,11.757-38.358,13.988
	c-68.152,11.798-136.398-40.9-136.398-115.344c0.486-157.752-2.758-158.558,6.446-178.496c7.655-16.55,21.55-29.67,38.627-36.303
	c14.721-5.713,23.193-4.959,60.58-4.587c11.178,0.103,24.949,0.176,42.243,0.031h0.176c4.794-0.041,9.866-0.103,15.217-0.176
	c1.984,0,3.967,0.083,5.94,0.258c6.622,0.558,13.141,2.066,19.36,4.473c17.077,6.632,30.972,19.753,38.627,36.303
	C375.368,235.898,372.372,234.462,372.868,395.003z"/>
<path style="fill:#EE8700;" d="M372.868,395.003c0,42.367-23.017,80.715-58.906,101.356c-12.469,7.19-25.414,11.757-38.358,13.988
	c-53.152-9.122-97.833-55.115-97.833-115.344c0.486-157.752-2.758-158.558,6.446-178.496c7.655-16.55,21.55-29.67,38.627-36.303
	c7.428-2.882,13.254-4.122,22.015-4.587c9.163-0.496,21.519-0.145,42.243,0.031h0.176c6.25,0.052,13.254,0.083,21.158,0.083
	c6.622,0.558,13.141,2.066,19.36,4.473c17.077,6.632,30.972,19.753,38.627,36.303C375.368,235.898,372.372,234.462,372.868,395.003z
	"/>
<path style="fill:#AA6100;" d="M369.555,289.299l-31.489-21.741c-4.417-3.05-4.417-9.577,0-12.627l29.039-20.048
	c2.722-1.879,3.933-5.294,3.013-8.472c-0.016-0.055-0.032-0.108-0.048-0.163c-1.467-5.02-7.428-7.126-11.732-4.154l-38.695,26.72
	c-2.624,1.812-6.094,1.812-8.718,0l-32.106-22.166c-4.417-3.05-4.417-9.578,0-12.627l34.995-24.16
	c5.838-4.03,3.551-13.157-3.499-13.946c-0.084-0.009-0.168-0.019-0.252-0.028c-1.841-0.199-3.695,0.267-5.219,1.318L260.396,207.9
	c-2.624,1.812-6.095,1.812-8.719,0l-44.447-30.695c-1.524-1.053-3.378-1.518-5.219-1.318c-0.084,0.009-0.168,0.019-0.252,0.028
	c-7.05,0.788-9.337,9.916-3.499,13.946l34.995,24.16c4.417,3.05,4.417,9.578,0,12.627l-32.106,22.166
	c-2.624,1.811-6.094,1.811-8.718,0l-38.695-26.72c-4.304-2.971-10.265-0.866-11.732,4.154c-0.015,0.055-0.032,0.108-0.048,0.163
	c-0.92,3.178,0.29,6.592,3.014,8.472l29.039,20.048c4.417,3.05,4.417,9.577,0,12.627l-31.489,21.741
	c-2.074,1.432-3.313,3.792-3.313,6.313v13.075c0,2.521,1.239,4.881,3.313,6.313l31.491,21.742c4.417,3.05,4.417,9.576,0.001,12.626
	l-31.494,21.751c-2.074,1.433-3.312,3.792-3.312,6.313v13.076c0,2.521,1.239,4.881,3.313,6.313l31.491,21.742
	c4.417,3.05,4.417,9.576,0.001,12.626l-16.971,11.721c-3.275,2.262-4.299,6.665-2.311,10.115c0.026,0.044,0.052,0.09,0.077,0.134
	c2.251,3.894,7.328,5.067,11.029,2.511l26.596-18.364c2.624-1.812,6.094-1.812,8.718,0l32.107,22.166
	c4.417,3.05,4.417,9.577,0,12.626l-24.486,16.906c-4.979,3.438-4.194,10.995,1.366,13.384c0.058,0.025,0.115,0.05,0.173,0.073
	c2.413,1.032,5.193,0.734,7.353-0.757l34.017-23.488c2.624-1.812,6.094-1.812,8.718,0l34.017,23.488
	c2.16,1.492,4.939,1.789,7.354,0.757c0.058-0.025,0.115-0.05,0.173-0.073c5.56-2.389,6.345-9.944,1.366-13.384L278.82,472.1
	c-4.417-3.05-4.417-9.577,0-12.626l32.107-22.166c2.624-1.811,6.094-1.811,8.718,0l26.596,18.364
	c3.702,2.556,8.777,1.382,11.029-2.511c0.026-0.044,0.052-0.09,0.077-0.134c1.988-3.448,0.965-7.852-2.311-10.115l-16.971-11.721
	c-4.416-3.051-4.416-9.577,0.001-12.626l31.491-21.742c2.074-1.432,3.313-3.792,3.313-6.313v-13.076c0-2.521-1.238-4.88-3.312-6.313
	l-31.494-21.751c-4.416-3.051-4.416-9.577,0.001-12.626L369.558,315c2.074-1.432,3.313-3.792,3.313-6.313v-13.075
	C372.868,293.092,371.629,290.731,369.555,289.299z M260.396,232.757l32.108,22.174c4.416,3.051,4.416,9.577-0.001,12.626
	l-32.108,22.167c-2.624,1.811-6.094,1.811-8.717,0l-32.108-22.167c-4.417-3.05-4.417-9.576-0.001-12.626l32.108-22.174
	C254.301,230.945,257.772,230.945,260.396,232.757z M292.504,349.369l-32.108,22.174c-2.624,1.812-6.095,1.812-8.719,0
	l-32.108-22.174c-4.416-3.051-4.416-9.577,0.001-12.626l32.108-22.167c2.624-1.811,6.094-1.811,8.717,0l32.108,22.167
	C296.921,339.791,296.922,346.318,292.504,349.369z M160.321,295.841l32.108-22.174c2.624-1.812,6.095-1.812,8.719,0l32.108,22.174
	c4.416,3.051,4.416,9.577-0.001,12.626l-32.108,22.167c-2.624,1.811-6.094,1.811-8.717,0l-32.108-22.167
	C155.905,305.417,155.905,298.891,160.321,295.841z M160.323,377.653l32.108-22.167c2.624-1.811,6.094-1.811,8.717,0l32.108,22.167
	c4.417,3.05,4.417,9.576,0.001,12.626l-32.108,22.174c-2.624,1.812-6.095,1.812-8.719,0l-32.108-22.174
	C155.905,387.228,155.905,380.702,160.323,377.653z M251.677,453.362l-32.108-22.174c-4.416-3.051-4.416-9.577,0.001-12.626
	l32.108-22.167c2.624-1.811,6.094-1.811,8.717,0l32.108,22.167c4.417,3.05,4.417,9.577,0.001,12.626l-32.108,22.174
	C257.772,455.175,254.301,455.175,251.677,453.362z M351.752,390.279l-32.108,22.174c-2.624,1.812-6.095,1.812-8.719,0
	l-32.108-22.174c-4.416-3.051-4.416-9.577,0.001-12.626l32.108-22.167c2.624-1.811,6.094-1.811,8.717,0l32.108,22.167
	C356.168,380.702,356.169,387.228,351.752,390.279z M310.925,330.634l-32.108-22.167c-4.417-3.05-4.417-9.576-0.001-12.626
	l32.108-22.174c2.624-1.812,6.095-1.812,8.719,0l32.108,22.174c4.416,3.051,4.416,9.577-0.001,12.626l-32.108,22.167
	C317.02,332.445,313.549,332.445,310.925,330.634z"/>
<g>
</g>
<g>
</g>
<g>
</g>
<g>
</g>
<g>
</g>
<g>
</g>
<g>
</g>
<g>
</g>
<g>
</g>
<g>
</g>
<g>
</g>
<g>
</g>
<g>
</g>
<g>
</g>
<g>
</g>
</svg>
