<?xml version="1.0" encoding="iso-8859-1"?>
<!-- Generator: Adobe Illustrator 19.0.0, SVG Export Plug-In . SVG Version: 6.00 Build 0)  -->
<svg version="1.1" id="Capa_1" xmlns="http://www.w3.org/2000/svg" xmlns:xlink="http://www.w3.org/1999/xlink" x="0px" y="0px"
	 viewBox="0 0 512 512" style="enable-background:new 0 0 512 512;" xml:space="preserve">
<g>
	<path style="fill:#78B9EB;" d="M388.099,135.691l-34.143-63.292v-0.001c0-0.001,0.001-0.001,0.001-0.001h-0.001V23.12
		C353.957,10.352,343.605,0,330.837,0H181.615c-12.768,0-23.12,10.352-23.12,23.12V72.4c-35.921,66.391-35.233,63.908-37.418,69.905
		c-2.06,5.582-3.127,11.506-3.127,17.493v318.058c0,18.859,15.285,34.144,34.144,34.144h162.949v-0.001h44.963
		c18.864,0,34.153-15.29,34.153-34.143V159.703C394.159,151.323,392.077,143.067,388.099,135.691z"/>
	<path style="fill:#78B9EB;" d="M353.957,92.882H158.496V23.12c0-12.768,10.351-23.12,23.119-23.12h149.221
		c12.768,0,23.12,10.351,23.12,23.12v69.762H353.957z"/>
</g>
<path style="fill:#5AAAE7;" d="M181.615,0c-12.773,0-23.121,10.349-23.121,23.121v69.757h32.838V23.121
	C191.331,10.349,201.69,0,214.452,0H181.615z"/>
<path style="fill:#78B9EB;" d="M353.957,72.396c-34.614,66.644-33.931,64.195-35.947,69.91c-1.964,5.444-2.967,11.207-2.967,17.034
	V512H152.094c-18.859,0-34.144-15.285-34.144-34.144V159.799c0-5.987,1.067-11.912,3.127-17.493
	c2.186-5.997,1.498-3.514,37.421-69.91C158.498,72.396,353.957,72.396,353.957,72.396z"/>
<path style="fill:#5AAAE7;" d="M150.787,477.856v-318.06c0-5.987,1.067-11.913,3.128-17.486c2.186-5.998,1.502-3.522,37.427-69.912
	h-32.848c-35.914,66.39-35.231,63.914-37.416,69.912c-2.061,5.573-3.128,11.498-3.128,17.486v318.06
	c0,18.864,15.29,34.143,34.143,34.143h32.838C166.076,511.999,150.787,496.72,150.787,477.856z"/>
<path style="fill:#1E81CE;" d="M353.957,72.398H158.495c-36.008,66.552-35.304,64.076-37.416,69.912
	c-5.491,14.845-2.088,10.133-3.128,187.869h0.001v34.668c0,9.031,7.388,16.419,16.419,16.419s16.419-7.388,16.419-16.419v26.318
	c0,9.03,7.388,16.419,16.419,16.419c9.031,0,16.419-7.388,16.419-16.419v-47.47c0,9.03,7.388,16.419,16.419,16.419l0,0
	c9.03,0,16.419-7.388,16.419-16.419v21.152c0,9.031,7.388,16.419,16.419,16.419c9.031,0,16.419-7.388,16.419-16.419v26.318
	c0,9.03,7.388,16.419,16.419,16.419l0,0c9.03,0,16.419-7.388,16.419-16.419v-26.318c0,9.031,7.388,16.419,16.419,16.419l0,0
	c9.03,0,16.419-7.388,16.419-16.419V330.18h0.064c0.973-176.663-2.236-173.474,2.973-187.869
	C320,136.637,319.353,139.016,353.957,72.398z"/>
<g>
	<path style="fill:#1A6FB0;" d="M191.331,72.398h-32.838c-36.008,66.556-35.303,64.08-37.416,69.912
		c-5.49,14.844-2.092,10.131-3.128,187.869v34.671c0,9.023,7.386,16.419,16.419,16.419c9.033,0,16.419-7.396,16.419-16.419V330.18
		c1.046-177.738-2.362-173.025,3.128-187.869C156.028,136.479,155.324,138.954,191.331,72.398z"/>
	<path style="fill:#1A6FB0;" d="M394.159,159.703v318.153c0,18.853-15.29,34.143-34.153,34.143h-44.968V159.341
		c0-5.832,1.005-11.592,2.973-17.03c2.02-5.718,1.336-3.273,35.945-69.912l34.143,63.293
		C392.077,143.067,394.159,151.323,394.159,159.703z"/>
</g>
<g>
	<path style="fill:#B3D8F4;" d="M338.875,162.883h30.952c4.291,0,7.769-3.479,7.769-7.769c0-4.291-3.479-7.769-7.769-7.769h-30.952
		c-4.291,0-7.769,3.479-7.769,7.769C331.106,159.405,334.585,162.883,338.875,162.883z"/>
	<path style="fill:#B3D8F4;" d="M369.829,173.228h-30.952c-4.291,0-7.769,3.479-7.769,7.769c0,4.291,3.479,7.769,7.769,7.769h30.952
		c4.291,0,7.769-3.479,7.769-7.769C377.598,176.706,374.119,173.228,369.829,173.228z"/>
	<path style="fill:#B3D8F4;" d="M369.829,199.109h-30.952c-4.291,0-7.769,3.479-7.769,7.769c0,4.291,3.479,7.769,7.769,7.769h30.952
		c4.291,0,7.769-3.479,7.769-7.769C377.598,202.588,374.119,199.109,369.829,199.109z"/>
	<path style="fill:#B3D8F4;" d="M369.829,224.992h-30.952c-4.291,0-7.769,3.479-7.769,7.769c0,4.291,3.479,7.769,7.769,7.769h30.952
		c4.291,0,7.769-3.479,7.769-7.769C377.598,228.471,374.119,224.992,369.829,224.992z"/>
	<path style="fill:#B3D8F4;" d="M369.829,250.875h-30.952c-4.291,0-7.769,3.479-7.769,7.769c0,4.291,3.479,7.769,7.769,7.769h30.952
		c4.291,0,7.769-3.479,7.769-7.769C377.598,254.353,374.119,250.875,369.829,250.875z"/>
	<path style="fill:#B3D8F4;" d="M367.755,413.973c-4.291,0-7.769,3.479-7.769,7.769v66.297c0,4.291,3.479,7.769,7.769,7.769
		c4.291,0,7.769-3.479,7.769-7.769v-66.297C375.524,417.451,372.046,413.973,367.755,413.973z"/>
	<path style="fill:#B3D8F4;" d="M367.755,374.609c-4.291,0-7.769,3.479-7.769,7.769v8.287c0,4.291,3.479,7.769,7.769,7.769
		c4.291,0,7.769-3.479,7.769-7.769v-8.287C375.524,378.087,372.046,374.609,367.755,374.609z"/>
	<path style="fill:#B3D8F4;" d="M342.032,374.609c-4.291,0-7.769,3.479-7.769,7.769v105.661c0,4.291,3.479,7.769,7.769,7.769
		s7.769-3.479,7.769-7.769V382.378C349.801,378.087,346.322,374.609,342.032,374.609z"/>
</g>
<path style="fill:#165C92;" d="M365.255,286.561h-21.807c-2.515,0-4.573,2.058-4.573,4.573v61.813c0,2.515,2.058,4.573,4.573,4.573
	h21.807c2.515,0,4.573-2.057,4.573-4.573v-61.813C369.829,288.619,367.77,286.561,365.255,286.561z"/>
<path style="fill:#D1E7F8;" d="M264.053,223.473c15.624,33.332-7.087,72.776-43.862,74.433c-39.957,1.8-65.192-39.74-48.929-74.433
	l34.694-74.013c4.649-9.918,18.755-9.918,23.404,0L264.053,223.473z"/>
<g>
</g>
<g>
</g>
<g>
</g>
<g>
</g>
<g>
</g>
<g>
</g>
<g>
</g>
<g>
</g>
<g>
</g>
<g>
</g>
<g>
</g>
<g>
</g>
<g>
</g>
<g>
</g>
<g>
</g>
</svg>
