<?xml version="1.0" encoding="iso-8859-1"?>
<!-- Generator: Adobe Illustrator 19.0.0, SVG Export Plug-In . SVG Version: 6.00 Build 0)  -->
<svg version="1.1" id="Capa_1" xmlns="http://www.w3.org/2000/svg" xmlns:xlink="http://www.w3.org/1999/xlink" x="0px" y="0px"
	 viewBox="0 0 512.001 512.001" style="enable-background:new 0 0 512.001 512.001;" xml:space="preserve">
<path style="fill:#6DC82A;" d="M307.656,339.387L307.656,339.387c-25.422,0-46.992-18.657-50.656-43.814l-23.834-163.685
	c-4.496-30.881,19.448-58.565,50.656-58.565h59.71c30.955,0,54.827,27.26,50.742,57.945l-21.789,163.685
	C369.099,320.388,352.001,340.385,307.656,339.387z"/>
<path style="fill:#5EAC24;" d="M328.851,338c-6.245,1.073-13.284,1.559-21.19,1.383c-25.422,0-46.994-18.651-50.659-43.805
	L233.17,131.887c-4.5-30.882,19.446-58.565,50.648-58.565h33.029c-31.202,0-55.149,27.683-50.648,58.565l23.833,163.691
	C293.107,316.706,308.826,333.252,328.851,338z"/>
<path style="fill:#47821C;" d="M131.762,162.867c0,0-23.914-65.741,40.287-90.211c2.65-1.009,5.602-0.869,8.179,0.313l0,0
	c7.189,3.295,8.513,13.036,2.366,18.012c-14.187,11.483-31.591,34.484-23.659,75.543L131.762,162.867z"/>
<path style="fill:#FF0C38;" d="M75.806,411.369L75.806,411.369c-25.422,0-46.992-18.657-50.656-43.814L1.317,203.871
	c-4.496-30.881,19.448-58.565,50.656-58.565h59.71c30.955,0,54.827,27.26,50.742,57.945l-21.789,163.684
	C137.249,392.37,120.151,412.367,75.806,411.369z"/>
<path style="fill:#A5001E;" d="M204.347,411.369L204.347,411.369c25.422,0,46.992-18.657,50.656-43.814l23.834-163.685
	c4.496-30.881-19.448-58.565-50.656-58.565h-59.71c-30.955,0-54.827,27.26-50.742,57.945l21.789,163.685
	C142.903,392.37,160.002,412.367,204.347,411.369z"/>
<path style="fill:#C70024;" d="M213.537,203.87l-2.064,14.161l-21.768,149.519c-3.654,25.164-25.226,43.815-50.648,43.815
	c-2.735,0-5.429-0.217-8.051-0.63c-22.026-3.489-39.666-21.077-42.69-43.805L66.526,203.251
	c-4.087-30.686,19.787-57.946,50.741-57.946h45.622C194.091,145.305,218.037,172.988,213.537,203.87z"/>
<path style="fill:#A5001E;" d="M156.603,408.27c-5.491,2.013-11.405,3.096-17.547,3.096c-2.735,0-5.429-0.217-8.051-0.63
	c-22.026-3.489-39.666-21.077-42.69-43.805L66.526,203.251c-4.087-30.686,19.787-57.946,50.741-57.946h35.094
	c-30.955,0-54.829,27.259-50.741,57.946l21.789,163.681C125.978,386.285,139.149,401.911,156.603,408.27z"/>
<path style="fill:#47821C;" d="M380.241,90.885c0,0,23.914-65.741-40.287-90.211c-2.65-1.009-5.602-0.869-8.179,0.313l0,0
	c-7.189,3.295-8.513,13.036-2.366,18.012C343.596,30.482,361,53.483,353.068,94.542L380.241,90.885z"/>
<path style="fill:#4E901E;" d="M436.197,339.387L436.197,339.387c25.422,0,46.992-18.657,50.656-43.814l23.834-163.685
	c4.496-30.881-19.448-58.565-50.656-58.565h-59.71c-30.955,0-54.827,27.26-50.742,57.945l21.789,163.685
	C374.753,320.388,391.852,340.385,436.197,339.387z"/>
<path style="fill:#5EAC24;" d="M372.95,339.387L372.95,339.387c-25.422,0-46.992-18.657-50.656-43.814L298.46,131.888
	c-4.496-30.881,19.448-58.565,50.656-58.565h45.623c30.955,0,54.827,27.26,50.742,57.945l-21.789,163.685
	C420.305,320.388,398.609,339.387,372.95,339.387z"/>
<path style="fill:#4E901E;" d="M393.061,335.265c-6.193,2.663-13.005,4.118-20.117,4.118c-25.422,0-46.984-18.651-50.648-43.805
	l-23.833-163.691c-4.5-30.882,19.446-58.565,50.648-58.565h40.254c-31.202,0-55.149,27.683-50.648,58.565l23.833,163.691
	C365.193,313.692,377.115,328.432,393.061,335.265z"/>
<path style="fill:#C70024;" d="M98.502,409.715c-6.616,1.259-14.151,1.848-22.697,1.651c-25.422,0-46.994-18.651-50.659-43.815
	L1.314,203.87c-4.49-30.882,19.456-58.565,50.659-58.565h35.61c-31.213,0-55.159,27.683-50.659,58.565l23.833,163.681
	C63.78,388.308,78.994,404.636,98.502,409.715z"/>
<path style="fill:#FF0C38;" d="M278.832,203.87l-23.833,163.681c-3.664,25.164-25.226,43.815-50.648,43.815
	c-7.648,0.175-14.481-0.279-20.581-1.28c20.22-4.614,36.136-21.242,39.233-42.535l23.833-163.681
	c4.5-30.882-19.446-58.565-50.648-58.565h31.997C259.386,145.305,283.332,172.988,278.832,203.87z"/>
<path style="fill:#6DC82A;" d="M510.687,131.887l-23.833,163.691c-3.664,25.154-25.236,43.805-50.659,43.805
	c-7.648,0.175-14.481-0.279-20.581-1.28c20.22-4.614,36.146-21.242,39.243-42.525l23.833-163.691
	c4.49-30.882-19.446-58.565-50.659-58.565h31.997C491.241,73.322,515.178,101.005,510.687,131.887z"/>
<path style="fill:#47821C;" d="M263.801,263.463c0,0-23.914-65.741,40.287-90.211c2.65-1.009,5.602-0.869,8.179,0.313l0,0
	c7.189,3.295,8.513,13.036,2.366,18.012c-14.187,11.483-31.591,34.484-23.659,75.543L263.801,263.463z"/>
<g>
	<path style="fill:#FFCD00;" d="M207.846,511.964L207.846,511.964c-25.422,0-46.992-18.657-50.656-43.814l-23.834-163.684
		c-4.496-30.881,19.448-58.565,50.656-58.565h59.71c30.955,0,54.827,27.26,50.742,57.945L272.675,467.53
		C269.288,492.965,252.19,512.963,207.846,511.964z"/>
	<path style="fill:#FFCD00;" d="M394.106,419.634l16.769-115.168c4.496-30.881-19.448-58.565-50.656-58.565h-59.71
		c-30.955,0-54.826,27.26-50.742,57.945l21.789,163.685c3.385,25.436,20.484,45.434,64.829,44.435l0,0
		c25.422,0,46.992-18.657,50.656-43.814l1.968-13.515"/>
	<path style="fill:#FFCD00;" d="M360.044,419.634l16.769-115.168c4.496-30.881-19.448-58.565-50.656-58.565h-59.71
		c-30.955,0-54.827,27.26-50.742,57.945l21.789,163.685c3.385,25.436,20.484,45.434,64.829,44.435l0,0
		c25.422,0,46.992-18.657,50.656-43.814l1.968-13.515"/>
</g>
<path style="fill:#DDB200;" d="M273.138,511.964L273.138,511.964c-25.422,0-46.992-18.657-50.656-43.814l-23.834-163.685
	c-4.496-30.881,19.448-58.565,50.656-58.565h45.623c30.955,0,54.827,27.26,50.742,57.945L323.88,467.529
	C320.495,492.965,298.799,511.964,273.138,511.964z"/>
<path style="fill:#CCA400;" d="M292.23,508.266c-5.925,2.395-12.376,3.695-19.095,3.695c-25.422,0-46.984-18.651-50.648-43.815
	l-23.833-163.681c-4.5-30.882,19.446-58.565,50.648-58.565h38.19c-31.202,0-55.149,27.683-50.648,58.565l23.833,163.681
	C263.37,486.652,275.756,501.639,292.23,508.266z"/>
<g>
	<path style="fill:#DDB200;" d="M230.237,510.371c-6.544,1.218-13.975,1.775-22.388,1.59c-25.422,0-46.994-18.651-50.659-43.815
		l-23.833-163.681c-4.5-30.882,19.446-58.565,50.648-58.565H219.1c-31.202,0-55.149,27.683-50.648,58.565l23.833,163.681
		C195.319,488.985,210.626,505.355,230.237,510.371z"/>
	<path style="fill:#DDB200;" d="M410.876,304.465l-16.773,115.169l-5.099,35.001l-1.961,13.511
		c-1.837,12.582-8.144,23.533-17.175,31.347c-9.021,7.803-20.767,12.469-33.483,12.469c-8.154,0.186-15.39-0.341-21.789-1.486
		c7.937-1.961,15.183-5.77,21.211-10.982c9.031-7.813,15.338-18.765,17.175-31.347l1.961-13.511l5.099-35.001l16.773-115.169
		c4.49-30.882-19.446-58.565-50.659-58.565h34.061C391.431,245.9,415.367,273.583,410.876,304.465z"/>
</g>
<g>
</g>
<g>
</g>
<g>
</g>
<g>
</g>
<g>
</g>
<g>
</g>
<g>
</g>
<g>
</g>
<g>
</g>
<g>
</g>
<g>
</g>
<g>
</g>
<g>
</g>
<g>
</g>
<g>
</g>
</svg>
