<?xml version="1.0" encoding="iso-8859-1"?>
<!-- Generator: Adobe Illustrator 19.0.0, SVG Export Plug-In . SVG Version: 6.00 Build 0)  -->
<svg version="1.1" id="Capa_1" xmlns="http://www.w3.org/2000/svg" xmlns:xlink="http://www.w3.org/1999/xlink" x="0px" y="0px"
	 viewBox="0 0 512 512" style="enable-background:new 0 0 512 512;" xml:space="preserve">
<path style="fill:#AA6100;" d="M491.114,99.548c-13.471-10.839-31.488-12.074-46.814-4.119l6.796-67.877
	c0.415-4.15,2.853-7.834,6.557-9.753c4.316-2.251,10.811-6.464,18.697-14.183c7.865-7.709,21.104-2.293,21.218,8.715
	C497.796,36.299,496.769,69.635,491.114,99.548z"/>
<path style="fill:#884D00;" d="M476.35,3.616c-7.885,7.719-14.38,11.932-18.697,14.183c-3.704,1.919-6.142,5.603-6.557,9.753
	L444.3,95.429c8.56-4.441,17.96-6.018,26.935-4.659l3.797-76.582c0.197-4.015,0.861-7.823,1.909-11.123
	C476.734,3.242,476.547,3.429,476.35,3.616z"/>
<path style="fill:#DDB200;" d="M432.105,254.312c-67.884,70.074-207.393,134.495-399.65,57.993
	c-39.663-15.781-43.2-72.813-7.317-74.445c73.547-3.345,221.623,29.058,408.752-142.218c16.21-14.837,42.968-14.944,59.376-0.325
	l0,0c0.45,0.402,0.892,0.811,1.324,1.228c12.479,12.061,16.052,30.66,9.777,46.839C496.747,163.03,475.643,209.369,432.105,254.312z
	"/>
<path style="fill:#CCA400;" d="M504.364,143.385c-1.691,4.347-4.036,10.023-7.149,16.694c-1.847-3.082-4.109-5.966-6.775-8.539
	c-0.436-0.425-0.872-0.83-1.328-1.235c-16.404-14.619-43.162-14.505-59.369,0.322C242.61,321.906,94.53,289.503,20.989,292.854
	c-4.036,0.187-7.585,1.069-10.625,2.532c-17.026-22.816-12.586-56.277,14.775-57.522c73.542-3.351,221.621,29.051,408.754-142.228
	c16.207-14.827,42.965-14.941,59.369-0.322c0.457,0.405,0.892,0.809,1.328,1.235C507.072,108.606,510.641,127.209,504.364,143.385z"
	/>
<path style="fill:#FFCD00;" d="M471.457,251.362c-42.914,87.619-155.696,191.989-362.182,178.625
	c-4.481-0.289-8.912-1.157-13.164-2.598c-14.563-4.938-26.108-16.202-31.402-30.641c0.007-0.104-10.67-25.803,14.607-35.304
	c68.915-25.904,219.89-31.028,344.949-251.737c22.802-40.243,80.54-26.976,81.648,13.83
	C506.486,144.599,498.98,195.166,471.457,251.362z"/>
<path style="fill:#EEBF00;" d="M424.265,109.706C299.208,330.414,148.234,335.539,79.32,361.447
	c-25.285,9.494-14.598,35.194-14.609,35.298c5.292,14.443,16.839,25.7,31.396,30.639c4.015,1.359,8.176,2.21,12.399,2.542
	c-0.457-1.006-0.872-2.044-1.255-3.092c0.01-0.104-10.676-25.804,14.609-35.298c68.914-25.908,219.888-31.033,344.945-251.741
	c9.089-16.041,23.729-23.573,38.109-24.258C497.059,81.163,445.503,72.219,424.265,109.706z"/>
<path style="fill:#FFE477;" d="M503.492,252.127C482.48,347.402,397.53,475.45,193.728,511.219
	c-4.423,0.776-8.932,0.981-13.405,0.583c-15.317-1.359-29.196-9.58-37.748-22.36l-2.613-3.903
	c-6.166-11.801-2.535-26.355,8.47-33.85c60.85-41.443,203.904-91.567,273.314-335.565c6.013-21.136,28.735-35.27,50.372-31.436l0,0
	c0.595,0.105,1.185,0.222,1.772,0.351c16.952,3.719,29.754,17.675,32.903,34.741C510.615,140.501,516.968,191.022,503.492,252.127z"
	/>
<path style="fill:#FFD422;" d="M502.693,107.631c-17.69,1.764-33.969,14.422-38.929,31.832
	c-69.412,244.001-212.46,294.125-273.312,335.565c-11.008,7.501-14.64,22.058-8.477,33.855l2.085,3.102
	c-1.245-0.01-2.49-0.073-3.735-0.187c-15.325-1.359-29.197-9.577-37.757-22.359l-2.604-3.901
	c-6.173-11.797-2.542-26.354,8.466-33.845c60.852-41.45,203.9-91.574,273.312-335.565c6.018-21.145,28.74-35.277,50.373-31.438
	c0.591,0.104,1.183,0.218,1.774,0.353C486.59,87.824,496.966,96.352,502.693,107.631z"/>
<g>
</g>
<g>
</g>
<g>
</g>
<g>
</g>
<g>
</g>
<g>
</g>
<g>
</g>
<g>
</g>
<g>
</g>
<g>
</g>
<g>
</g>
<g>
</g>
<g>
</g>
<g>
</g>
<g>
</g>
</svg>
