<?xml version="1.0" encoding="iso-8859-1"?>
<!-- Generator: Adobe Illustrator 19.0.0, SVG Export Plug-In . SVG Version: 6.00 Build 0)  -->
<svg version="1.1" id="Capa_1" xmlns="http://www.w3.org/2000/svg" xmlns:xlink="http://www.w3.org/1999/xlink" x="0px" y="0px"
	 viewBox="0 0 512 512" style="enable-background:new 0 0 512 512;" xml:space="preserve">
<path style="fill:#A5001E;" d="M275.11,512h-38.713c-8.918,0-14.485-9.65-10.031-17.362l3.309-5.742l16.052-27.795
	c4.454-7.712,15.599-7.712,20.052,0l15.98,27.682l3.382,5.856C289.595,502.35,284.028,512,275.11,512z"/>
<path style="fill:#830018;" d="M281.76,488.783c-8.176,2.98-17.001,4.598-26.207,4.598c-9.083,0-17.795-1.577-25.877-4.485
	l16.052-27.795c4.454-7.712,15.599-7.712,20.052,0L281.76,488.783z"/>
<path style="fill:#A5001E;" d="M285.141,17.362l-2.866,4.959L265.78,50.899c-4.454,7.712-15.599,7.712-20.052,0L229.16,22.197
	l-2.794-4.835C221.912,9.65,227.479,0,236.397,0h38.713C284.028,0,289.595,9.65,285.141,17.362z"/>
<path style="fill:#830018;" d="M282.275,22.32L265.78,50.899c-4.454,7.712-15.599,7.712-20.052,0L229.16,22.197
	c8.227-3.021,17.124-4.67,26.393-4.67C264.955,17.526,273.955,19.217,282.275,22.32z"/>
<path style="fill:#C70024;" d="M298.09,82.962v346.076c0,11.65-4.763,22.228-12.433,29.908c-3.361,3.351-7.268,6.155-11.578,8.237
	h-0.01c-5.547,2.691-11.763,4.196-18.31,4.196c-23.29,0-42.342-19.052-42.342-42.342V82.962c0-23.29,19.052-42.342,42.342-42.342
	c6.547,0,12.763,1.505,18.31,4.196h0.01C288.255,51.682,298.09,66.229,298.09,82.962z"/>
<path style="fill:#FF0C38;" d="M298.09,82.962v346.076c0,11.65-4.763,22.228-12.433,29.908c-3.361,3.351-7.268,6.155-11.578,8.237
	h-0.01c-14.176-6.866-24.011-21.413-24.011-38.146V82.962c0-16.733,9.835-31.28,24.011-38.146h0.01
	C288.255,51.682,298.09,66.229,298.09,82.962z"/>
<path style="fill:#A5001E;" d="M383.066,512h-38.713c-8.918,0-14.485-9.65-10.031-17.362l3.309-5.742l16.052-27.795
	c4.454-7.712,15.599-7.712,20.052,0l15.98,27.682l3.382,5.856C397.551,502.35,391.985,512,383.066,512z"/>
<path style="fill:#830018;" d="M389.716,488.783c-8.176,2.98-17.001,4.598-26.207,4.598c-9.083,0-17.795-1.577-25.877-4.485
	l16.052-27.795c4.454-7.712,15.599-7.712,20.052,0L389.716,488.783z"/>
<path style="fill:#A5001E;" d="M393.098,17.362l-2.866,4.959l-16.495,28.578c-4.454,7.712-15.599,7.712-20.052,0l-16.568-28.702
	l-2.794-4.835C329.869,9.65,335.435,0,344.353,0h38.713C391.985,0,397.551,9.65,393.098,17.362z"/>
<path style="fill:#830018;" d="M390.231,22.32l-16.496,28.578c-4.454,7.712-15.599,7.712-20.052,0l-16.568-28.702
	c8.227-3.021,17.124-4.67,26.393-4.67C372.912,17.526,381.911,19.217,390.231,22.32z"/>
<path style="fill:#C70024;" d="M406.047,82.962v346.076c0,11.65-4.763,22.228-12.433,29.908c-3.361,3.351-7.268,6.155-11.578,8.237
	h-0.01c-5.547,2.691-11.763,4.196-18.31,4.196c-23.29,0-42.342-19.052-42.342-42.342V82.962c0-23.29,19.052-42.342,42.342-42.342
	c6.547,0,12.763,1.505,18.31,4.196h0.01C396.211,51.682,406.047,66.229,406.047,82.962z"/>
<path style="fill:#FF0C38;" d="M406.047,82.962v346.076c0,11.65-4.763,22.228-12.433,29.908c-3.361,3.351-7.268,6.155-11.578,8.237
	h-0.01c-14.176-6.866-24.011-21.413-24.011-38.146V82.962c0-16.733,9.835-31.28,24.011-38.146h0.01
	C396.211,51.682,406.047,66.229,406.047,82.962z"/>
<path style="fill:#A5001E;" d="M167.646,512h-38.713c-8.918,0-14.485-9.65-10.031-17.362l3.309-5.742l16.052-27.795
	c4.454-7.712,15.599-7.712,20.052,0l15.98,27.682l3.382,5.856C182.131,502.35,176.564,512,167.646,512z"/>
<path style="fill:#830018;" d="M174.296,488.783c-8.176,2.98-17.001,4.598-26.207,4.598c-9.083,0-17.795-1.577-25.877-4.485
	l16.052-27.795c4.454-7.712,15.599-7.712,20.052,0L174.296,488.783z"/>
<path style="fill:#A5001E;" d="M177.677,17.362l-2.866,4.959l-16.496,28.578c-4.454,7.712-15.599,7.712-20.052,0l-16.568-28.702
	l-2.794-4.835C114.448,9.65,120.015,0,128.933,0h38.713C176.564,0,182.131,9.65,177.677,17.362z"/>
<path style="fill:#830018;" d="M174.811,22.32l-16.496,28.578c-4.454,7.712-15.599,7.712-20.052,0l-16.568-28.702
	c8.227-3.021,17.124-4.67,26.393-4.67C157.491,17.526,166.491,19.217,174.811,22.32z"/>
<path style="fill:#C70024;" d="M190.626,82.962v346.076c0,11.65-4.763,22.228-12.433,29.908c-3.361,3.351-7.268,6.155-11.578,8.237
	h-0.01c-5.547,2.691-11.763,4.196-18.31,4.196c-23.29,0-42.342-19.052-42.342-42.342V82.962c0-23.29,19.052-42.342,42.342-42.342
	c6.547,0,12.763,1.505,18.31,4.196h0.01C180.791,51.682,190.626,66.229,190.626,82.962z"/>
<path style="fill:#FF0C38;" d="M190.626,82.962v346.076c0,11.65-4.763,22.228-12.433,29.908c-3.361,3.351-7.268,6.155-11.578,8.237
	h-0.01c-14.176-6.866-24.011-21.413-24.011-38.146V82.962c0-16.733,9.835-31.28,24.011-38.146h0.01
	C180.791,51.682,190.626,66.229,190.626,82.962z"/>
<g>
	<path style="fill:#A5001E;" d="M172.997,100.087c-0.412,3.98-3.773,6.938-7.681,6.938c-0.268,0-0.536-0.01-0.804-0.041
		c-4.248-0.433-7.34-4.237-6.897-8.485c1.949-18.97-3.196-34.228-7.65-43.435c-4.598,7.701-9.402,17.805-9.402,25.671
		c0,4.268-3.464,7.732-7.732,7.732c-4.268,0-7.732-3.464-7.732-7.732c0-14.599,9.526-30.919,15.207-39.352
		c2.588-0.505,5.258-0.763,7.99-0.763c4.351,0,8.547,0.66,12.506,1.907C166.605,52.559,175.77,73.199,172.997,100.087z"/>
	<path style="fill:#A5001E;" d="M165.77,423.058c-4.268,0-7.732,3.464-7.732,7.732c0,7.248-4.083,16.392-8.32,23.805
		c-1.041-2.887-2.144-6.217-3.217-9.918c-1.175-4.093-5.464-6.464-9.567-5.279c-4.103,1.175-6.474,5.464-5.289,9.567
		c2.804,9.732,5.877,17.197,7.804,21.475c2.856,0.619,5.815,0.938,8.846,0.938c3.433,0,6.784-0.412,9.98-1.206
		c5.67-8.423,15.227-24.764,15.227-39.383C173.502,426.522,170.038,423.058,165.77,423.058z M141.068,415.79
		c-0.34-3.949-0.515-7.908-0.515-11.763c0-0.516,0-1.021,0.01-1.536c0.052-4.268-3.371-7.774-7.639-7.825
		c-4.268-0.052-7.774,3.371-7.825,7.639c-0.01,0.577-0.01,1.144-0.01,1.722c0,4.309,0.196,8.712,0.577,13.104
		c0.351,4.031,3.722,7.062,7.691,7.062c0.227,0,0.454-0.01,0.68-0.031C138.294,423.79,141.439,420.048,141.068,415.79z"/>
	<path style="fill:#A5001E;" d="M286.455,94.921c-0.041,4.237-3.495,7.639-7.722,7.639h-0.093c-4.279-0.052-7.691-3.557-7.65-7.825
		c0.175-14.568-3.351-25.279-7.454-32.795v43.878c0,4.279-3.464,7.732-7.732,7.732c-4.268,0-7.732-3.454-7.732-7.732V66.745
		c-2.412,4.99-4.124,10.093-4.124,14.465c0,4.268-3.464,7.732-7.732,7.732c-4.268,0-7.732-3.464-7.732-7.732
		c0-13.805,9.835-30.094,16.609-39.218c3.413-0.897,6.99-1.371,10.671-1.371c4.691,0,9.217,0.773,13.454,2.206
		C279.011,54.167,286.723,72.56,286.455,94.921z"/>
	<path style="fill:#A5001E;" d="M278.547,426.368c-0.711,21.558-7.371,35.95-12.207,43.662h-0.01
		c-3.382,0.887-6.918,1.351-10.567,1.351c-4.639,0-9.124-0.763-13.31-2.165h-0.01c-3.196-5.526-5.505-12.351-7.248-17.691
		c-3.815-11.66-6.423-23.238-6.526-23.723c-0.938-4.165,1.691-8.299,5.856-9.237c4.165-0.938,8.299,1.691,9.237,5.856
		c3.072,13.743,7.516,27.609,10.97,34.95c3.495-6.32,7.825-17.31,8.361-33.517c0.144-4.268,3.763-7.598,7.99-7.475
		C275.351,418.522,278.692,422.099,278.547,426.368z"/>
	<path style="fill:#A5001E;" d="M386.902,431.265c0,14.599-9.516,30.908-15.197,39.342c-2.588,0.505-5.258,0.773-7.99,0.773
		c-4.351,0-8.557-0.67-12.516-1.897c-5.794-10.031-14.959-30.682-12.196-57.569c0.443-4.248,4.237-7.33,8.485-6.897
		c4.248,0.433,7.34,4.237,6.897,8.485c-1.949,18.97,3.196,34.228,7.65,43.435c4.598-7.701,9.402-17.805,9.402-25.671
		c0-4.268,3.464-7.732,7.732-7.732C383.448,423.533,386.902,426.997,386.902,431.265z"/>
	<path style="fill:#A5001E;" d="M377.964,87.833c-4.255,0.371-7.402,4.121-7.031,8.376c0.344,3.944,0.519,7.903,0.519,11.766
		c0,0.507-0.003,1.017-0.009,1.527c-0.056,4.27,3.361,7.777,7.631,7.832c0.033,0,0.067,0,0.102,0c4.224,0,7.675-3.396,7.729-7.632
		c0.008-0.578,0.011-1.154,0.011-1.727c0-4.31-0.194-8.721-0.577-13.111C385.967,90.611,382.196,87.473,377.964,87.833z"/>
	<path style="fill:#A5001E;" d="M375.067,72.601c-4.103,1.186-8.382-1.175-9.567-5.279c-1.062-3.691-2.175-7.021-3.227-9.918
		c-4.227,7.413-8.31,16.568-8.31,23.805c0,4.268-3.464,7.732-7.732,7.732c-4.268,0-7.732-3.464-7.732-7.732
		c0-14.619,9.557-30.96,15.227-39.383c3.206-0.794,6.547-1.206,9.99-1.206c3.031,0,5.99,0.33,8.835,0.948
		c1.938,4.289,5,11.743,7.804,21.465C381.541,67.137,379.17,71.426,375.067,72.601z"/>
</g>
<g>
</g>
<g>
</g>
<g>
</g>
<g>
</g>
<g>
</g>
<g>
</g>
<g>
</g>
<g>
</g>
<g>
</g>
<g>
</g>
<g>
</g>
<g>
</g>
<g>
</g>
<g>
</g>
<g>
</g>
</svg>
