<?xml version="1.0" encoding="UTF-8"?>
<!DOCTYPE svg PUBLIC "-//W3C//DTD SVG 1.1//EN" "http://www.w3.org/Graphics/SVG/1.1/DTD/svg11.dtd">
<svg xmlns="http://www.w3.org/2000/svg" version="1.1" width="512px" height="512px" style="shape-rendering:geometricPrecision; text-rendering:geometricPrecision; image-rendering:optimizeQuality; fill-rule:evenodd; clip-rule:evenodd" xmlns:xlink="http://www.w3.org/1999/xlink">
<g><path style="opacity:0.987" fill="#e42d15" d="M 152.5,-0.5 C 170.5,-0.5 188.5,-0.5 206.5,-0.5C 207.458,5.74365 207.791,12.077 207.5,18.5C 188.5,18.5 169.5,18.5 150.5,18.5C 150.334,12.8236 150.501,7.15688 151,1.5C 151.717,0.955796 152.217,0.28913 152.5,-0.5 Z"/></g>
<g><path style="opacity:1" fill="#4a4155" d="M 207.5,19.5 C 207.5,24.1667 207.5,28.8333 207.5,33.5C 188.833,33.5 170.167,33.5 151.5,33.5C 151.5,28.8333 151.5,24.1667 151.5,19.5C 170.167,19.5 188.833,19.5 207.5,19.5 Z"/></g>
<g><path style="opacity:1" fill="#743c44" d="M 150.5,18.5 C 169.5,18.5 188.5,18.5 207.5,18.5C 207.5,18.8333 207.5,19.1667 207.5,19.5C 188.833,19.5 170.167,19.5 151.5,19.5C 151.5,24.1667 151.5,28.8333 151.5,33.5C 170.167,33.5 188.833,33.5 207.5,33.5C 207.5,33.8333 207.5,34.1667 207.5,34.5C 188.5,34.5 169.5,34.5 150.5,34.5C 150.5,29.1667 150.5,23.8333 150.5,18.5 Z"/></g>
<g><path style="opacity:0.989" fill="#e42d15" d="M 150.5,34.5 C 169.5,34.5 188.5,34.5 207.5,34.5C 207.667,55.5026 207.5,76.5026 207,97.5C 206.617,98.056 206.117,98.3893 205.5,98.5C 188.167,98.5 170.833,98.5 153.5,98.5C 152.25,98.4226 151.417,97.756 151,96.5C 150.5,75.836 150.333,55.1694 150.5,34.5 Z"/></g>
<g><path style="opacity:1" fill="#b6d1c6" d="M 153.5,98.5 C 170.833,98.5 188.167,98.5 205.5,98.5C 205.334,105.841 205.5,113.174 206,120.5C 206.725,122.949 207.725,125.283 209,127.5C 219.303,138.804 229.97,149.804 241,160.5C 242.586,162.67 243.92,165.004 245,167.5C 244.471,265.019 242.971,362.519 240.5,460C 240.928,465.355 243.095,469.855 247,473.5C 247.632,483.859 247.299,494.193 246,504.5C 245.033,507.621 243.2,509.954 240.5,511.5C 223.5,511.5 206.5,511.5 189.5,511.5C 190.067,498.833 190.234,486.166 190,473.5C 188,470.833 186,468.167 184,465.5C 183.502,462.518 183.335,459.518 183.5,456.5C 192.839,456.666 202.173,456.5 211.5,456C 216.833,451.333 216.833,446.667 211.5,442C 210.552,441.517 209.552,441.351 208.5,441.5C 200.684,440.508 192.684,440.174 184.5,440.5C 184.5,437.833 184.5,435.167 184.5,432.5C 193.506,432.666 202.506,432.5 211.5,432C 216.833,427.333 216.833,422.667 211.5,418C 202.506,417.5 193.506,417.334 184.5,417.5C 185.079,386.503 185.412,355.503 185.5,324.5C 185.833,324.5 186.167,324.5 186.5,324.5C 194.507,324.666 202.507,324.5 210.5,324C 211.333,323.167 212.167,322.333 213,321.5C 214.303,304.516 214.636,287.516 214,270.5C 213.5,270 213,269.5 212.5,269C 204.277,267.562 195.943,267.062 187.5,267.5C 187.5,250.833 187.5,234.167 187.5,217.5C 187.833,217.5 188.167,217.5 188.5,217.5C 197.164,219.5 205.498,222.5 213.5,226.5C 216.168,226.255 218.002,224.921 219,222.5C 219.667,216.5 219.667,210.5 219,204.5C 218.215,202.714 217.049,201.214 215.5,200C 206.891,196.098 197.891,193.598 188.5,192.5C 183.833,192.5 179.167,192.5 174.5,192.5C 178.97,191.514 183.637,191.181 188.5,191.5C 188.941,182.724 188.441,174.058 187,165.5C 174.6,152.604 162.434,139.604 150.5,126.5C 153.058,117.382 154.058,108.049 153.5,98.5 Z"/></g>
<g><path style="opacity:0.99" fill="#cde9df" d="M 150.5,126.5 C 162.434,139.604 174.6,152.604 187,165.5C 188.441,174.058 188.941,182.724 188.5,191.5C 183.637,191.181 178.97,191.514 174.5,192.5C 162.806,192.673 151.806,195.507 141.5,201C 140.54,202.419 139.707,203.919 139,205.5C 138.091,211.612 138.424,217.612 140,223.5C 142.497,225.478 145.331,225.978 148.5,225C 160.791,217.834 173.791,215.334 187.5,217.5C 187.5,234.167 187.5,250.833 187.5,267.5C 174.163,267.333 160.829,267.5 147.5,268C 146.584,268.374 145.75,268.874 145,269.5C 144.028,287.258 144.361,304.924 146,322.5C 146.75,323.126 147.584,323.626 148.5,324C 160.829,324.5 173.162,324.667 185.5,324.5C 185.412,355.503 185.079,386.503 184.5,417.5C 171.829,417.333 159.162,417.5 146.5,418C 141.395,422.549 141.395,427.216 146.5,432C 159.162,432.5 171.829,432.667 184.5,432.5C 184.5,435.167 184.5,437.833 184.5,440.5C 192.684,440.174 200.684,440.508 208.5,441.5C 187.831,441.333 167.164,441.5 146.5,442C 141.171,447.034 141.504,451.701 147.5,456C 159.495,456.5 171.495,456.667 183.5,456.5C 183.335,459.518 183.502,462.518 184,465.5C 186,468.167 188,470.833 190,473.5C 190.234,486.166 190.067,498.833 189.5,511.5C 165.833,511.5 142.167,511.5 118.5,511.5C 115.443,509.605 113.277,506.938 112,503.5C 111.706,495.152 111.206,486.818 110.5,478.5C 110.594,476.077 111.094,473.744 112,471.5C 114.472,469.702 116.139,467.368 117,464.5C 117.167,460.167 117.333,455.833 117.5,451.5C 115.333,357.173 113.833,262.839 113,168.5C 113.471,166.754 114.138,165.087 115,163.5C 126.7,150.968 138.534,138.635 150.5,126.5 Z"/></g>
<g><path style="opacity:1" fill="#fb502b" d="M 174.5,192.5 C 179.167,192.5 183.833,192.5 188.5,192.5C 188.5,200.833 188.5,209.167 188.5,217.5C 188.167,217.5 187.833,217.5 187.5,217.5C 173.791,215.334 160.791,217.834 148.5,225C 145.331,225.978 142.497,225.478 140,223.5C 138.424,217.612 138.091,211.612 139,205.5C 139.707,203.919 140.54,202.419 141.5,201C 151.806,195.507 162.806,192.673 174.5,192.5 Z"/></g>
<g><path style="opacity:1" fill="#e42f17" d="M 188.5,192.5 C 197.891,193.598 206.891,196.098 215.5,200C 217.049,201.214 218.215,202.714 219,204.5C 219.667,210.5 219.667,216.5 219,222.5C 218.002,224.921 216.168,226.255 213.5,226.5C 205.498,222.5 197.164,219.5 188.5,217.5C 188.5,209.167 188.5,200.833 188.5,192.5 Z"/></g>
<g><path style="opacity:1" fill="#fb522d" d="M 187.5,267.5 C 186.513,286.424 186.18,305.424 186.5,324.5C 186.167,324.5 185.833,324.5 185.5,324.5C 173.162,324.667 160.829,324.5 148.5,324C 147.584,323.626 146.75,323.126 146,322.5C 144.361,304.924 144.028,287.258 145,269.5C 145.75,268.874 146.584,268.374 147.5,268C 160.829,267.5 174.163,267.333 187.5,267.5 Z"/></g>
<g><path style="opacity:1" fill="#e53017" d="M 187.5,267.5 C 195.943,267.062 204.277,267.562 212.5,269C 213,269.5 213.5,270 214,270.5C 214.636,287.516 214.303,304.516 213,321.5C 212.167,322.333 211.333,323.167 210.5,324C 202.507,324.5 194.507,324.666 186.5,324.5C 186.18,305.424 186.513,286.424 187.5,267.5 Z"/></g>
<g><path style="opacity:0.961" fill="#e4f8f5" d="M 394.5,353.5 C 377.833,353.5 361.167,353.5 344.5,353.5C 343.472,363.139 342.806,372.806 342.5,382.5C 342.167,382.5 341.833,382.5 341.5,382.5C 323.801,381.847 306.468,382.514 289.5,384.5C 288.103,375.354 287.603,366.021 288,356.5C 289.319,354.513 291.152,353.346 293.5,353C 327.336,352.169 361.002,352.336 394.5,353.5 Z"/></g>
<g><path style="opacity:1" fill="#d5e5e1" d="M 394.5,353.5 C 398.674,354.071 400.674,356.571 400.5,361C 399.564,371.654 398.564,382.154 397.5,392.5C 397.5,389.167 397.5,385.833 397.5,382.5C 379.167,382.5 360.833,382.5 342.5,382.5C 342.806,372.806 343.472,363.139 344.5,353.5C 361.167,353.5 377.833,353.5 394.5,353.5 Z"/></g>
<g><path style="opacity:1" fill="#cdeae0" d="M 341.5,382.5 C 339.633,417.174 337.633,451.841 335.5,486.5C 322.167,486.5 308.833,486.5 295.5,486.5C 293.456,452.502 291.456,418.502 289.5,384.5C 306.468,382.514 323.801,381.847 341.5,382.5 Z"/></g>
<g><path style="opacity:1" fill="#b6d1c6" d="M 341.5,382.5 C 341.833,382.5 342.167,382.5 342.5,382.5C 360.833,382.5 379.167,382.5 397.5,382.5C 397.5,385.833 397.5,389.167 397.5,392.5C 395.942,423.533 393.942,454.533 391.5,485.5C 372.88,486.474 354.213,486.808 335.5,486.5C 337.633,451.841 339.633,417.174 341.5,382.5 Z"/></g>
<g><path style="opacity:1" fill="#fefefe" d="M 184.5,417.5 C 193.506,417.334 202.506,417.5 211.5,418C 216.833,422.667 216.833,427.333 211.5,432C 202.506,432.5 193.506,432.666 184.5,432.5C 171.829,432.667 159.162,432.5 146.5,432C 141.395,427.216 141.395,422.549 146.5,418C 159.162,417.5 171.829,417.333 184.5,417.5 Z"/></g>
<g><path style="opacity:1" fill="#fefefe" d="M 208.5,441.5 C 209.552,441.351 210.552,441.517 211.5,442C 216.833,446.667 216.833,451.333 211.5,456C 202.173,456.5 192.839,456.666 183.5,456.5C 171.495,456.667 159.495,456.5 147.5,456C 141.504,451.701 141.171,447.034 146.5,442C 167.164,441.5 187.831,441.333 208.5,441.5 Z"/></g>
<g><path style="opacity:0.999" fill="#deece6" d="M 295.5,486.5 C 308.833,486.5 322.167,486.5 335.5,486.5C 334.569,494.789 333.903,503.123 333.5,511.5C 323.5,511.5 313.5,511.5 303.5,511.5C 301.193,510.023 299.36,508.023 298,505.5C 296.977,499.148 296.144,492.815 295.5,486.5 Z"/></g>
<g><path style="opacity:1" fill="#d6e0dc" d="M 391.5,485.5 C 391.569,492.617 390.735,499.617 389,506.5C 387.27,508.402 385.437,510.069 383.5,511.5C 366.833,511.5 350.167,511.5 333.5,511.5C 333.903,503.123 334.569,494.789 335.5,486.5C 354.213,486.808 372.88,486.474 391.5,485.5 Z"/></g>
</svg>
